<svg width="37" height="40" viewBox="0 0 37 40" fill="none" xmlns="http://www.w3.org/2000/svg"><path d="M4.5 40C3.4 40 2.45833 39.6083 1.675 38.825C0.891667 38.0417 0.5 37.1 0.5 36V8C0.5 6.9 0.891667 5.95833 1.675 5.175C2.45833 4.39167 3.4 4 4.5 4H6.5V0H10.5V4H26.5V0H30.5V4H32.5C33.6 4 34.5417 4.39167 35.325 5.175C36.1083 5.95833 36.5 6.9 36.5 8V36C36.5 37.1 36.1083 38.0417 35.325 38.825C34.5417 39.6083 33.6 40 32.5 40H4.5ZM4.5 36H32.5V16H4.5V36ZM4.5 12H32.5V8H4.5V12ZM18.5 24C17.9333 24 17.4583 23.8083 17.075 23.425C16.6917 23.0417 16.5 22.5667 16.5 22C16.5 21.4333 16.6917 20.9583 17.075 20.575C17.4583 20.1917 17.9333 20 18.5 20C19.0667 20 19.5417 20.1917 19.925 20.575C20.3083 20.9583 20.5 21.4333 20.5 22C20.5 22.5667 20.3083 23.0417 19.925 23.425C19.5417 23.8083 19.0667 24 18.5 24ZM10.5 24C9.93333 24 9.45833 23.8083 9.075 23.425C8.69167 23.0417 8.5 22.5667 8.5 22C8.5 21.4333 8.69167 20.9583 9.075 20.575C9.45833 20.1917 9.93333 20 10.5 20C11.0667 20 11.5417 20.1917 11.925 20.575C12.3083 20.9583 12.5 21.4333 12.5 22C12.5 22.5667 12.3083 23.0417 11.925 23.425C11.5417 23.8083 11.0667 24 10.5 24ZM26.5 24C25.9333 24 25.4583 23.8083 25.075 23.425C24.6917 23.0417 24.5 22.5667 24.5 22C24.5 21.4333 24.6917 20.9583 25.075 20.575C25.4583 20.1917 25.9333 20 26.5 20C27.0667 20 27.5417 20.1917 27.925 20.575C28.3083 20.9583 28.5 21.4333 28.5 22C28.5 22.5667 28.3083 23.0417 27.925 23.425C27.5417 23.8083 27.0667 24 26.5 24ZM18.5 32C17.9333 32 17.4583 31.8083 17.075 31.425C16.6917 31.0417 16.5 30.5667 16.5 30C16.5 29.4333 16.6917 28.9583 17.075 28.575C17.4583 28.1917 17.9333 28 18.5 28C19.0667 28 19.5417 28.1917 19.925 28.575C20.3083 28.9583 20.5 29.4333 20.5 30C20.5 30.5667 20.3083 31.0417 19.925 31.425C19.5417 31.8083 19.0667 32 18.5 32ZM10.5 32C9.93333 32 9.45833 31.8083 9.075 31.425C8.69167 31.0417 8.5 30.5667 8.5 30C8.5 29.4333 8.69167 28.9583 9.075 28.575C9.45833 28.1917 9.93333 28 10.5 28C11.0667 28 11.5417 28.1917 11.925 28.575C12.3083 28.9583 12.5 29.4333 12.5 30C12.5 30.5667 12.3083 31.0417 11.925 31.425C11.5417 31.8083 11.0667 32 10.5 32ZM26.5 32C25.9333 32 25.4583 31.8083 25.075 31.425C24.6917 31.0417 24.5 30.5667 24.5 30C24.5 29.4333 24.6917 28.9583 25.075 28.575C25.4583 28.1917 25.9333 28 26.5 28C27.0667 28 27.5417 28.1917 27.925 28.575C28.3083 28.9583 28.5 29.4333 28.5 30C28.5 30.5667 28.3083 31.0417 27.925 31.425C27.5417 31.8083 27.0667 32 26.5 32Z" fill="white"/></svg>