<svg width="41" height="40" viewBox="0 0 41 40" fill="none" xmlns="http://www.w3.org/2000/svg"><path d="M15.0004 40L14.2004 33.6C13.7671 33.4333 13.3587 33.2333 12.9754 33C12.5921 32.7667 12.2171 32.5167 11.8504 32.25L5.90039 34.75L0.400391 25.25L5.55039 21.35C5.51706 21.1167 5.50039 20.8917 5.50039 20.675V19.325C5.50039 19.1083 5.51706 18.8833 5.55039 18.65L0.400391 14.75L5.90039 5.25L11.8504 7.75C12.2171 7.48333 12.6004 7.23333 13.0004 7C13.4004 6.76667 13.8004 6.56667 14.2004 6.4L15.0004 0H26.0004L26.8004 6.4C27.2337 6.56667 27.6421 6.76667 28.0254 7C28.4087 7.23333 28.7837 7.48333 29.1504 7.75L35.1004 5.25L40.6004 14.75L35.4504 18.65C35.4837 18.8833 35.5004 19.1083 35.5004 19.325V20.675C35.5004 20.8917 35.4671 21.1167 35.4004 21.35L40.5504 25.25L35.0504 34.75L29.1504 32.25C28.7837 32.5167 28.4004 32.7667 28.0004 33C27.6004 33.2333 27.2004 33.4333 26.8004 33.6L26.0004 40H15.0004ZM18.5004 36H22.4504L23.1504 30.7C24.1837 30.4333 25.1421 30.0417 26.0254 29.525C26.9087 29.0083 27.7171 28.3833 28.4504 27.65L33.4004 29.7L35.3504 26.3L31.0504 23.05C31.2171 22.5833 31.3337 22.0917 31.4004 21.575C31.4671 21.0583 31.5004 20.5333 31.5004 20C31.5004 19.4667 31.4671 18.9417 31.4004 18.425C31.3337 17.9083 31.2171 17.4167 31.0504 16.95L35.3504 13.7L33.4004 10.3L28.4504 12.4C27.7171 11.6333 26.9087 10.9917 26.0254 10.475C25.1421 9.95833 24.1837 9.56667 23.1504 9.3L22.5004 4H18.5504L17.8504 9.3C16.8171 9.56667 15.8587 9.95833 14.9754 10.475C14.0921 10.9917 13.2837 11.6167 12.5504 12.35L7.60039 10.3L5.65039 13.7L9.95039 16.9C9.78372 17.4 9.66706 17.9 9.60039 18.4C9.53372 18.9 9.50039 19.4333 9.50039 20C9.50039 20.5333 9.53372 21.05 9.60039 21.55C9.66706 22.05 9.78372 22.55 9.95039 23.05L5.65039 26.3L7.60039 29.7L12.5504 27.6C13.2837 28.3667 14.0921 29.0083 14.9754 29.525C15.8587 30.0417 16.8171 30.4333 17.8504 30.7L18.5004 36ZM20.6004 27C22.5337 27 24.1837 26.3167 25.5504 24.95C26.9171 23.5833 27.6004 21.9333 27.6004 20C27.6004 18.0667 26.9171 16.4167 25.5504 15.05C24.1837 13.6833 22.5337 13 20.6004 13C18.6337 13 16.9754 13.6833 15.6254 15.05C14.2754 16.4167 13.6004 18.0667 13.6004 20C13.6004 21.9333 14.2754 23.5833 15.6254 24.95C16.9754 26.3167 18.6337 27 20.6004 27Z" fill="white"/></svg>