<svg width="80" height="81" viewBox="0 0 80 81" fill="none" xmlns="http://www.w3.org/2000/svg" xmlns:xlink="http://www.w3.org/1999/xlink"><g clip-path="url(#clip0_2199_1421)"><path d="M0 40.1494C0 18.058 17.9086 0.149414 40 0.149414C62.0914 0.149414 80 18.058 80 40.1494C80 62.2408 62.0914 80.1494 40 80.1494C17.9086 80.1494 0 62.2408 0 40.1494Z" fill="white"/><rect x="-4" y="-3.69434" width="88" height="88" fill="url(#pattern0_2199_1421)"/></g><defs><pattern id="pattern0_2199_1421" patternContentUnits="objectBoundingBox" width="1" height="1"><use xlink:href="#image0_2199_1421" transform="scale(0.000833333)"/></pattern><clipPath id="clip0_2199_1421"><path d="M0 40.1494C0 18.058 17.9086 0.149414 40 0.149414C62.0914 0.149414 80 18.058 80 40.1494C80 62.2408 62.0914 80.1494 40 80.1494C17.9086 80.1494 0 62.2408 0 40.1494Z" fill="white"/></clipPath></defs></svg>