<svg width="41" height="40" viewBox="0 0 41 40" fill="none" xmlns="http://www.w3.org/2000/svg"><path d="M18.7 34H22.2V31.5C23.8667 31.2 25.3 30.55 26.5 29.55C27.7 28.55 28.3 27.0667 28.3 25.1C28.3 23.7 27.9 22.4167 27.1 21.25C26.3 20.0833 24.7 19.0667 22.3 18.2C20.3 17.5333 18.9167 16.95 18.15 16.45C17.3833 15.95 17 15.2667 17 14.4C17 13.5333 17.3083 12.85 17.925 12.35C18.5417 11.85 19.4333 11.6 20.6 11.6C21.6667 11.6 22.5 11.8583 23.1 12.375C23.7 12.8917 24.1333 13.5333 24.4 14.3L27.6 13C27.2333 11.8333 26.5583 10.8167 25.575 9.95C24.5917 9.08333 23.5 8.6 22.3 8.5V6H18.8V8.5C17.1333 8.86667 15.8333 9.6 14.9 10.7C13.9667 11.8 13.5 13.0333 13.5 14.4C13.5 15.9667 13.9583 17.2333 14.875 18.2C15.7917 19.1667 17.2333 20 19.2 20.7C21.3 21.4667 22.7583 22.15 23.575 22.75C24.3917 23.35 24.8 24.1333 24.8 25.1C24.8 26.2 24.4083 27.0083 23.625 27.525C22.8417 28.0417 21.9 28.3 20.8 28.3C19.7 28.3 18.725 27.9583 17.875 27.275C17.025 26.5917 16.4 25.5667 16 24.2L12.7 25.5C13.1667 27.1 13.8917 28.3917 14.875 29.375C15.8583 30.3583 17.1333 31.0333 18.7 31.4V34ZM20.5 40C17.7333 40 15.1333 39.475 12.7 38.425C10.2667 37.375 8.15 35.95 6.35 34.15C4.55 32.35 3.125 30.2333 2.075 27.8C1.025 25.3667 0.5 22.7667 0.5 20C0.5 17.2333 1.025 14.6333 2.075 12.2C3.125 9.76667 4.55 7.65 6.35 5.85C8.15 4.05 10.2667 2.625 12.7 1.575C15.1333 0.525 17.7333 0 20.5 0C23.2667 0 25.8667 0.525 28.3 1.575C30.7333 2.625 32.85 4.05 34.65 5.85C36.45 7.65 37.875 9.76667 38.925 12.2C39.975 14.6333 40.5 17.2333 40.5 20C40.5 22.7667 39.975 25.3667 38.925 27.8C37.875 30.2333 36.45 32.35 34.65 34.15C32.85 35.95 30.7333 37.375 28.3 38.425C25.8667 39.475 23.2667 40 20.5 40ZM20.5 36C24.9667 36 28.75 34.45 31.85 31.35C34.95 28.25 36.5 24.4667 36.5 20C36.5 15.5333 34.95 11.75 31.85 8.65C28.75 5.55 24.9667 4 20.5 4C16.0333 4 12.25 5.55 9.15 8.65C6.05 11.75 4.5 15.5333 4.5 20C4.5 24.4667 6.05 28.25 9.15 31.35C12.25 34.45 16.0333 36 20.5 36Z" fill="white"/></svg>