<svg width="80" height="81" viewBox="0 0 80 81" fill="none" xmlns="http://www.w3.org/2000/svg" xmlns:xlink="http://www.w3.org/1999/xlink"><g clip-path="url(#clip0_2199_1431)"><path d="M0 40.1494C0 18.058 17.9086 0.149414 40 0.149414C62.0914 0.149414 80 18.058 80 40.1494C80 62.2408 62.0914 80.1494 40 80.1494C17.9086 80.1494 0 62.2408 0 40.1494Z" fill="black"/><rect x="-13" y="0.000976562" width="106" height="80" fill="url(#pattern0_2199_1431)"/></g><defs><pattern id="pattern0_2199_1431" patternContentUnits="objectBoundingBox" width="1" height="1"><use xlink:href="#image0_2199_1431" transform="matrix(0.000748727 0 0 0.000992063 -0.00314465 0)"/></pattern><clipPath id="clip0_2199_1431"><path d="M0 40.1494C0 18.058 17.9086 0.149414 40 0.149414C62.0914 0.149414 80 18.058 80 40.1494C80 62.2408 62.0914 80.1494 40 80.1494C17.9086 80.1494 0 62.2408 0 40.1494Z" fill="white"/></clipPath></defs></svg>