<svg width="230" height="230" viewBox="0 0 230 230" fill="none" xmlns="http://www.w3.org/2000/svg"><g clip-path="url(#clip0_2199_1165)"><rect width="230" height="230" rx="45" fill="#D4D4D4"/><path d="M-17 41.871C-17 14.8803 4.82615 -7 31.75 -7H363.25C390.174 -7 412 14.8803 412 41.871V247.129C412 274.12 390.174 296 363.25 296H31.75C4.82615 296 -17 274.12 -17 247.129V41.871Z" fill="#302743"/><path d="M321.822 206.935C199.459 347.279 -40.219 356.495 -169.729 232.909C-181.3 222.228 -192.25 210.898 -202.527 198.976C-215.562 199.395 -252.566 199.395 -282 190.597C-227.395 278.673 -140.015 341.632 -38.9577 365.712C56.9513 388.237 157.737 376.832 246.134 333.454C326.422 292.785 389.498 224.892 424 142C422.739 144.094 385.315 181.799 321.822 206.935Z" fill="url(#paint0_linear_2199_1165)"/><path d="M369 -162.499C289.154 -191.471 156.777 -204.067 33.2258 -177.195C-86.8838 -149.849 -197.463 -90.8372 -287 -6.3028C-285.739 13.0117 -282.798 34.4258 -277.335 55C-248.758 12.5919 -206.734 -18.4794 -197.488 -26.877C-56.7065 -136.886 109.289 -181.393 291.255 -149.483C297.139 -148.223 325.295 -142.765 348.408 -134.786C358.914 -147.383 368.581 -162.499 369 -162.499Z" fill="url(#paint1_linear_2199_1165)"/><path d="M-316.635 15.5814C-306.121 41.8561 -289.57 65.293 -268.319 84C-293.368 12.0725 -294.105 -66.0785 -270.42 -138.465C-255.12 -178.925 -234.034 -216.957 -207.819 -251.377C-184.712 -280.759 -156.563 -305.105 -125.473 -325.252C-81.0517 -352.702 -31.3017 -370.414 20.4843 -377.215C72.2702 -384.017 124.911 -379.754 174.924 -364.708C213.851 -355.686 250.352 -338.328 281.907 -313.833C313.461 -289.337 339.316 -258.289 357.685 -222.834C365.163 -206.834 370.937 -190.092 374.909 -172.885C380.792 -182.538 388.774 -195.55 392.135 -203.106C395.497 -208.982 400.538 -213.6 406 -216.119C309.368 -491.052 -188.913 -519.175 -320.417 -160.292C-322.626 -153.51 -324.588 -146.649 -326.299 -139.725C-327.138 -132.589 -350.666 -61.6518 -316.635 15.5814Z" fill="url(#paint2_linear_2199_1165)"/><path d="M431.445 -214.754C424.67 -218.229 416.81 -218.945 409.519 -216.751C402.226 -214.557 396.068 -209.623 392.339 -202.986C386.873 -192.059 372.155 -168.104 368.371 -162.22C342.734 -125.321 312.175 -92.0927 277.541 -63.458C103.453 83.6348 -169.875 152.558 -261.125 132.806C-278.464 129.237 -294.866 122.085 -309.277 111.808C-323.687 101.53 -335.79 88.3554 -344.805 73.1282C-359.522 111.373 -350.692 144.153 -327.143 165.587C-269.114 219.381 -144.645 196.686 -68.1131 176.933C78.6429 139.109 208.579 86.9969 321.274 -13.0262C397.385 -81.1092 421.774 -130.701 444.902 -177.35C450.368 -191.219 444.902 -207.609 431.445 -214.754Z" fill="url(#paint3_linear_2199_1165)"/><path d="M451.738 -98.9933C451.317 -99.413 456.78 -80.1042 457.621 -71.2894C462.663 -26.7949 440.812 37.0084 415.178 73.5273C375.257 130.195 291.212 159.158 222.297 169.652C132.887 181.158 42.3784 181.299 -47.0662 170.072L-68.9178 175.529C-135.733 191.899 -187 196.516 -187 196.516C-43.2842 252.345 170.609 249.406 272.302 221.702C474.01 168.813 530.74 9.30438 451.738 -98.9933Z" fill="url(#paint4_linear_2199_1165)"/></g><defs><linearGradient id="paint0_linear_2199_1165" x1="-281.579" y1="259.721" x2="424.421" y2="259.721" gradientUnits="userSpaceOnUse"><stop stop-color="#0093FF"/><stop offset="1" stop-color="#0086FF"/></linearGradient><linearGradient id="paint1_linear_2199_1165" x1="-287" y1="-68.4453" x2="369" y2="-68.4453" gradientUnits="userSpaceOnUse"><stop stop-color="#4C67FF" stop-opacity="0.8"/><stop offset="0.1" stop-color="#476BFF" stop-opacity="0.8"/><stop offset="0.3" stop-color="#3973FF" stop-opacity="0.7"/><stop offset="0.5" stop-color="#3576FF" stop-opacity="0.6"/><stop offset="0.7" stop-color="#3179FF" stop-opacity="0.7"/><stop offset="0.9" stop-color="#2481FF" stop-opacity="0.8"/><stop offset="1" stop-color="#1E85FF" stop-opacity="0.8"/></linearGradient><linearGradient id="paint2_linear_2199_1165" x1="-335.121" y1="-170.785" x2="406.42" y2="-170.785" gradientUnits="userSpaceOnUse"><stop stop-color="#0096FF"/><stop offset="1" stop-color="#00DCFF"/></linearGradient><linearGradient id="paint3_linear_2199_1165" x1="-352.374" y1="-9.66409" x2="446.584" y2="-9.66409" gradientUnits="userSpaceOnUse"><stop offset="0.1" stop-color="#4057FF"/><stop offset="0.5" stop-color="#AA5CFF"/><stop offset="1" stop-color="#FF3F68"/></linearGradient><linearGradient id="paint4_linear_2199_1165" x1="-186.58" y1="71.0089" x2="486.196" y2="71.0089" gradientUnits="userSpaceOnUse"><stop stop-color="#0081FF"/><stop offset="1" stop-color="#0073FF"/></linearGradient><clipPath id="clip0_2199_1165"><rect width="230" height="230" rx="45" fill="white"/></clipPath></defs></svg>