<svg width="21" height="22" viewBox="0 0 21 22" fill="currentColor" xmlns="http://www.w3.org/2000/svg">
<path fill-rule="evenodd" clip-rule="evenodd" d="M4.71094 6.62135C4.71094 3.27083 7.42708 0.554688 10.7776 0.554688C14.1281 0.554688 16.8443 3.27083 16.8443 6.62135C16.8443 9.97188 14.1281 12.688 10.7776 12.688C7.42708 12.688 4.71094 9.97188 4.71094 6.62135Z" fill="currentColor"/>
<path fill-rule="evenodd" clip-rule="evenodd" d="M4.07724 15.3307C5.72786 14.5429 7.93891 14.2886 10.7791 14.2886C13.6193 14.2886 15.8303 14.5429 17.4809 15.3307C19.2231 16.1622 20.2801 17.5566 20.8445 19.572C20.94 19.9131 20.8839 20.2842 20.6934 20.5719C20.5028 20.8595 20.2005 21.0293 19.8791 21.0293H1.67909C1.35765 21.0293 1.05536 20.8595 0.864804 20.5719C0.674249 20.2842 0.618132 19.9131 0.713641 19.572C1.27811 17.5566 2.33501 16.1622 4.07724 15.3307Z" fill="currentColor"/>
</svg>
