<svg width="18" height="18" viewBox="0 0 18 18" fill="none" xmlns="http://www.w3.org/2000/svg">
<path d="M3.99996 17.3334H0.666626V14H3.99996V17.3334ZM10.6666 17.3334H7.33329V14H10.6666V17.3334ZM17.3333 17.3334H14V14H17.3333V17.3334ZM7.33329 14H3.99996V10.6667H7.33329V14ZM14 14H10.6666V10.6667H14V14ZM3.99996 10.6667H0.666626V7.33335H3.99996V10.6667ZM10.6666 10.6667H7.33329V7.33335H10.6666V10.6667ZM17.3333 10.6667H14V7.33335H17.3333V10.6667ZM7.33329 7.33335H3.99996V4.00002H7.33329V7.33335ZM14 7.33335H10.6666V4.00002H14V7.33335ZM3.99996 4.00002H0.666626V0.666687H3.99996V4.00002ZM10.6666 4.00002H7.33329V0.666687H10.6666V4.00002ZM17.3333 4.00002H14V0.666687H17.3333V4.00002Z" fill="currentColor"/>
</svg>
