<svg width="10" height="15" viewBox="0 0 10 15" fill="none" xmlns="http://www.w3.org/2000/svg">
<path d="M4.448 14.92V13.128C3.328 13.0213 2.48533 12.6853 1.92 12.12C1.35467 11.544 1.008 10.8507 0.88 10.04H2.384C2.50133 10.5307 2.768 10.952 3.184 11.304C3.6 11.6453 4.24533 11.816 5.12 11.816C6.016 11.816 6.69333 11.6453 7.152 11.304C7.62133 10.9627 7.856 10.5413 7.856 10.04C7.856 9.624 7.76 9.29333 7.568 9.048C7.376 8.792 7.056 8.57867 6.608 8.408C6.17067 8.22667 5.57333 8.05067 4.816 7.88C3.984 7.69867 3.30133 7.48533 2.768 7.24C2.23467 6.99467 1.84 6.664 1.584 6.248C1.328 5.832 1.2 5.28267 1.2 4.6C1.2 3.85333 1.48267 3.208 2.048 2.664C2.624 2.12 3.424 1.79467 4.448 1.688V0.2H5.792V1.688C6.76267 1.80533 7.49867 2.136 8 2.68C8.512 3.21333 8.832 3.85333 8.96 4.6H7.456C7.34933 4.152 7.12 3.77333 6.768 3.464C6.42667 3.144 5.87733 2.984 5.12 2.984C4.352 2.984 3.75467 3.144 3.328 3.464C2.912 3.77333 2.704 4.152 2.704 4.6C2.704 5.18667 2.92267 5.61867 3.36 5.896C3.79733 6.16267 4.496 6.40267 5.456 6.616C6.14933 6.76533 6.74133 6.936 7.232 7.128C7.73333 7.32 8.13867 7.54933 8.448 7.816C8.768 8.072 8.99733 8.38133 9.136 8.744C9.28533 9.10667 9.36 9.53867 9.36 10.04C9.36 10.8507 9.04533 11.544 8.416 12.12C7.79733 12.6853 6.92267 13.0213 5.792 13.128V14.92H4.448Z" fill="white"/>
</svg>
