<svg xmlns="http://www.w3.org/2000/svg" xmlns:xlink="http://www.w3.org/1999/xlink"><symbol id="bell-icon" viewBox="0 0 12 14"><g fill="none">
<path d="M4.02803 11.6687H7.97203C7.89322 12.1347 7.65194 12.5577 7.29096 12.8627C6.92999 13.1678 6.47264 13.3352 6.00003 13.3352C5.52742 13.3352 5.07007 13.1678 4.7091 12.8627C4.34812 12.5577 4.10683 12.1347 4.02803 11.6687ZM6.00003 0.335327C7.32611 0.335327 8.59788 0.862111 9.53556 1.79979C10.4732 2.73748 11 4.00924 11 5.33533V8.00199L11.9454 10.1087C11.9883 10.205 12.0066 10.3106 11.9984 10.4158C11.9902 10.5209 11.9559 10.6224 11.8985 10.711C11.8412 10.7995 11.7626 10.8723 11.67 10.9228C11.5773 10.9733 11.4735 10.9998 11.368 11H0.634696C0.52905 11 0.425087 10.9735 0.332274 10.9231C0.23946 10.8726 0.160744 10.7997 0.103295 10.7111C0.0458448 10.6224 0.0114861 10.5208 0.00334723 10.4155C-0.00479164 10.3101 0.0135479 10.2044 0.0566958 10.108L1.00003 8.00133V5.32666L1.00336 5.15999C1.04897 3.86523 1.59536 2.63871 2.52743 1.73885C3.4595 0.838995 4.70446 0.335388 6.00003 0.335327Z" fill="currentColor"/>
</g></symbol><symbol id="burger-icon" viewBox="0 0 14 10"><g fill="none">
<path d="M0.999913 8.33337H8.99991C9.16983 8.33356 9.33327 8.39863 9.45683 8.51527C9.58038 8.63192 9.65474 8.79134 9.66469 8.96097C9.67465 9.1306 9.61946 9.29763 9.5104 9.42793C9.40134 9.55823 9.24664 9.64197 9.07791 9.66204L8.99991 9.66671H0.999913C0.829993 9.66652 0.666558 9.60145 0.543 9.48481C0.419443 9.36816 0.345089 9.20874 0.335131 9.03911C0.325173 8.86948 0.380362 8.70245 0.489422 8.57215C0.598483 8.44185 0.753182 8.35811 0.921912 8.33804L0.999913 8.33337ZM0.999913 4.33337H12.9999C13.1698 4.33356 13.3333 4.39863 13.4568 4.51527C13.5804 4.63192 13.6547 4.79134 13.6647 4.96097C13.6747 5.1306 13.6195 5.29763 13.5104 5.42793C13.4013 5.55823 13.2466 5.64197 13.0779 5.66204L12.9999 5.66671H0.999913C0.829993 5.66652 0.666558 5.60145 0.543 5.48481C0.419443 5.36816 0.345089 5.20874 0.335131 5.03911C0.325173 4.86948 0.380362 4.70245 0.489422 4.57215C0.598483 4.44185 0.753182 4.35811 0.921912 4.33804L0.999913 4.33337ZM0.999913 0.333374H10.9999C11.1698 0.333562 11.3333 0.398627 11.4568 0.515273C11.5804 0.631919 11.6547 0.791343 11.6647 0.960971C11.6747 1.1306 11.6195 1.29763 11.5104 1.42793C11.4013 1.55823 11.2466 1.64197 11.0779 1.66204L10.9999 1.66671H0.999913C0.829993 1.66652 0.666558 1.60145 0.543 1.48481C0.419443 1.36816 0.345089 1.20874 0.335131 1.03911C0.325173 0.869483 0.380362 0.702455 0.489422 0.572152C0.598483 0.44185 0.753182 0.35811 0.921912 0.338041L0.999913 0.333374Z" fill="currentColor"/>
</g></symbol><symbol id="candle-icon" viewBox="0 0 12 14"><g fill="none">
<path d="M3.33651 2.33521H5.33652V8.3352H3.33651V10.3352H2.00317V8.3352H0.00317383V2.33521H2.00317V0.335205H3.33651V2.33521ZM10.0032 5.66853H12.0032V11.6685H10.0032V13.6685H8.66985V11.6685H6.66985V5.66853H8.66985V3.66854H10.0032V5.66853Z" fill="currentColor"/>
</g></symbol><symbol id="chart-2-icon" viewBox="0 0 13 14"><g fill="none">
<path d="M9.33333 1.66671C9.15652 1.66671 8.98695 1.59647 8.86193 1.47145C8.7369 1.34642 8.66667 1.17685 8.66667 1.00004C8.66667 0.82323 8.7369 0.65366 8.86193 0.528636C8.98695 0.403612 9.15652 0.333374 9.33333 0.333374H12C12.1768 0.333374 12.3464 0.403612 12.4714 0.528636C12.5964 0.65366 12.6667 0.82323 12.6667 1.00004V3.66671C12.6667 3.84352 12.5964 4.01309 12.4714 4.13811C12.3464 4.26314 12.1768 4.33337 12 4.33337C11.8232 4.33337 11.6536 4.26314 11.5286 4.13811C11.4036 4.01309 11.3333 3.84352 11.3333 3.66671V2.60937L7.47133 6.47137C7.34631 6.59635 7.17678 6.66656 7 6.66656C6.82322 6.66656 6.65369 6.59635 6.52867 6.47137L4.66667 4.60937L1.138 8.13804C1.01227 8.25948 0.843864 8.32667 0.669066 8.32516C0.494268 8.32364 0.32706 8.25352 0.203454 8.12992C0.0798489 8.00631 0.00973628 7.83911 0.00821733 7.66431C0.00669839 7.48951 0.0738946 7.32111 0.195333 7.19537L4.19533 3.19537C4.32035 3.07039 4.48989 3.00018 4.66667 3.00018C4.84344 3.00018 5.01298 3.07039 5.138 3.19537L7 5.05737L10.3907 1.66671H9.33333ZM1.33333 11V13C1.33333 13.1769 1.2631 13.3464 1.13807 13.4714C1.01305 13.5965 0.843478 13.6667 0.666667 13.6667C0.489856 13.6667 0.320286 13.5965 0.195262 13.4714C0.0702379 13.3464 0 13.1769 0 13V11C0 10.8232 0.0702379 10.6537 0.195262 10.5286C0.320286 10.4036 0.489856 10.3334 0.666667 10.3334C0.843478 10.3334 1.01305 10.4036 1.13807 10.5286C1.2631 10.6537 1.33333 10.8232 1.33333 11ZM4.66667 8.33337C4.66667 8.15656 4.59643 7.98699 4.4714 7.86197C4.34638 7.73695 4.17681 7.66671 4 7.66671C3.82319 7.66671 3.65362 7.73695 3.5286 7.86197C3.40357 7.98699 3.33333 8.15656 3.33333 8.33337V13C3.33333 13.1769 3.40357 13.3464 3.5286 13.4714C3.65362 13.5965 3.82319 13.6667 4 13.6667C4.17681 13.6667 4.34638 13.5965 4.4714 13.4714C4.59643 13.3464 4.66667 13.1769 4.66667 13V8.33337ZM7.33333 9.00004C7.51014 9.00004 7.67971 9.07028 7.80474 9.1953C7.92976 9.32033 8 9.4899 8 9.66671V13C8 13.1769 7.92976 13.3464 7.80474 13.4714C7.67971 13.5965 7.51014 13.6667 7.33333 13.6667C7.15652 13.6667 6.98695 13.5965 6.86193 13.4714C6.73691 13.3464 6.66667 13.1769 6.66667 13V9.66671C6.66667 9.4899 6.73691 9.32033 6.86193 9.1953C6.98695 9.07028 7.15652 9.00004 7.33333 9.00004ZM11.3333 6.33337C11.3333 6.15656 11.2631 5.98699 11.1381 5.86197C11.013 5.73695 10.8435 5.66671 10.6667 5.66671C10.4899 5.66671 10.3203 5.73695 10.1953 5.86197C10.0702 5.98699 10 6.15656 10 6.33337V13C10 13.1769 10.0702 13.3464 10.1953 13.4714C10.3203 13.5965 10.4899 13.6667 10.6667 13.6667C10.8435 13.6667 11.013 13.5965 11.1381 13.4714C11.2631 13.3464 11.3333 13.1769 11.3333 13V6.33337Z" fill="currentColor"/>
</g></symbol><symbol id="charts-icon" viewBox="0 0 18 18"><g fill="none">
<path d="M2 1C2 0.734784 1.89464 0.48043 1.70711 0.292893C1.51957 0.105357 1.26522 0 1 0C0.734784 0 0.48043 0.105357 0.292893 0.292893C0.105357 0.48043 0 0.734784 0 1V15C0 15.663 0.263392 16.2989 0.732233 16.7678C1.20107 17.2366 1.83696 17.5 2.5 17.5H16.5C16.7652 17.5 17.0196 17.3946 17.2071 17.2071C17.3946 17.0196 17.5 16.7652 17.5 16.5C17.5 16.2348 17.3946 15.9804 17.2071 15.7929C17.0196 15.6054 16.7652 15.5 16.5 15.5H2.5C2.36739 15.5 2.24021 15.4473 2.14645 15.3536C2.05268 15.2598 2 15.1326 2 15V1ZM10.75 3.75C10.75 3.48478 10.8554 3.23043 11.0429 3.04289C11.2304 2.85536 11.4848 2.75 11.75 2.75H16.252C16.5172 2.75 16.7716 2.85536 16.9591 3.04289C17.1466 3.23043 17.252 3.48478 17.252 3.75L17.25 8.25C17.25 8.51522 17.1446 8.76957 16.9571 8.95711C16.7696 9.14464 16.5152 9.25 16.25 9.25C15.9848 9.25 15.7304 9.14464 15.5429 8.95711C15.3554 8.76957 15.25 8.51522 15.25 8.25V6.164L10.707 10.707C10.5195 10.8945 10.2652 10.9998 10 10.9998C9.73484 10.9998 9.48053 10.8945 9.293 10.707L7.5 8.914L4.957 11.457C4.7684 11.6392 4.5158 11.74 4.2536 11.7377C3.9914 11.7354 3.74059 11.6302 3.55518 11.4448C3.36977 11.2594 3.2646 11.0086 3.26233 10.7464C3.26005 10.4842 3.36084 10.2316 3.543 10.043L6.793 6.793C6.98053 6.60553 7.23484 6.50021 7.5 6.50021C7.76516 6.50021 8.01947 6.60553 8.207 6.793L10 8.586L13.836 4.75H11.75C11.4848 4.75 11.2304 4.64464 11.0429 4.45711C10.8554 4.26957 10.75 4.01522 10.75 3.75Z" fill="currentColor"/>
</g></symbol><symbol id="cross-icon" viewBox="0 0 10 10"><g fill="none">
<path d="M4.99972 4.05767L8.29959 0.757812L9.24239 1.70062L5.94252 5.00047L9.24239 8.30027L8.29959 9.24306L4.99972 5.94327L1.69989 9.24306L0.75708 8.30027L4.05692 5.00047L0.75708 1.70062L1.69989 0.757812L4.99972 4.05767Z" fill="currentColor"/>
</g></symbol><symbol id="curve-icon" viewBox="0 0 14 12"><g fill="none">
<path d="M9.6667 2C9.6667 1.59085 9.79218 1.19155 10.0262 0.855959C10.2603 0.520364 10.5916 0.26462 10.9755 0.123226C11.3595 -0.0181681 11.7775 -0.0384098 12.1733 0.0652313C12.5691 0.168872 12.9236 0.39141 13.189 0.702825C13.4543 1.01424 13.6178 1.39955 13.6573 1.80678C13.6969 2.21401 13.6106 2.62356 13.41 2.9802C13.2095 3.33684 12.9044 3.62339 12.536 3.80122C12.1675 3.97905 11.7533 4.03958 11.3494 3.97466L9.9907 6.21333C10.2772 6.63533 10.3917 7.15086 10.3106 7.65445C10.2296 8.15805 9.95923 8.61166 9.5548 8.92249C9.15038 9.23332 8.64248 9.37789 8.13499 9.32661C7.6275 9.27534 7.15878 9.03211 6.8247 8.64666L4.3307 9.89333C4.35641 10.3789 4.20433 10.8572 3.90291 11.2388C3.6015 11.6204 3.17139 11.8791 2.69305 11.9665C2.21471 12.0539 1.72091 11.9641 1.30401 11.7138C0.887118 11.4635 0.575692 11.0699 0.427992 10.6066C0.280291 10.1433 0.306433 9.64205 0.501528 9.19664C0.696624 8.75123 1.04731 8.39216 1.48798 8.18659C1.92865 7.98101 2.42912 7.94303 2.89577 8.07973C3.36242 8.21644 3.76328 8.51847 4.02337 8.92933L6.37737 7.75266C6.29826 7.38424 6.32484 7.00097 6.45404 6.64699C6.58325 6.29302 6.80983 5.98275 7.10768 5.75193C7.40553 5.5211 7.76252 5.37912 8.13754 5.34233C8.51256 5.30555 8.89034 5.37545 9.22737 5.544L10.426 3.56866C10.1891 3.3816 9.9977 3.14325 9.86618 2.87155C9.73466 2.59985 9.66646 2.30186 9.6667 2Z" fill="currentColor"/>
</g></symbol><symbol id="dollar-icon" viewBox="0 0 10 15"><g fill="none">
<path d="M4.448 14.92V13.128C3.328 13.0213 2.48533 12.6853 1.92 12.12C1.35467 11.544 1.008 10.8507 0.88 10.04H2.384C2.50133 10.5307 2.768 10.952 3.184 11.304C3.6 11.6453 4.24533 11.816 5.12 11.816C6.016 11.816 6.69333 11.6453 7.152 11.304C7.62133 10.9627 7.856 10.5413 7.856 10.04C7.856 9.624 7.76 9.29333 7.568 9.048C7.376 8.792 7.056 8.57867 6.608 8.408C6.17067 8.22667 5.57333 8.05067 4.816 7.88C3.984 7.69867 3.30133 7.48533 2.768 7.24C2.23467 6.99467 1.84 6.664 1.584 6.248C1.328 5.832 1.2 5.28267 1.2 4.6C1.2 3.85333 1.48267 3.208 2.048 2.664C2.624 2.12 3.424 1.79467 4.448 1.688V0.2H5.792V1.688C6.76267 1.80533 7.49867 2.136 8 2.68C8.512 3.21333 8.832 3.85333 8.96 4.6H7.456C7.34933 4.152 7.12 3.77333 6.768 3.464C6.42667 3.144 5.87733 2.984 5.12 2.984C4.352 2.984 3.75467 3.144 3.328 3.464C2.912 3.77333 2.704 4.152 2.704 4.6C2.704 5.18667 2.92267 5.61867 3.36 5.896C3.79733 6.16267 4.496 6.40267 5.456 6.616C6.14933 6.76533 6.74133 6.936 7.232 7.128C7.73333 7.32 8.13867 7.54933 8.448 7.816C8.768 8.072 8.99733 8.38133 9.136 8.744C9.28533 9.10667 9.36 9.53867 9.36 10.04C9.36 10.8507 9.04533 11.544 8.416 12.12C7.79733 12.6853 6.92267 13.0213 5.792 13.128V14.92H4.448Z" fill="currentColor"/>
</g></symbol><symbol id="faq-icon" viewBox="0 0 20 20"><g fill="none">
<path d="M10 0C15.523 0 20 4.477 20 10C20 15.523 15.523 20 10 20C8.38224 20.0021 6.78829 19.6102 5.35601 18.858L1.06601 19.975C0.922665 20.0123 0.772053 20.0116 0.6291 19.9728C0.486147 19.934 0.355816 19.8585 0.251024 19.7538C0.146232 19.6491 0.0706184 19.5188 0.0316757 19.3759C-0.00726696 19.233 -0.00818607 19.0824 0.0290095 18.939L1.14501 14.65C0.390809 13.2162 -0.00221966 11.6201 9.42907e-06 10C9.42907e-06 4.477 4.47701 0 10 0ZM10 13.5C9.73479 13.5 9.48044 13.6054 9.2929 13.7929C9.10537 13.9804 9.00001 14.2348 9.00001 14.5C9.00001 14.7652 9.10537 15.0196 9.2929 15.2071C9.48044 15.3946 9.73479 15.5 10 15.5C10.2652 15.5 10.5196 15.3946 10.7071 15.2071C10.8947 15.0196 11 14.7652 11 14.5C11 14.2348 10.8947 13.9804 10.7071 13.7929C10.5196 13.6054 10.2652 13.5 10 13.5ZM10 4.75C9.27066 4.75 8.57119 5.03973 8.05547 5.55546C7.53974 6.07118 7.25001 6.77065 7.25001 7.5C7.25007 7.69002 7.32225 7.87294 7.45198 8.01179C7.58171 8.15064 7.75931 8.23507 7.94889 8.24803C8.13847 8.26098 8.3259 8.20148 8.47331 8.08157C8.62072 7.96165 8.71711 7.79025 8.74301 7.602L8.75701 7.372C8.79078 7.05406 8.9451 6.76115 9.18823 6.55351C9.43136 6.34587 9.74481 6.23929 10.0641 6.25568C10.3834 6.27208 10.6843 6.4102 10.9049 6.64165C11.1255 6.8731 11.249 7.18028 11.25 7.5C11.25 8.039 11.115 8.305 10.605 8.832L10.301 9.142C9.54701 9.926 9.25001 10.489 9.25001 11.5C9.25001 11.6989 9.32903 11.8897 9.46968 12.0303C9.61033 12.171 9.8011 12.25 10 12.25C10.1989 12.25 10.3897 12.171 10.5303 12.0303C10.671 11.8897 10.75 11.6989 10.75 11.5C10.75 10.961 10.885 10.695 11.395 10.168L11.699 9.858C12.453 9.074 12.75 8.511 12.75 7.5C12.75 6.77065 12.4603 6.07118 11.9446 5.55546C11.4288 5.03973 10.7294 4.75 10 4.75Z" fill="currentColor"/>
</g></symbol><symbol id="gear-icon" viewBox="0 0 20 20"><g fill="none">
<path d="M10.0122 0.25C10.7462 0.258 11.4772 0.343 12.1942 0.503C12.3468 0.53705 12.4848 0.617903 12.5892 0.734261C12.6935 0.850618 12.7589 0.996668 12.7762 1.152L12.9462 2.679C12.9702 2.89428 13.0444 3.10093 13.1629 3.28231C13.2813 3.46368 13.4406 3.61473 13.6281 3.72329C13.8155 3.83185 14.0259 3.89489 14.2421 3.90735C14.4584 3.9198 14.6745 3.88132 14.8732 3.795L16.2742 3.18C16.4165 3.11735 16.5747 3.10044 16.7269 3.13161C16.8792 3.16278 17.018 3.24049 17.1242 3.354C18.1362 4.43509 18.8897 5.73161 19.3282 7.146C19.3742 7.29464 19.3728 7.45389 19.3243 7.60171C19.2757 7.74953 19.1824 7.87858 19.0572 7.971L17.8152 8.887C17.6406 9.0153 17.4985 9.1829 17.4007 9.37625C17.3028 9.56961 17.2518 9.78328 17.2518 10C17.2518 10.2167 17.3028 10.4304 17.4007 10.6237C17.4985 10.8171 17.6406 10.9847 17.8152 11.113L19.0582 12.028C19.1838 12.1204 19.2774 12.2495 19.3262 12.3976C19.3749 12.5456 19.3763 12.7051 19.3302 12.854C18.8916 14.2683 18.138 15.5648 17.1262 16.646C17.0203 16.7593 16.8819 16.8369 16.73 16.8682C16.5782 16.8996 16.4203 16.8831 16.2782 16.821L14.8712 16.204C14.6728 16.117 14.4567 16.0779 14.2404 16.09C14.0241 16.102 13.8136 16.1648 13.6261 16.2733C13.4386 16.3817 13.2792 16.5328 13.1609 16.7143C13.0426 16.8958 12.9687 17.1026 12.9452 17.318L12.7762 18.844C12.7592 18.9976 12.6951 19.1423 12.5927 19.2581C12.4903 19.3739 12.3546 19.4553 12.2042 19.491C10.7558 19.8356 9.24667 19.8356 7.79822 19.491C7.64782 19.4553 7.51214 19.3739 7.40975 19.2581C7.30736 19.1423 7.24326 18.9976 7.22622 18.844L7.05822 17.32C7.03372 17.1052 6.95916 16.8991 6.84053 16.7183C6.72191 16.5376 6.56252 16.3872 6.37519 16.2792C6.18786 16.1712 5.97782 16.1087 5.76194 16.0967C5.54606 16.0847 5.33037 16.1235 5.13222 16.21L3.72622 16.826C3.58399 16.8883 3.42594 16.9049 3.27387 16.8736C3.1218 16.8422 2.98321 16.7645 2.87722 16.651C1.86492 15.5686 1.11135 14.2707 0.673216 12.855C0.627112 12.7061 0.628532 12.5466 0.677278 12.3986C0.726025 12.2505 0.819676 12.1214 0.945215 12.029L2.18822 11.113C2.36306 10.9848 2.50525 10.8173 2.60327 10.6239C2.70128 10.4305 2.75235 10.2168 2.75235 10C2.75235 9.78321 2.70128 9.56947 2.60327 9.3761C2.50525 9.18273 2.36306 9.01517 2.18822 8.887L0.945215 7.973C0.819853 7.88052 0.726401 7.75129 0.677836 7.60327C0.629272 7.45525 0.628007 7.29577 0.674216 7.147C1.11274 5.73262 1.8663 4.43611 2.87822 3.355C2.9844 3.24149 3.12323 3.16378 3.2755 3.13261C3.42777 3.10144 3.58597 3.11835 3.72822 3.181L5.12822 3.796C5.32723 3.88227 5.54371 3.92066 5.76026 3.90809C5.97681 3.89551 6.18739 3.83232 6.37509 3.7236C6.56278 3.61487 6.72236 3.46363 6.841 3.28204C6.95964 3.10045 7.03404 2.89356 7.05822 2.678L7.22822 1.152C7.24537 0.996355 7.31082 0.849984 7.41537 0.733414C7.51993 0.616845 7.65835 0.535924 7.81122 0.502C8.52822 0.343 9.26122 0.259 10.0122 0.25ZM10.0002 7C9.20457 7 8.4415 7.31607 7.87889 7.87868C7.31629 8.44129 7.00022 9.20435 7.00022 10C7.00022 10.7956 7.31629 11.5587 7.87889 12.1213C8.4415 12.6839 9.20457 13 10.0002 13C10.7959 13 11.5589 12.6839 12.1215 12.1213C12.6841 11.5587 13.0002 10.7956 13.0002 10C13.0002 9.20435 12.6841 8.44129 12.1215 7.87868C11.5589 7.31607 10.7959 7 10.0002 7Z" fill="currentColor"/>
</g></symbol><symbol id="logo-icon" viewBox="0 0 32 32"><g fill="none">
<path fill-rule="evenodd" clip-rule="evenodd" d="M32 16C32 24.8367 24.8367 32 16 32C7.16345 32 0 24.8367 0 16C0 7.16345 7.16345 0 16 0C24.8367 0 32 7.16345 32 16ZM26.9716 16C26.9716 22.0593 22.0596 26.9713 16.0003 26.9713C15.5802 26.9713 15.1655 26.9478 14.7577 26.902C20.2717 26.3225 24.5691 21.6587 24.5691 15.9909C24.5691 10.3518 20.3144 5.70623 14.8402 5.08919C15.2214 5.04913 15.6085 5.02858 16.0003 5.02858C22.0596 5.02858 26.9716 9.94067 26.9716 16ZM12.4571 23.728C16.0731 23.0893 18.8235 19.8723 18.8235 16C18.8235 12.1276 16.0731 8.91062 12.4571 8.27206C12.8947 8.19633 13.3447 8.15686 13.8039 8.15686C18.1355 8.15686 21.6471 11.6684 21.6471 16C21.6471 20.3316 18.1355 23.8431 13.8039 23.8431C13.3447 23.8431 12.8947 23.8036 12.4571 23.728Z" fill="currentColor"/>
</g></symbol><symbol id="markets-icon" viewBox="0 0 20 20"><g fill="none">
<path d="M6.90386 14.5H13.0959C12.4759 17.773 11.2339 20 9.99986 20C8.80286 20 7.59986 17.906 6.96186 14.796L6.90386 14.502V14.5ZM1.06586 14.501H5.36986C5.73486 16.583 6.35286 18.355 7.16286 19.594C4.62039 18.8394 2.48031 17.1085 1.21086 14.78L1.06586 14.501ZM14.6289 14.501H18.9339C18.3181 15.7204 17.4596 16.8012 16.4112 17.677C15.3628 18.5528 14.1464 19.2051 12.8369 19.594C13.5919 18.436 14.1809 16.816 14.5519 14.913L14.6289 14.501ZM14.9309 8.00095H19.8009C20.1381 9.66263 20.0497 11.3826 19.5439 13.001H14.8399C14.9935 11.5584 15.037 10.1062 14.9699 8.65695L14.9299 7.99995L14.9309 8.00095ZM0.197862 7.99995H5.06786C4.96358 9.47191 4.97495 10.9498 5.10186 12.42L5.15886 13H0.455862C-0.0506828 11.3818 -0.139439 9.66169 0.197862 7.99995ZM6.57486 7.99995H13.4249C13.5391 9.4733 13.5267 10.9537 13.3879 12.425L13.3259 13H6.67386C6.49903 11.5026 6.45487 9.99293 6.54186 8.48795L6.57486 7.99995ZM12.9449 0.575953L12.8359 0.405953C14.3223 0.847205 15.6862 1.62718 16.8203 2.68458C17.9544 3.74197 18.8278 5.04798 19.3719 6.49995H14.7799C14.4639 4.08395 13.8239 2.00795 12.9429 0.576953L12.9449 0.575953ZM7.04186 0.442953L7.16386 0.405953C6.28286 1.75695 5.62786 3.73595 5.27986 6.05995L5.21886 6.49995H0.627862C1.16445 5.06817 2.02134 3.77805 3.13302 2.72825C4.2447 1.67844 5.58173 0.896755 7.04186 0.442953ZM9.99986 0.00195312C11.3189 0.00195312 12.6459 2.54395 13.2139 6.18495L13.2609 6.49995H6.73886C7.27986 2.69095 8.64286 0.00195312 9.99986 0.00195312Z" fill="currentColor"/>
</g></symbol><symbol id="message-icon" viewBox="0 0 20 16"><g fill="none">
<path d="M20 4.608V12.75C20.0001 13.5801 19.6824 14.3788 19.1123 14.9822C18.5422 15.5856 17.7628 15.948 16.934 15.995L16.75 16H3.25C2.41986 16.0001 1.62117 15.6824 1.01777 15.1123C0.414367 14.5422 0.0519987 13.7628 0.00500011 12.934L0 12.75V4.608L9.652 9.664C9.75938 9.72024 9.87879 9.74962 10 9.74962C10.1212 9.74962 10.2406 9.72024 10.348 9.664L20 4.608ZM3.25 2.36051e-08H16.75C17.5556 -9.70147e-05 18.3325 0.298996 18.93 0.839267C19.5276 1.37954 19.9032 2.12248 19.984 2.924L10 8.154L0.016 2.924C0.0935234 2.15431 0.44305 1.43752 1.00175 0.902463C1.56045 0.367409 2.29168 0.049187 3.064 0.00500014L3.25 2.36051e-08Z" fill="currentColor"/>
</g></symbol><symbol id="pencil-gear-icon" viewBox="0 0 15 15"><g fill="none">
<path d="M8.2932 2.3333L11.6672 5.70664L11.0259 6.34797C10.3984 6.29583 9.76718 6.38103 9.17603 6.59765C8.58488 6.81427 8.04803 7.1571 7.60285 7.60228C7.15766 8.04747 6.81483 8.58432 6.59821 9.17547C6.38159 9.76662 6.29639 10.3979 6.34853 11.0253L5.04186 12.332C4.85711 12.5167 4.6273 12.65 4.3752 12.7186L0.965197 13.6486C0.880259 13.6716 0.790753 13.6718 0.705721 13.6492C0.620689 13.6265 0.543144 13.5818 0.480919 13.5196C0.418694 13.4574 0.373994 13.3798 0.351334 13.2948C0.328674 13.2097 0.328857 13.1202 0.351864 13.0353L1.2812 9.62464C1.34982 9.37253 1.48311 9.14272 1.66786 8.95797L8.2932 2.3333ZM13.0205 0.979969C13.4677 1.42739 13.7189 2.03407 13.7189 2.66664C13.7189 3.2992 13.4677 3.90588 13.0205 4.3533L12.3739 4.99997L8.99986 1.62664L9.64653 0.979969C9.86804 0.758376 10.131 0.582594 10.4205 0.462664C10.71 0.342734 11.0202 0.281006 11.3335 0.281006C11.6469 0.281006 11.9571 0.342734 12.2466 0.462664C12.536 0.582594 12.799 0.758376 13.0205 0.979969ZM8.51986 8.31597C8.56971 8.48837 8.58424 8.66907 8.56259 8.84722C8.54093 9.02538 8.48353 9.19732 8.39383 9.35276C8.30412 9.5082 8.18396 9.64393 8.04055 9.75182C7.89713 9.85971 7.73341 9.93754 7.5592 9.98064L7.16986 10.0766C7.10746 10.4759 7.10881 10.8825 7.17386 11.2813L7.53386 11.368C7.70958 11.4103 7.87486 11.4879 8.01966 11.5961C8.16446 11.7043 8.28575 11.8408 8.37616 11.9973C8.46657 12.1538 8.52422 12.327 8.5456 12.5065C8.56698 12.686 8.55165 12.8679 8.50053 13.0413L8.37586 13.4626C8.6692 13.72 9.00253 13.9286 9.3652 14.0766L9.69453 13.7313C9.81908 13.6003 9.96897 13.496 10.1351 13.4247C10.3012 13.3534 10.4801 13.3167 10.6609 13.3167C10.8416 13.3167 11.0205 13.3534 11.1866 13.4247C11.3528 13.496 11.5026 13.6003 11.6272 13.7313L11.9592 14.0813C12.3202 13.9345 12.6543 13.7288 12.9479 13.4726L12.8159 13.0153C12.7661 12.8429 12.7517 12.6622 12.7735 12.4841C12.7952 12.306 12.8527 12.1341 12.9424 11.9787C13.0322 11.8234 13.1524 11.6877 13.2958 11.5799C13.4393 11.4721 13.603 11.3943 13.7772 11.3513L14.1659 11.2553C14.2283 10.8558 14.227 10.449 14.1619 10.05L13.8019 9.9633C13.6261 9.92097 13.4609 9.84336 13.3161 9.73518C13.1713 9.627 13.05 9.49051 12.9596 9.334C12.8692 9.1775 12.8115 9.00424 12.7901 8.82476C12.7687 8.64529 12.7841 8.46334 12.8352 8.28997L12.9599 7.86997C12.6666 7.61133 12.3322 7.40337 11.9705 7.25463L11.6419 7.60064C11.5173 7.73175 11.3674 7.83616 11.2012 7.9075C11.035 7.97885 10.856 8.01564 10.6752 8.01564C10.4943 8.01564 10.3154 7.97885 10.1492 7.9075C9.98302 7.83616 9.83309 7.73175 9.70853 7.60064L9.37653 7.25064C9.01386 7.3973 8.68053 7.60397 8.38786 7.85863L8.51986 8.31597ZM10.6672 11.6666C10.1339 11.6666 9.70053 11.2186 9.70053 10.6666C9.70053 10.114 10.1339 9.66664 10.6672 9.66664C11.2005 9.66664 11.6339 10.114 11.6339 10.6666C11.6339 11.2186 11.2005 11.6666 10.6672 11.6666Z" fill="currentColor"/>
</g></symbol><symbol id="pencil-icon" viewBox="0 0 14 14"><g fill="none">
<path d="M8.29333 2.33333L11.6667 5.70667L5.04133 12.3333C4.85676 12.518 4.62719 12.6513 4.37533 12.72L0.964661 13.65C0.879654 13.6731 0.790063 13.6733 0.704955 13.6506C0.619847 13.6279 0.542243 13.5831 0.479995 13.5208C0.417747 13.4585 0.373065 13.3808 0.350471 13.2957C0.327877 13.2106 0.328172 13.121 0.351327 13.036L1.28133 9.62533C1.35006 9.37347 1.48334 9.1439 1.66799 8.95934L8.29199 2.33333H8.29333ZM13.02 0.980001C13.4673 1.42734 13.7186 2.03405 13.7186 2.66667C13.7186 3.29929 13.4673 3.906 13.02 4.35333L12.3733 5L8.99999 1.62667L9.64666 0.980001C10.094 0.532676 10.7007 0.281372 11.3333 0.281372C11.9659 0.281372 12.5727 0.532676 13.02 0.980001Z" fill="currentColor"/>
</g></symbol><symbol id="screenshot-icon" viewBox="0 0 14 13"><g fill="none">
<path d="M8.28325 0.668701C8.54461 0.66868 8.80145 0.736951 9.0283 0.86675C9.25516 0.996548 9.44416 1.18337 9.57658 1.4087L10.1193 2.33337H11.4999C11.7844 2.33337 12.0662 2.38941 12.3291 2.4983C12.5919 2.60718 12.8308 2.76678 13.032 2.96797C13.2332 3.16916 13.3928 3.40802 13.5017 3.67089C13.6105 3.93376 13.6666 4.2155 13.6666 4.50003V10.8334C13.6666 11.1179 13.6105 11.3996 13.5017 11.6625C13.3928 11.9254 13.2332 12.1642 13.032 12.3654C12.8308 12.5666 12.5919 12.7262 12.3291 12.8351C12.0662 12.944 11.7844 13 11.4999 13H2.49992C1.92528 13 1.37418 12.7718 0.967854 12.3654C0.561525 11.9591 0.333252 11.408 0.333252 10.8334V4.50003C0.333252 3.9254 0.561525 3.3743 0.967854 2.96797C1.37418 2.56164 1.92528 2.33337 2.49992 2.33337H3.88658L4.46992 1.38403C4.60404 1.16551 4.79194 0.985022 5.01568 0.859791C5.23942 0.734559 5.49152 0.668769 5.74792 0.668701H8.28325ZM6.99992 4.33337C6.20427 4.33337 5.44121 4.64944 4.8786 5.21205C4.31599 5.77466 3.99992 6.53772 3.99992 7.33337C3.99992 8.12902 4.31599 8.89208 4.8786 9.45469C5.44121 10.0173 6.20427 10.3334 6.99992 10.3334C7.79557 10.3334 8.55863 10.0173 9.12124 9.45469C9.68385 8.89208 9.99992 8.12902 9.99992 7.33337C9.99992 6.53772 9.68385 5.77466 9.12124 5.21205C8.55863 4.64944 7.79557 4.33337 6.99992 4.33337ZM6.99992 5.33337C7.26256 5.33337 7.52263 5.3851 7.76529 5.48561C8.00794 5.58612 8.22842 5.73344 8.41413 5.91915C8.59985 6.10487 8.74717 6.32535 8.84768 6.568C8.94819 6.81065 8.99992 7.07072 8.99992 7.33337C8.99992 7.59601 8.94819 7.85608 8.84768 8.09873C8.74717 8.34139 8.59985 8.56186 8.41413 8.74758C8.22842 8.9333 8.00794 9.08062 7.76529 9.18113C7.52263 9.28164 7.26256 9.33337 6.99992 9.33337C6.46949 9.33337 5.96078 9.12265 5.5857 8.74758C5.21063 8.37251 4.99992 7.8638 4.99992 7.33337C4.99992 6.80293 5.21063 6.29423 5.5857 5.91915C5.96078 5.54408 6.46949 5.33337 6.99992 5.33337Z" fill="currentColor"/>
</g></symbol><symbol id="search-icon" viewBox="0 0 13 13"><g fill="none">
<path d="M5.66673 0.666687C6.59871 0.66665 7.51216 0.927096 8.30398 1.41864C9.09581 1.91017 9.73449 2.61324 10.148 3.44849C10.5614 4.28374 10.7332 5.21793 10.6439 6.14563C10.5547 7.07333 10.2079 7.95761 9.64273 8.69869L12.8047 11.862C12.9243 11.982 12.9937 12.143 12.9989 12.3123C13.0041 12.4816 12.9446 12.6465 12.8326 12.7735C12.7205 12.9006 12.5644 12.9802 12.3957 12.9963C12.2271 13.0123 12.0587 12.9636 11.9247 12.86L11.8621 12.8047L8.69873 9.64269C8.0674 10.1241 7.3305 10.4482 6.54902 10.5883C5.76754 10.7283 4.96395 10.6803 4.20473 10.4481C3.44551 10.2159 2.7525 9.80626 2.18303 9.25305C1.61357 8.69985 1.18402 8.01899 0.929947 7.26681C0.67587 6.51464 0.604563 5.71277 0.721925 4.92756C0.839288 4.14235 1.14195 3.39638 1.60486 2.75137C2.06777 2.10636 2.67762 1.58086 3.38396 1.21834C4.09029 0.855831 4.8728 0.666729 5.66673 0.666687ZM5.66673 2.00002C4.69427 2.00002 3.76164 2.38633 3.074 3.07396C2.38637 3.7616 2.00006 4.69423 2.00006 5.66669C2.00006 6.63915 2.38637 7.57178 3.074 8.25941C3.76164 8.94705 4.69427 9.33335 5.66673 9.33335C6.63919 9.33335 7.57182 8.94705 8.25945 8.25941C8.94709 7.57178 9.3334 6.63915 9.3334 5.66669C9.3334 4.69423 8.94709 3.7616 8.25945 3.07396C7.57182 2.38633 6.63919 2.00002 5.66673 2.00002Z" fill="currentColor"/>
</g></symbol><symbol id="t-letter-icon" viewBox="0 0 10 12"><g fill="none">
<path d="M0.166748 1.33329C0.166748 1.15648 0.236986 0.986913 0.36201 0.861888C0.487035 0.736864 0.656604 0.666626 0.833415 0.666626H9.16675C9.34356 0.666626 9.51313 0.736864 9.63815 0.861888C9.76318 0.986913 9.83342 1.15648 9.83342 1.33329V2.66663C9.83342 2.84344 9.76318 3.01301 9.63815 3.13803C9.51313 3.26305 9.34356 3.33329 9.16675 3.33329C8.98994 3.33329 8.82037 3.26305 8.69534 3.13803C8.57032 3.01301 8.50008 2.84344 8.50008 2.66663V1.99996H5.66675V9.99996H6.33342C6.51023 9.99996 6.6798 10.0702 6.80482 10.1952C6.92984 10.3202 7.00008 10.4898 7.00008 10.6666C7.00008 10.8434 6.92984 11.013 6.80482 11.138C6.6798 11.2631 6.51023 11.3333 6.33342 11.3333H3.66675C3.48994 11.3333 3.32037 11.2631 3.19534 11.138C3.07032 11.013 3.00008 10.8434 3.00008 10.6666C3.00008 10.4898 3.07032 10.3202 3.19534 10.1952C3.32037 10.0702 3.48994 9.99996 3.66675 9.99996H4.33342V1.99996H1.50008V2.66663C1.50008 2.84344 1.42984 3.01301 1.30482 3.13803C1.17979 3.26305 1.01023 3.33329 0.833415 3.33329C0.656604 3.33329 0.487035 3.26305 0.36201 3.13803C0.236986 3.01301 0.166748 2.84344 0.166748 2.66663V1.33329Z" fill="currentColor"/>
</g></symbol><symbol id="triangle-down-icon" viewBox="0 0 8 5"><g fill="none">
<path d="M4 4.66669L0 0.666687H8L4 4.66669Z" fill="currentColor"/>
</g></symbol><symbol id="users-icon" viewBox="0 0 20 19"><g fill="none">
<path d="M12.754 7.5C13.72 7.5 14.504 8.284 14.504 9.25V13.999C14.504 15.1927 14.0298 16.3376 13.1857 17.1817C12.3416 18.0258 11.1967 18.5 10.003 18.5C8.80926 18.5 7.66441 18.0258 6.82031 17.1817C5.97621 16.3376 5.502 15.1927 5.502 13.999V9.25C5.502 8.284 6.285 7.5 7.252 7.5H12.754ZM5.131 7.5C4.781 7.922 4.556 8.45 4.511 9.03L4.501 9.25V13.999C4.501 14.846 4.693 15.648 5.035 16.364C4.44228 16.5226 3.82103 16.5427 3.21929 16.4228C2.61756 16.3029 2.05145 16.0463 1.56475 15.6727C1.07805 15.2991 0.683789 14.8185 0.412463 14.2682C0.141138 13.7179 1.22998e-05 13.1126 0 12.499V9.25C1.64046e-05 8.81081 0.165171 8.38768 0.46268 8.06461C0.760189 7.74154 1.1683 7.54214 1.606 7.506L1.75 7.5H5.131ZM14.875 7.5H18.25C19.216 7.5 20 8.284 20 9.25V12.5C20.0001 13.1132 19.8593 13.7182 19.5884 14.2682C19.3175 14.8183 18.9237 15.2987 18.4376 15.6724C17.9514 16.046 17.3858 16.3029 16.7846 16.4232C16.1833 16.5435 15.5625 16.5239 14.97 16.366C15.27 15.738 15.454 15.046 15.495 14.314L15.504 13.999V9.25C15.504 8.585 15.269 7.975 14.875 7.5ZM10 0.5C10.7956 0.5 11.5587 0.816071 12.1213 1.37868C12.6839 1.94129 13 2.70435 13 3.5C13 4.29565 12.6839 5.05871 12.1213 5.62132C11.5587 6.18393 10.7956 6.5 10 6.5C9.20435 6.5 8.44129 6.18393 7.87868 5.62132C7.31607 5.05871 7 4.29565 7 3.5C7 2.70435 7.31607 1.94129 7.87868 1.37868C8.44129 0.816071 9.20435 0.5 10 0.5ZM16.5 1.5C17.163 1.5 17.7989 1.76339 18.2678 2.23223C18.7366 2.70107 19 3.33696 19 4C19 4.66304 18.7366 5.29893 18.2678 5.76777C17.7989 6.23661 17.163 6.5 16.5 6.5C15.837 6.5 15.2011 6.23661 14.7322 5.76777C14.2634 5.29893 14 4.66304 14 4C14 3.33696 14.2634 2.70107 14.7322 2.23223C15.2011 1.76339 15.837 1.5 16.5 1.5ZM3.5 1.5C4.16304 1.5 4.79893 1.76339 5.26777 2.23223C5.73661 2.70107 6 3.33696 6 4C6 4.66304 5.73661 5.29893 5.26777 5.76777C4.79893 6.23661 4.16304 6.5 3.5 6.5C2.83696 6.5 2.20107 6.23661 1.73223 5.76777C1.26339 5.29893 1 4.66304 1 4C1 3.33696 1.26339 2.70107 1.73223 2.23223C2.20107 1.76339 2.83696 1.5 3.5 1.5Z" fill="currentColor"/>
</g></symbol><symbol id="view-icon" viewBox="0 0 20 12"><g fill="none">
<path d="M10.0001 4.005C11.061 4.005 12.0784 4.42643 12.8285 5.17657C13.5787 5.92672 14.0001 6.94413 14.0001 8.005C14.0001 9.06587 13.5787 10.0833 12.8285 10.8334C12.0784 11.5836 11.061 12.005 10.0001 12.005C8.93922 12.005 7.9218 11.5836 7.17166 10.8334C6.42151 10.0833 6.00008 9.06587 6.00008 8.005C6.00008 6.94413 6.42151 5.92672 7.17166 5.17657C7.9218 4.42643 8.93922 4.005 10.0001 4.005ZM10.0001 0.5C14.6131 0.5 18.5961 3.65 19.7011 8.064C19.7495 8.25695 19.7193 8.46122 19.6171 8.63187C19.5148 8.80253 19.349 8.9256 19.1561 8.974C18.9631 9.0224 18.7589 8.99217 18.5882 8.88997C18.4176 8.78776 18.2945 8.62194 18.2461 8.429C17.7838 6.59181 16.7213 4.9616 15.2271 3.79704C13.7328 2.63248 11.8925 2.00028 9.99802 2.00074C8.10357 2.0012 6.26353 2.6343 4.76986 3.79958C3.27619 4.96486 2.21444 6.59558 1.75308 8.433C1.70127 8.62193 1.5776 8.78309 1.4085 8.88201C1.23941 8.98094 1.03832 9.00977 0.848239 8.96235C0.65816 8.91493 0.49418 8.79501 0.391369 8.62825C0.288557 8.46149 0.255076 8.26113 0.298084 8.07C0.840358 5.90746 2.08954 3.98806 3.84729 2.61657C5.60504 1.24509 7.77059 0.500135 10.0001 0.5Z" fill="currentColor"/>
</g></symbol><symbol id="wallet-icon" viewBox="0 0 19 19"><g fill="none">
<path d="M16.25 3.545V3.25C16.25 2.52065 15.9603 1.82118 15.4445 1.30546C14.9288 0.789731 14.2293 0.5 13.5 0.5H2.25C1.94116 0.500051 1.63564 0.563683 1.35246 0.686932C1.06928 0.810181 0.814507 0.990408 0.604002 1.21639C0.393496 1.44238 0.231768 1.70928 0.128887 2.00047C0.026006 2.29167 -0.0158245 2.60093 0.00600004 2.909C0.00217303 2.93919 0.000169358 2.96957 0 3V15.25C0 16.112 0.34241 16.9386 0.951903 17.5481C1.5614 18.1576 2.38805 18.5 3.25 18.5H15.75C16.4793 18.5 17.1788 18.2103 17.6945 17.6945C18.2103 17.1788 18.5 16.4793 18.5 15.75V6.25C18.5002 5.60725 18.2752 4.98473 17.8642 4.49058C17.4532 3.99643 16.882 3.66186 16.25 3.545ZM2.25 2H13.5C14.19 2 14.75 2.56 14.75 3.25V3.5H2.25C2.05109 3.5 1.86032 3.42098 1.71967 3.28033C1.57902 3.13968 1.5 2.94891 1.5 2.75C1.5 2.55109 1.57902 2.36032 1.71967 2.21967C1.86032 2.07902 2.05109 2 2.25 2ZM13.25 10.5H15.25C15.4489 10.5 15.6397 10.579 15.7803 10.7197C15.921 10.8603 16 11.0511 16 11.25C16 11.4489 15.921 11.6397 15.7803 11.7803C15.6397 11.921 15.4489 12 15.25 12H13.25C13.0511 12 12.8603 11.921 12.7197 11.7803C12.579 11.6397 12.5 11.4489 12.5 11.25C12.5 11.0511 12.579 10.8603 12.7197 10.7197C12.8603 10.579 13.0511 10.5 13.25 10.5Z" fill="currentColor"/>
</g></symbol><symbol id="zoom-minus-icon" viewBox="0 0 13 13"><g fill="none">
<path d="M10.6668 5.66667C10.6667 4.53861 10.2852 3.44372 9.58423 2.55989C8.88326 1.67606 7.90402 1.05524 6.80561 0.798301C5.7072 0.541362 4.55418 0.663405 3.53391 1.1446C2.51363 1.6258 1.68605 2.43787 1.18564 3.44886C0.685227 4.45985 0.541393 5.61035 0.777507 6.71342C1.01362 7.81649 1.61581 8.80731 2.48622 9.52488C3.35663 10.2424 4.44411 10.6446 5.57197 10.666C6.69982 10.6874 7.80177 10.3267 8.69875 9.64267L11.8621 12.8047L11.9248 12.86C12.0587 12.9636 12.2272 13.0123 12.3958 12.9963C12.5644 12.9802 12.7206 12.9006 12.8326 12.7735C12.9446 12.6465 13.0041 12.4816 12.9989 12.3123C12.9937 12.143 12.9243 11.982 12.8048 11.862L9.64275 8.69867C10.3085 7.82824 10.6684 6.76249 10.6668 5.66667ZM8.00009 5.00001C8.1769 5.00001 8.34647 5.07024 8.47149 5.19527C8.59652 5.32029 8.66675 5.48986 8.66675 5.66667C8.66675 5.84348 8.59652 6.01305 8.47149 6.13808C8.34647 6.2631 8.1769 6.33334 8.00009 6.33334H3.33342C3.15661 6.33334 2.98704 6.2631 2.86202 6.13808C2.73699 6.01305 2.66675 5.84348 2.66675 5.66667C2.66675 5.48986 2.73699 5.32029 2.86202 5.19527C2.98704 5.07024 3.15661 5.00001 3.33342 5.00001H8.00009Z" fill="currentColor"/>
</g></symbol><symbol id="zoom-plus-icon" viewBox="0 0 13 13"><g fill="none">
<path d="M10.6668 5.66667C10.6668 6.80667 10.2854 7.85801 9.64275 8.69867L12.8048 11.862C12.9243 11.982 12.9937 12.143 12.9989 12.3123C13.0041 12.4816 12.9446 12.6465 12.8326 12.7735C12.7206 12.9006 12.5644 12.9802 12.3958 12.9963C12.2272 13.0123 12.0587 12.9636 11.9248 12.86L11.8621 12.8047L8.69875 9.64267C7.80177 10.3267 6.69982 10.6874 5.57197 10.666C4.44411 10.6446 3.35663 10.2424 2.48622 9.52488C1.61581 8.80731 1.01362 7.81649 0.777507 6.71342C0.541393 5.61035 0.685227 4.45985 1.18564 3.44886C1.68605 2.43787 2.51363 1.6258 3.53391 1.1446C4.55418 0.663405 5.7072 0.541362 6.80561 0.798301C7.90402 1.05524 8.88326 1.67606 9.58423 2.55989C10.2852 3.44372 10.6667 4.53861 10.6668 5.66667ZM5.66675 2.66667C5.48994 2.66667 5.32037 2.73691 5.19535 2.86194C5.07033 2.98696 5.00009 3.15653 5.00009 3.33334V5.00001H3.33342C3.15661 5.00001 2.98704 5.07024 2.86202 5.19527C2.73699 5.32029 2.66675 5.48986 2.66675 5.66667C2.66675 5.84348 2.73699 6.01305 2.86202 6.13808C2.98704 6.2631 3.15661 6.33334 3.33342 6.33334H5.00009V8.00001C5.00009 8.17682 5.07033 8.34639 5.19535 8.47141C5.32037 8.59644 5.48994 8.66667 5.66675 8.66667C5.84356 8.66667 6.01313 8.59644 6.13816 8.47141C6.26318 8.34639 6.33342 8.17682 6.33342 8.00001V6.33334H8.00009C8.1769 6.33334 8.34647 6.2631 8.47149 6.13808C8.59652 6.01305 8.66675 5.84348 8.66675 5.66667C8.66675 5.48986 8.59652 5.32029 8.47149 5.19527C8.34647 5.07024 8.1769 5.00001 8.00009 5.00001H6.33342V3.33334C6.33342 3.15653 6.26318 2.98696 6.13816 2.86194C6.01313 2.73691 5.84356 2.66667 5.66675 2.66667Z" fill="currentColor"/>
</g></symbol></svg>