<svg width="63" height="66" viewBox="0 0 63 63" fill="none" xmlns="http://www.w3.org/2000/svg">
<path d="M42.6278 30.0169L41.7377 29.0084C41.3916 28.6162 41.1938 28.0839 41.1938 27.525V26.081C41.1938 23.7558 39.5248 21.8663 37.4726 21.8663H36.1993C35.7048 21.8663 35.235 21.6408 34.8889 21.2486L33.9864 20.2275C32.5277 18.5887 30.1664 18.5887 28.72 20.2401L27.8299 21.2486C27.4838 21.6408 27.014 21.8663 26.5195 21.8663H25.2462C23.194 21.8663 21.5251 23.7558 21.5251 26.081V27.5096C21.5251 28.0839 21.3273 28.6162 20.9811 29.0084L20.0786 30.0323C18.6322 31.6837 18.6446 34.3603 20.091 35.9977L20.9811 36.9922C21.3273 37.3984 21.5251 37.9307 21.5251 38.4923V39.9336C21.5251 42.2588 23.194 44.1511 25.2462 44.1511H26.5195C27.014 44.1511 27.4838 44.3738 27.8299 44.766L28.7324 45.7899C29.4618 46.6023 30.4137 47.0071 31.3656 47.0071C32.3175 47.0071 33.2694 46.6023 33.9988 45.7745L34.8889 44.766C35.235 44.3738 35.7048 44.1511 36.1993 44.1511H37.4726C39.5248 44.1511 41.1938 42.2588 41.1938 39.9336V38.4923C41.1938 37.9307 41.3916 37.3984 41.7377 37.0062L42.6154 36.0117C42.6278 35.9977 42.6402 35.9851 42.6525 35.9697C43.3448 35.1727 43.7281 34.1068 43.7157 32.9863C43.7157 31.8657 43.3325 30.8012 42.6278 30.0169Z" fill="url(#paint0_linear_562_2557)"/>
<g opacity="0.5" filter="url(#filter0_f_562_2557)">
<path d="M38.8194 31.0265L38.2301 30.3588C38.0009 30.0992 37.87 29.7468 37.87 29.3767V28.4206C37.87 26.8812 36.765 25.6302 35.4063 25.6302H34.5632C34.2358 25.6302 33.9248 25.4809 33.6956 25.2212L33.0981 24.5451C32.1323 23.4601 30.5689 23.4601 29.6113 24.5535L29.022 25.2212C28.7928 25.4809 28.4817 25.6302 28.1543 25.6302H27.3113C25.9526 25.6302 24.8476 26.8812 24.8476 28.4206V29.3665C24.8476 29.7468 24.7166 30.0992 24.4874 30.3588L23.8899 31.0367C22.9323 32.1301 22.9405 33.9023 23.8981 34.9864L24.4874 35.6448C24.7166 35.9138 24.8476 36.2662 24.8476 36.6381V37.5923C24.8476 39.1318 25.9526 40.3846 27.3113 40.3846H28.1543C28.4817 40.3846 28.7928 40.5321 29.022 40.7917L29.6195 41.4697C30.1024 42.0075 30.7326 42.2755 31.3629 42.2755C31.9931 42.2755 32.6234 42.0075 33.1063 41.4594L33.6956 40.7917C33.9248 40.5321 34.2358 40.3846 34.5632 40.3846H35.4063C36.765 40.3846 37.87 39.1318 37.87 37.5923V36.6381C37.87 36.2662 38.0009 35.9138 38.2301 35.6541L38.8113 34.9957C38.8194 34.9864 38.8276 34.9781 38.8358 34.9679C39.2942 34.4402 39.5479 33.7345 39.5397 32.9926C39.5397 32.2507 39.286 31.5459 38.8194 31.0265Z" fill="#EE69D9"/>
</g>
<g filter="url(#filter1_b_562_2557)">
<path d="M46.913 34.8792L46.0229 33.8707C45.6767 33.4785 45.4789 32.9462 45.4789 32.3874V30.9433C45.4789 28.6181 43.81 26.7286 41.7578 26.7286H40.4845C39.99 26.7286 39.5202 26.5031 39.174 26.1109L38.2716 25.0898C36.8128 23.451 34.4516 23.451 33.0052 25.1024L32.1151 26.1109C31.7689 26.5031 31.2992 26.7286 30.8047 26.7286H29.5313C27.4791 26.7286 25.8102 28.6181 25.8102 30.9433V32.3719C25.8102 32.9462 25.6124 33.4785 25.2663 33.8707L24.3638 34.8946C22.9174 36.546 22.9298 39.2227 24.3762 40.86L25.2663 41.8545C25.6124 42.2607 25.8102 42.793 25.8102 43.3547V44.7959C25.8102 47.1211 27.4791 49.0134 29.5313 49.0134H30.8047C31.2992 49.0134 31.7689 49.2361 32.1151 49.6283L33.0175 50.6522C33.7469 51.4646 34.6988 51.8694 35.6507 51.8694C36.6027 51.8694 37.5546 51.4646 38.2839 50.6368L39.174 49.6283C39.5202 49.2361 39.99 49.0134 40.4845 49.0134H41.7578C43.81 49.0134 45.4789 47.1211 45.4789 44.7959V43.3547C45.4789 42.793 45.6767 42.2607 46.0229 41.8685L46.9006 40.8741C46.913 40.86 46.9253 40.8474 46.9377 40.832C47.63 40.035 48.0132 38.9691 48.0009 37.8486C48.0009 36.728 47.6176 35.6635 46.913 34.8792Z" fill="#CB69EE" fill-opacity="0.13"/>
</g>
<g filter="url(#filter2_bd_562_2557)">
<mask id="path-4-inside-1_562_2557" fill="white">
<path fill-rule="evenodd" clip-rule="evenodd" d="M33.2284 42.3315C33.0306 42.5696 32.7586 42.6957 32.4619 42.6957C32.1776 42.6957 31.9056 42.5696 31.7078 42.3315C31.2875 41.8553 31.2875 41.0709 31.7078 40.5947L38.0621 33.3952C38.4825 32.9204 39.1624 32.9204 39.5827 33.3952C40.003 33.8714 40.003 34.6572 39.5827 35.1334L33.2284 42.3315ZM38.8281 42.6959C38.2224 42.6959 37.7402 42.1496 37.7402 41.4633C37.7402 40.7923 38.2224 40.2447 38.8281 40.2447C39.4215 40.2447 39.9037 40.7923 39.9037 41.4633C39.9037 42.1496 39.4215 42.6959 38.8281 42.6959ZM33.5502 34.2633C33.5502 33.591 33.068 33.0447 32.4746 33.0447C31.8812 33.0447 31.3867 33.591 31.3867 34.2633C31.3867 34.951 31.8812 35.4959 32.4746 35.4959C33.068 35.4959 33.5502 34.951 33.5502 34.2633Z"/>
</mask>
<path fill-rule="evenodd" clip-rule="evenodd" d="M33.2284 42.3315C33.0306 42.5696 32.7586 42.6957 32.4619 42.6957C32.1776 42.6957 31.9056 42.5696 31.7078 42.3315C31.2875 41.8553 31.2875 41.0709 31.7078 40.5947L38.0621 33.3952C38.4825 32.9204 39.1624 32.9204 39.5827 33.3952C40.003 33.8714 40.003 34.6572 39.5827 35.1334L33.2284 42.3315ZM38.8281 42.6959C38.2224 42.6959 37.7402 42.1496 37.7402 41.4633C37.7402 40.7923 38.2224 40.2447 38.8281 40.2447C39.4215 40.2447 39.9037 40.7923 39.9037 41.4633C39.9037 42.1496 39.4215 42.6959 38.8281 42.6959ZM33.5502 34.2633C33.5502 33.591 33.068 33.0447 32.4746 33.0447C31.8812 33.0447 31.3867 33.591 31.3867 34.2633C31.3867 34.951 31.8812 35.4959 32.4746 35.4959C33.068 35.4959 33.5502 34.951 33.5502 34.2633Z" fill="url(#paint1_linear_562_2557)"/>
<path d="M33.2284 42.3315L32.9284 42.0667L32.9207 42.0759L33.2284 42.3315ZM31.7078 42.3315L32.0156 42.0758L32.0077 42.0668L31.7078 42.3315ZM31.7078 40.5947L32.0077 40.8594L32.0077 40.8594L31.7078 40.5947ZM38.0621 33.3952L37.7626 33.1301L37.7622 33.1305L38.0621 33.3952ZM39.5827 33.3952L39.8826 33.1305L39.8822 33.1301L39.5827 33.3952ZM39.5827 35.1334L39.8826 35.3981L39.8826 35.3981L39.5827 35.1334ZM32.4619 43.0957C32.8789 43.0957 33.2632 42.9157 33.5361 42.5871L32.9207 42.0759C32.7981 42.2236 32.6384 42.2957 32.4619 42.2957V43.0957ZM31.4001 42.5871C31.6713 42.9135 32.0546 43.0957 32.4619 43.0957V42.2957C32.3006 42.2957 32.1399 42.2257 32.0155 42.0759L31.4001 42.5871ZM31.4079 40.33C30.8541 40.9574 30.8541 41.9687 31.4079 42.5962L32.0077 42.0668C31.7209 41.7418 31.7209 41.1844 32.0077 40.8594L31.4079 40.33ZM37.7622 33.1305L31.4079 40.33L32.0077 40.8594L38.362 33.6599L37.7622 33.1305ZM39.8822 33.1301C39.3027 32.4754 38.3421 32.4754 37.7626 33.1301L38.3616 33.6603C38.6228 33.3653 39.0221 33.3653 39.2832 33.6603L39.8822 33.1301ZM39.8826 35.3981C40.4364 34.7707 40.4364 33.7579 39.8826 33.1305L39.2828 33.6599C39.5697 33.9849 39.5697 34.5437 39.2828 34.8687L39.8826 35.3981ZM33.5283 42.5962L39.8826 35.3981L39.2828 34.8687L32.9285 42.0668L33.5283 42.5962ZM37.3402 41.4633C37.3402 42.3221 37.956 43.0959 38.8281 43.0959V42.2959C38.4888 42.2959 38.1402 41.9771 38.1402 41.4633H37.3402ZM38.8281 39.8447C37.9585 39.8447 37.3402 40.617 37.3402 41.4633H38.1402C38.1402 40.9677 38.4863 40.6447 38.8281 40.6447V39.8447ZM40.3037 41.4633C40.3037 40.6201 39.6882 39.8447 38.8281 39.8447V40.6447C39.1549 40.6447 39.5037 40.9645 39.5037 41.4633H40.3037ZM38.8281 43.0959C39.6907 43.0959 40.3037 42.319 40.3037 41.4633H39.5037C39.5037 41.9802 39.1524 42.2959 38.8281 42.2959V43.0959ZM32.4746 33.4447C32.8016 33.4447 33.1502 33.7635 33.1502 34.2633H33.9502C33.9502 33.4185 33.3344 32.6447 32.4746 32.6447V33.4447ZM31.7867 34.2633C31.7867 33.7697 32.1421 33.4447 32.4746 33.4447V32.6447C31.6204 32.6447 30.9867 33.4122 30.9867 34.2633H31.7867ZM32.4746 35.0959C32.1446 35.0959 31.7867 34.7751 31.7867 34.2633H30.9867C30.9867 35.127 31.6179 35.8959 32.4746 35.8959V35.0959ZM33.1502 34.2633C33.1502 34.7814 32.7991 35.0959 32.4746 35.0959V35.8959C33.3369 35.8959 33.9502 35.1207 33.9502 34.2633H33.1502Z" fill="url(#paint2_linear_562_2557)" mask="url(#path-4-inside-1_562_2557)"/>
</g>
<defs>
<filter id="filter0_f_562_2557" x="0.175781" y="0.732422" width="62.3633" height="64.543" filterUnits="userSpaceOnUse" color-interpolation-filters="sRGB">
<feFlood flood-opacity="0" result="BackgroundImageFix"/>
<feBlend mode="normal" in="SourceGraphic" in2="BackgroundImageFix" result="shape"/>
<feGaussianBlur stdDeviation="11.5" result="effect1_foregroundBlur_562_2557"/>
</filter>
<filter id="filter1_b_562_2557" x="-0.714844" y="-0.137695" width="72.7168" height="76.0068" filterUnits="userSpaceOnUse" color-interpolation-filters="sRGB">
<feFlood flood-opacity="0" result="BackgroundImageFix"/>
<feGaussianBlur in="BackgroundImageFix" stdDeviation="12"/>
<feComposite in2="SourceAlpha" operator="in" result="effect1_backgroundBlur_562_2557"/>
<feBlend mode="normal" in="SourceGraphic" in2="effect1_backgroundBlur_562_2557" result="shape"/>
</filter>
<filter id="filter2_bd_562_2557" x="16.3867" y="18.0391" width="38.5176" height="39.6572" filterUnits="userSpaceOnUse" color-interpolation-filters="sRGB">
<feFlood flood-opacity="0" result="BackgroundImageFix"/>
<feGaussianBlur in="BackgroundImageFix" stdDeviation="7.5"/>
<feComposite in2="SourceAlpha" operator="in" result="effect1_backgroundBlur_562_2557"/>
<feColorMatrix in="SourceAlpha" type="matrix" values="0 0 0 0 0 0 0 0 0 0 0 0 0 0 0 0 0 0 127 0" result="hardAlpha"/>
<feOffset dx="5" dy="5"/>
<feGaussianBlur stdDeviation="5"/>
<feColorMatrix type="matrix" values="0 0 0 0 1 0 0 0 0 0.580392 0 0 0 0 0.247059 0 0 0 0.5 0"/>
<feBlend mode="normal" in2="effect1_backgroundBlur_562_2557" result="effect2_dropShadow_562_2557"/>
<feBlend mode="normal" in="SourceGraphic" in2="effect2_dropShadow_562_2557" result="shape"/>
</filter>
<linearGradient id="paint0_linear_562_2557" x1="31.358" y1="19" x2="31.358" y2="47.0071" gradientUnits="userSpaceOnUse">
<stop stop-color="#CB69EE"/>
<stop offset="1" stop-color="#EE69D1"/>
</linearGradient>
<linearGradient id="paint1_linear_562_2557" x1="39.2999" y1="34.7829" x2="29.8105" y2="35.0557" gradientUnits="userSpaceOnUse">
<stop stop-color="white"/>
<stop offset="0.916667" stop-color="white"/>
<stop offset="1" stop-color="white" stop-opacity="0.2"/>
</linearGradient>
<linearGradient id="paint2_linear_562_2557" x1="32.7425" y1="34.1641" x2="39.0194" y2="41.0207" gradientUnits="userSpaceOnUse">
<stop stop-color="white" stop-opacity="0.25"/>
<stop offset="1" stop-color="white" stop-opacity="0"/>
</linearGradient>
</defs>
</svg>
