<svg width="1143" height="443" viewBox="0 0 1143 443" fill="none" xmlns="http://www.w3.org/2000/svg"><g clip-path="url(#clip0_4021_903)"><path d="M0 24C0 10.7452 10.7452 0 24 0H1119C1132.25 0 1143 10.7452 1143 24V419C1143 432.255 1132.25 443 1119 443H24C10.7452 443 0 432.255 0 419V24Z" fill="#302743"/><path d="M1179.62 -159.762C1172.01 -159.774 1164.68 -156.835 1159.19 -151.564C1153.69 -146.291 1150.45 -139.096 1150.15 -131.489C1150.26 -119.271 1148.05 -91.2426 1147.36 -84.2814C1141.32 -39.7582 1129.23 3.73569 1111.41 44.9937C1023.32 255.191 811.291 440.936 721.047 464.868C703.983 469.579 686.123 470.674 668.614 468.079C651.105 465.485 634.333 459.259 619.377 449.802C623.674 490.555 646.452 515.727 677.175 524.098C753.326 545.596 853.837 468.751 912.999 416.338C1026.47 315.879 1118.46 210.35 1173.3 70.0029C1210.1 -25.256 1209.25 -80.5137 1208.62 -132.578C1207.18 -147.415 1194.85 -159.523 1179.62 -159.762Z" fill="url(#paint0_linear_4021_903)"/><path d="M1250.36 -65.9129C1249.8 -66.0953 1263.45 -51.387 1268.21 -43.9201C1292.94 -6.59311 1302.52 60.1654 1296.31 104.349C1286.54 172.975 1224.88 237.008 1168.29 277.711C1093.91 328.64 1013.38 369.949 928.619 400.651L911.643 415.453C859.595 460.433 816.044 487.872 816.044 487.872C969.423 472.193 1158.55 372.25 1236.5 301.307C1392.05 162.429 1369.99 -5.42356 1250.36 -65.9129Z" fill="url(#paint1_linear_4021_903)"/></g><defs><linearGradient id="paint0_linear_4021_903" x1="574.965" y1="379.521" x2="1286.42" y2="15.9778" gradientUnits="userSpaceOnUse"><stop offset="0.1" stop-color="#4057FF"/><stop offset="0.5" stop-color="#AA5CFF"/><stop offset="1" stop-color="#FF3F68"/></linearGradient><linearGradient id="paint1_linear_4021_903" x1="759.309" y1="375.919" x2="1358.4" y2="69.7916" gradientUnits="userSpaceOnUse"><stop stop-color="#0081FF"/><stop offset="1" stop-color="#0073FF"/></linearGradient><clipPath id="clip0_4021_903"><path d="M0 24C0 10.7452 10.7452 0 24 0H1119C1132.25 0 1143 10.7452 1143 24V419C1143 432.255 1132.25 443 1119 443H24C10.7452 443 0 432.255 0 419V24Z" fill="white"/></clipPath></defs></svg>