<svg width="1440" height="655" viewBox="0 0 1440 655" fill="none" xmlns="http://www.w3.org/2000/svg">
<g clip-path="url(#clip0_4534_26021)">
<g filter="url(#filter0_f_4534_26021)">
<ellipse cx="744.973" cy="250.211" rx="414.5" ry="285" transform="rotate(16.722 744.973 250.211)" fill="white"/>
</g>
<mask id="mask0_4534_26021" style="mask-type:alpha" maskUnits="userSpaceOnUse" x="691" y="-83" width="765" height="726">
<path d="M922.08 537.266C741.936 402.803 631.927 227.721 726.759 100.671C821.59 -26.3786 1051.21 -161.525 1231.35 -27.0623C1411.5 107.4 1514.8 423.638 1419.97 550.688C1325.14 677.738 1102.22 671.728 922.08 537.266Z" fill="url(#paint0_linear_4534_26021)"/>
</mask>
<g mask="url(#mask0_4534_26021)">
<g filter="url(#filter1_f_4534_26021)">
<path d="M1051.27 123.437C886.012 288.694 707.123 393.407 628.203 314.487C549.284 235.568 502.847 37.4375 668.104 -127.82C833.362 -293.078 1128.68 -397.606 1207.6 -318.686C1286.52 -239.766 1216.53 -41.8212 1051.27 123.437Z" fill="url(#paint1_linear_4534_26021)"/>
</g>
<g filter="url(#filter2_f_4534_26021)">
<path d="M1086.27 263.958C987.253 92.4607 955.895 -85.6404 1069.95 -151.493C1184.01 -217.345 1406.19 -240.671 1505.2 -69.1744C1604.22 102.323 1586.13 389.391 1472.07 455.244C1358.01 521.096 1185.28 435.455 1086.27 263.958Z" fill="url(#paint2_linear_4534_26021)"/>
</g>
<g filter="url(#filter3_f_4534_26021)">
<path d="M1184.67 348.446C1300.87 188.094 1437.46 77.2308 1515.95 134.107C1594.44 190.983 1662.72 352.705 1546.52 513.058C1430.33 673.41 1194.88 798.649 1116.39 741.773C1037.91 684.897 1068.48 508.799 1184.67 348.446Z" fill="url(#paint3_linear_4534_26021)"/>
</g>
<g filter="url(#filter4_f_4534_26021)">
<ellipse cx="1229.76" cy="244.048" rx="197.627" ry="260.758" transform="rotate(-4.64158 1229.76 244.048)" fill="url(#paint4_linear_4534_26021)"/>
</g>
<g filter="url(#filter5_f_4534_26021)">
<path d="M1159.18 297.597C1206.93 489.781 1197.8 667.135 1091.19 693.626C984.57 720.117 797.458 672.959 749.706 480.775C701.953 288.592 773.054 24.0745 879.668 -2.4165C986.283 -28.9075 1111.42 105.413 1159.18 297.597Z" fill="url(#paint5_linear_4534_26021)"/>
</g>
<g filter="url(#filter6_f_4534_26021)">
<ellipse cx="978.985" cy="66.0833" rx="186.931" ry="258.574" transform="rotate(-12.2162 978.985 66.0833)" fill="url(#paint6_linear_4534_26021)"/>
</g>
<g style="mix-blend-mode:screen" opacity="0.9" filter="url(#filter7_f_4534_26021)">
<path d="M1318.49 300.11C1336.87 490.447 1195.47 742.616 1125.53 749.367C1055.6 756.117 1107.74 521.106 1089.37 330.769C1071 140.432 960.675 -33.0949 1030.61 -39.8451C1100.54 -46.5952 1300.12 109.773 1318.49 300.11Z" fill="url(#paint7_linear_4534_26021)"/>
</g>
<g filter="url(#filter8_f_4534_26021)">
<path d="M879.917 57.3831C879.917 -85.2869 1034.14 -262.424 1099.82 -262.424C1165.5 -262.424 1095.88 -91.632 1095.88 51.038C1095.88 193.708 1182.95 330.485 1117.27 330.485C1051.59 330.485 879.917 200.053 879.917 57.3831Z" fill="url(#paint8_linear_4534_26021)"/>
</g>
<g style="mix-blend-mode:soft-light">
<rect x="538.689" y="-386.758" width="1140.05" height="1101.92" fill="#4D4D4D"/>
</g>
</g>
</g>
<defs>
<filter id="filter0_f_4534_26021" x="39.54" y="-347.73" width="1410.87" height="1195.88" filterUnits="userSpaceOnUse" color-interpolation-filters="sRGB">
<feFlood flood-opacity="0" result="BackgroundImageFix"/>
<feBlend mode="normal" in="SourceGraphic" in2="BackgroundImageFix" result="shape"/>
<feGaussianBlur stdDeviation="150" result="effect1_foregroundBlur_4534_26021"/>
</filter>
<filter id="filter1_f_4534_26021" x="539.571" y="-362.526" width="717.474" height="720.828" filterUnits="userSpaceOnUse" color-interpolation-filters="sRGB">
<feFlood flood-opacity="0" result="BackgroundImageFix"/>
<feBlend mode="normal" in="SourceGraphic" in2="BackgroundImageFix" result="shape"/>
<feGaussianBlur stdDeviation="8.5" result="effect1_foregroundBlur_4534_26021"/>
</filter>
<filter id="filter2_f_4534_26021" x="930.222" y="-267.753" width="706.468" height="812.193" filterUnits="userSpaceOnUse" color-interpolation-filters="sRGB">
<feFlood flood-opacity="0" result="BackgroundImageFix"/>
<feBlend mode="normal" in="SourceGraphic" in2="BackgroundImageFix" result="shape"/>
<feGaussianBlur stdDeviation="33.5" result="effect1_foregroundBlur_4534_26021"/>
</filter>
<filter id="filter3_f_4534_26021" x="1055.87" y="102.008" width="569.776" height="670.708" filterUnits="userSpaceOnUse" color-interpolation-filters="sRGB">
<feFlood flood-opacity="0" result="BackgroundImageFix"/>
<feBlend mode="normal" in="SourceGraphic" in2="BackgroundImageFix" result="shape"/>
<feGaussianBlur stdDeviation="8.5" result="effect1_foregroundBlur_4534_26021"/>
</filter>
<filter id="filter4_f_4534_26021" x="1028.63" y="-19.3555" width="402.245" height="526.806" filterUnits="userSpaceOnUse" color-interpolation-filters="sRGB">
<feFlood flood-opacity="0" result="BackgroundImageFix"/>
<feBlend mode="normal" in="SourceGraphic" in2="BackgroundImageFix" result="shape"/>
<feGaussianBlur stdDeviation="1.5" result="effect1_foregroundBlur_4534_26021"/>
</filter>
<filter id="filter5_f_4534_26021" x="717.557" y="-22.7494" width="486.207" height="740.153" filterUnits="userSpaceOnUse" color-interpolation-filters="sRGB">
<feFlood flood-opacity="0" result="BackgroundImageFix"/>
<feBlend mode="normal" in="SourceGraphic" in2="BackgroundImageFix" result="shape"/>
<feGaussianBlur stdDeviation="8.5" result="effect1_foregroundBlur_4534_26021"/>
</filter>
<filter id="filter6_f_4534_26021" x="787.22" y="-190.75" width="383.531" height="513.666" filterUnits="userSpaceOnUse" color-interpolation-filters="sRGB">
<feFlood flood-opacity="0" result="BackgroundImageFix"/>
<feBlend mode="normal" in="SourceGraphic" in2="BackgroundImageFix" result="shape"/>
<feGaussianBlur stdDeviation="0.5" result="effect1_foregroundBlur_4534_26021"/>
</filter>
<filter id="filter7_f_4534_26021" x="940.636" y="-107.056" width="446.489" height="923.564" filterUnits="userSpaceOnUse" color-interpolation-filters="sRGB">
<feFlood flood-opacity="0" result="BackgroundImageFix"/>
<feBlend mode="normal" in="SourceGraphic" in2="BackgroundImageFix" result="shape"/>
<feGaussianBlur stdDeviation="33.5" result="effect1_foregroundBlur_4534_26021"/>
</filter>
<filter id="filter8_f_4534_26021" x="794.917" y="-347.424" width="431.868" height="762.91" filterUnits="userSpaceOnUse" color-interpolation-filters="sRGB">
<feFlood flood-opacity="0" result="BackgroundImageFix"/>
<feBlend mode="normal" in="SourceGraphic" in2="BackgroundImageFix" result="shape"/>
<feGaussianBlur stdDeviation="42.5" result="effect1_foregroundBlur_4534_26021"/>
</filter>
<linearGradient id="paint0_linear_4534_26021" x1="890.884" y1="190.165" x2="1392.43" y2="578.406" gradientUnits="userSpaceOnUse">
<stop offset="0.0136249" stop-color="#F8965F"/>
<stop offset="0.328125" stop-color="#F59172"/>
<stop offset="0.739583" stop-color="#F9B38B"/>
<stop offset="1" stop-color="#FEE0E1"/>
</linearGradient>
<linearGradient id="paint1_linear_4534_26021" x1="1047.08" y1="-404.064" x2="536.573" y2="296.797" gradientUnits="userSpaceOnUse">
<stop stop-color="#3D61EF"/>
<stop offset="0.123756" stop-color="#2D91FF"/>
<stop offset="0.44805" stop-color="#5CACFD"/>
<stop offset="1" stop-color="#466FE3"/>
</linearGradient>
<linearGradient id="paint2_linear_4534_26021" x1="1170.5" y1="-21.2993" x2="1440.82" y2="467.682" gradientUnits="userSpaceOnUse">
<stop offset="0.0136249" stop-color="#F8965F"/>
<stop offset="0.328125" stop-color="#F59172"/>
<stop offset="0.739583" stop-color="#F9B38B"/>
<stop offset="1" stop-color="#FEE0E1"/>
</linearGradient>
<linearGradient id="paint3_linear_4534_26021" x1="1433.39" y1="275.605" x2="1232.82" y2="741.204" gradientUnits="userSpaceOnUse">
<stop offset="0.0136249" stop-color="#F39788"/>
<stop offset="0.327168" stop-color="#FAADA7"/>
<stop offset="0.664917" stop-color="#FA9D90"/>
<stop offset="1" stop-color="#FE8078"/>
</linearGradient>
<linearGradient id="paint4_linear_4534_26021" x1="1337.04" y1="24.8596" x2="1192.68" y2="199.454" gradientUnits="userSpaceOnUse">
<stop stop-color="#FF5C00"/>
<stop offset="0.296875" stop-color="#FF745F"/>
<stop offset="1" stop-color="#F9AFA3" stop-opacity="0"/>
</linearGradient>
<linearGradient id="paint5_linear_4534_26021" x1="938.514" y1="277.923" x2="1035.56" y2="753.071" gradientUnits="userSpaceOnUse">
<stop stop-color="#3980ED"/>
<stop offset="0.241579" stop-color="#59A7FB"/>
<stop offset="0.44805" stop-color="#6BAAFB"/>
<stop offset="0.739583" stop-color="#9BB4FB"/>
<stop offset="1" stop-color="white"/>
</linearGradient>
<linearGradient id="paint6_linear_4534_26021" x1="1089.94" y1="132.298" x2="904.336" y2="245.855" gradientUnits="userSpaceOnUse">
<stop stop-color="#73A3E9" stop-opacity="0"/>
<stop offset="0.396185" stop-color="#A0C2F7" stop-opacity="0.63"/>
<stop offset="1" stop-color="#CDC9FE"/>
</linearGradient>
<linearGradient id="paint7_linear_4534_26021" x1="903.415" y1="157.079" x2="1132.48" y2="-106.959" gradientUnits="userSpaceOnUse">
<stop stop-color="#82A9F7"/>
<stop offset="1" stop-color="#FF4C42"/>
</linearGradient>
<linearGradient id="paint8_linear_4534_26021" x1="954.724" y1="132.044" x2="1174.3" y2="110.44" gradientUnits="userSpaceOnUse">
<stop stop-color="#B4CCFF"/>
<stop offset="0.380208" stop-color="#BFD9FF"/>
<stop offset="0.640625" stop-color="#DCD3F0"/>
<stop offset="1" stop-color="#FF9683"/>
</linearGradient>
<clipPath id="clip0_4534_26021">
<rect width="1440" height="655" fill="white"/>
</clipPath>
</defs>
</svg>
