<svg width="24" height="24" viewBox="0 0 24 24" fill="none" xmlns="http://www.w3.org/2000/svg">
<g clip-path="url(#clip0_10568_377)">
<rect width="24" height="24" rx="4" fill="white"/>
<rect width="24" height="24" fill="#D9D9D9"/>
<rect width="24" height="24" fill="url(#paint0_radial_10568_377)"/>
<path d="M5.98339 19.6097H5.91956V20.3577H5.55664V18.6387H5.91956V19.291H5.97847L6.46399 18.6387H6.90796L6.28753 19.4357L6.90796 20.3577H6.46399L5.98339 19.6097Z" fill="white"/>
<path d="M7.55872 18.6411V19.7888L8.24545 18.6411H8.2527H8.60358V20.3578H8.2527V19.2052L7.5661 20.3578H7.55872H7.21289V18.6411H7.55872Z" fill="white"/>
<path d="M9.338 19.3326H10.01V18.6411H10.3753V20.3577H10.01V19.6539H9.338V20.3577H8.97266V18.6411H9.338V19.3326Z" fill="white"/>
<path d="M11.5424 18.624C12.1163 18.624 12.3542 19.0409 12.3542 19.4945C12.3542 19.9533 12.1163 20.3774 11.5424 20.3774C10.9661 20.3774 10.7305 19.9533 10.7305 19.4945C10.7305 19.0409 10.9661 18.624 11.5424 18.624ZM11.5424 18.9426C11.1768 18.9426 11.0983 19.2247 11.0983 19.4945C11.0983 19.7691 11.1768 20.0537 11.5424 20.0537C11.9077 20.0537 11.9863 19.7691 11.9863 19.4945C11.9863 19.2247 11.9077 18.9426 11.5424 18.9426Z" fill="white"/>
<path d="M13.5411 18.6411V19.7889L14.2279 18.6411H14.2351H14.5859V20.3578H14.2351V19.2052L13.5483 20.3578H13.5411H13.1953V18.6411H13.5411Z" fill="white"/>
<path d="M15.3418 18.6411H16.6392V18.9648H16.1733V20.3578H15.8077V18.9648H15.3418V18.6411Z" fill="white"/>
<path d="M18.3083 19.8673C18.3083 20.1541 18.063 20.3577 17.7466 20.3577H16.957V18.6411H17.6829C18.0239 18.6411 18.225 18.8422 18.225 19.1142C18.225 19.227 18.1809 19.3521 18.0655 19.4551C18.2493 19.5362 18.3083 19.725 18.3083 19.8673ZM17.3271 19.3326H17.668C17.7958 19.3326 17.8595 19.2443 17.8595 19.1437C17.8595 19.0432 17.7958 18.9647 17.668 18.9647H17.3271V19.3326ZM17.3271 19.644V20.034H17.722C17.8567 20.034 17.9426 19.9653 17.9426 19.8477C17.9401 19.725 17.8641 19.644 17.7268 19.644H17.3271Z" fill="white"/>
<path d="M4.25797 15.0038V15.5489H3.5968V17.3001H3.02544V15.5489H2.36426V15.0038H4.25797Z" fill="white"/>
<path d="M7.63568 16.4436L8.49697 15.0035H9.08814V17.3H8.53702V15.8563L7.67601 17.3H7.08496V15.0035H7.63568V16.4436Z" fill="white"/>
<path d="M10.2598 15.813H10.3281L10.9932 15.0038H11.7284L10.801 16.0707L11.804 17.3001H11.0501L10.3166 16.336H10.2598V17.3001H9.68848V15.0038H10.2598V15.813Z" fill="white"/>
<path d="M12.9607 15.0038C12.2732 15.0038 11.8213 15.4727 11.8213 16.1519C11.8213 16.8311 12.283 17.3001 12.9607 17.3001C13.6383 17.3001 14.0925 16.8259 14.0925 16.1478C14.0925 15.4697 13.6482 15.0038 12.9607 15.0038ZM12.9607 16.764C12.5905 16.764 12.3831 16.5084 12.3831 16.1518C12.3831 15.7953 12.5943 15.5395 12.9607 15.5395C13.3275 15.5395 13.5307 15.7926 13.5307 16.1477C13.5306 16.5027 13.331 16.764 12.9607 16.764Z" fill="white"/>
<path d="M5.74033 15.0038H4.76367V17.3001H5.3349V16.6793H5.7339C6.23555 16.6793 6.62634 16.3647 6.62634 15.845C6.62634 15.3313 6.24006 15.0038 5.74033 15.0038ZM5.75359 16.1344H5.3349V15.5489H5.74374C5.94002 15.5489 6.05498 15.6434 6.05498 15.845C6.05498 16.0385 5.94317 16.1344 5.75359 16.1344Z" fill="white"/>
<path d="M20.6156 15.0038H19.6387V17.3001H20.2099V16.6793H20.6089C21.1106 16.6793 21.5013 16.3647 21.5013 15.845C21.5013 15.3313 21.1153 15.0038 20.6156 15.0038ZM20.6286 16.1344H20.2099V15.5489H20.6188C20.815 15.5489 20.93 15.6434 20.93 15.845C20.93 16.0385 20.8182 16.1344 20.6286 16.1344Z" fill="white"/>
<path d="M18.0671 15.0038C17.3797 15.0038 16.9277 15.4727 16.9277 16.1519C16.9277 16.8311 17.3894 17.3001 18.0671 17.3001C18.7449 17.3001 19.1989 16.8259 19.1989 16.1478C19.1989 15.4697 18.7547 15.0038 18.0671 15.0038ZM18.0671 16.764C17.6967 16.764 17.4895 16.5084 17.4895 16.1518C17.4895 15.7953 17.7007 15.5395 18.0671 15.5395C18.4339 15.5395 18.637 15.7926 18.637 16.1477C18.637 16.5027 18.4376 16.764 18.0671 16.764Z" fill="white"/>
<path d="M15.3445 15.5473C15.3325 15.7057 15.3191 15.8658 15.3019 16.0253C15.2837 16.1926 15.2606 16.3581 15.2292 16.5184C15.1388 16.9815 14.896 17.2752 14.4361 17.2987C14.3892 17.3009 14.3436 17.2998 14.2969 17.2979V16.7486C14.5517 16.7553 14.6241 16.6591 14.6713 16.4194C14.7019 16.2626 14.7289 16.0546 14.7512 15.839C14.78 15.5614 14.8007 15.2826 14.8165 15.0035H16.5245V17.2941H15.9544V15.5473H15.3445Z" fill="white"/>
<path d="M15.7726 9.83215H11.6387L15.7726 13.9659H19.9064L15.7726 9.83215Z" fill="white"/>
<path d="M9.57226 3.63171H5.43848L9.57226 7.76527L7.50523 9.83223H11.639L13.7059 7.76527L9.57226 3.63171Z" fill="white"/>
</g>
<defs>
<radialGradient id="paint0_radial_10568_377" cx="0" cy="0" r="1" gradientUnits="userSpaceOnUse" gradientTransform="translate(8.2153e-07 24) rotate(-45) scale(33.9411 19.4921)">
<stop offset="0.12874" stop-color="#0091F9"/>
<stop offset="1" stop-color="#0303B2"/>
</radialGradient>
<clipPath id="clip0_10568_377">
<rect width="24" height="24" rx="4" fill="white"/>
</clipPath>
</defs>
</svg>
