<svg width="24" height="24" viewBox="0 0 24 24" fill="none" xmlns="http://www.w3.org/2000/svg">
<rect width="24" height="24" rx="7.33333" fill="white"/>
<path d="M13.9877 9.18819L11.9899 11.1791L9.9921 9.18819C8.88805 8.08793 8.88805 6.2891 9.9921 5.18884C11.0961 4.08858 12.8837 4.08858 13.9877 5.18884C15.0918 6.2891 15.0918 8.07047 13.9877 9.18819Z" fill="#5FAF2D"/>
<path d="M9.9921 14.8119L11.9899 12.8035L13.9877 14.8119C15.0918 15.9121 15.0918 17.711 13.9877 18.8112C12.8837 19.9115 11.0961 19.9115 9.9921 18.8112C8.88805 17.6935 8.88805 15.9121 9.9921 14.8119Z" fill="#005A28"/>
<path d="M14.8123 13.9909L12.8145 12L14.8123 9.99158C15.9163 8.89132 17.7038 8.89132 18.8079 9.99158C19.9119 11.0918 19.9119 12.8907 18.8079 13.9909C17.7038 15.0912 15.9163 15.0912 14.8123 13.9909Z" fill="#1EAF37"/>
<path d="M9.18692 9.99158L11.1847 12L9.18692 13.9909C8.08287 15.0912 6.29537 15.0912 5.19132 13.9909C4.08727 12.8907 4.08727 11.0918 5.19132 9.99158C6.29537 8.89132 8.08287 8.89132 9.18692 9.99158Z" fill="#AAE641"/>
</svg>
