<svg width="24" height="24" viewBox="0 0 24 24" fill="none" xmlns="http://www.w3.org/2000/svg">
<rect width="24" height="24" rx="4" fill="#991E66"/>
<path d="M12.8036 10.8022C12.33 10.4441 11.7431 10.2574 11.1435 10.2741C9.67097 10.2741 8.47705 11.5183 8.47705 13.0389C8.47705 14.5596 9.67097 15.8038 11.1435 15.8038C11.7428 15.8219 12.3299 15.6361 12.8036 15.2784V15.7028H14.2349V10.3764H12.8036V10.8022ZM11.3581 14.5347C10.967 14.5146 10.5987 14.3493 10.3292 14.073C10.0597 13.7966 9.90946 13.4302 9.90946 13.0493C9.90946 12.6684 10.0597 12.302 10.3292 12.0256C10.5987 11.7493 10.967 11.584 11.3581 11.5639C11.5626 11.5578 11.7662 11.5917 11.957 11.6637C12.1477 11.7356 12.3216 11.844 12.4685 11.9826C12.6153 12.1211 12.7321 12.2869 12.8118 12.4701C12.8915 12.6534 12.9326 12.8503 12.9326 13.0493C12.9326 13.2483 12.8915 13.4452 12.8118 13.6284C12.7321 13.8117 12.6153 13.9775 12.4685 14.116C12.3216 14.2546 12.1477 14.363 11.957 14.4349C11.7662 14.5068 11.5626 14.5408 11.3581 14.5347ZM19.9529 15.7167H21.3841V11.4312H19.9529V15.7167ZM19.6686 10.0557C19.6686 10.3123 19.7734 10.5584 19.96 10.7399C20.1466 10.9214 20.3997 11.0234 20.6635 11.0234C20.9274 11.0234 21.1805 10.9214 21.3671 10.7399C21.5536 10.5584 21.6585 10.3123 21.6585 10.0557C21.6585 9.31468 21.0388 8.79904 20.1433 8.78107C19.1015 8.76172 17.7882 9.31192 17.2012 11.0026V10.3764H15.7756V15.7139H17.2069V12.6118C17.2069 10.6128 18.3795 8.98981 20.1391 9.0064C20.3028 9.00967 20.4651 9.03622 20.6209 9.0852C20.3652 9.09694 20.1241 9.20405 19.9475 9.38427C19.7709 9.56449 19.6726 9.80396 19.6729 10.0529L19.6686 10.0557ZM8.62203 10.3764H6.59947L4.35804 12.45V8.83775H2.92676V15.7139H4.35804V13.7702L6.59947 15.7139H8.61066L5.66424 13.0514L8.62203 10.3764Z" fill="white"/>
<path d="M6.01703 9.34964H6.35219V9.19289H6.01703V8.95563H6.39065V8.79888H5.85358V9.75354H6.40301V9.59678H6.01703V9.34964ZM7.06234 9.6109C7.01936 9.61294 6.97645 9.6057 6.93637 9.58963C6.8963 9.57357 6.85994 9.54904 6.82965 9.51763C6.79936 9.48623 6.77582 9.44864 6.76053 9.4073C6.74525 9.36596 6.73857 9.32178 6.74092 9.27762C6.73689 9.23489 6.74161 9.19176 6.75476 9.15102C6.76791 9.11027 6.7892 9.0728 6.81727 9.04101C6.84534 9.00923 6.87956 8.98383 6.91775 8.96645C6.95593 8.94907 6.99723 8.9401 7.03898 8.9401C7.11396 8.93835 7.18754 8.96109 7.24914 9.00506L7.32194 8.88079C7.24233 8.81393 7.1417 8.77928 7.03898 8.78334C6.91148 8.78334 6.7892 8.83542 6.69904 8.92811C6.60888 9.02081 6.55823 9.14653 6.55823 9.27762C6.55823 9.40871 6.60888 9.53443 6.69904 9.62713C6.7892 9.71982 6.91148 9.7719 7.03898 9.7719C7.14764 9.7768 7.25394 9.73834 7.33568 9.66457L7.27387 9.53888C7.21246 9.58512 7.13845 9.61032 7.06234 9.6109ZM7.69144 8.99518C7.65023 9.57136 7.55408 9.60243 7.48403 9.59254V9.75919C7.66671 9.78602 7.78759 9.69564 7.84116 9.14205L7.86314 8.95563H8.13786V9.75354H8.28895V8.79888H7.70517L7.69144 8.99518ZM8.73125 9.4838V8.79888H8.56779V9.75354H8.70515L9.19277 9.07567V9.75354H9.35623V8.79888H9.21887L8.73125 9.4838ZM10.5265 8.78334C10.4627 8.78098 10.3991 8.79214 10.3397 8.81613C10.2802 8.84011 10.2262 8.87641 10.181 8.92277C10.1358 8.96913 10.1003 9.02455 10.0768 9.0856C10.0533 9.14664 10.0423 9.212 10.0444 9.27762C10.0418 9.34322 10.0526 9.40865 10.076 9.46975C10.0994 9.53085 10.1349 9.58627 10.1802 9.6325C10.2256 9.67872 10.2798 9.71474 10.3394 9.73825C10.399 9.76176 10.4627 9.77226 10.5265 9.76907C10.654 9.76907 10.7763 9.717 10.8665 9.6243C10.9566 9.53161 11.0073 9.40589 11.0073 9.2748C11.0073 9.1437 10.9566 9.01798 10.8665 8.92529C10.7763 8.83259 10.654 8.78052 10.5265 8.78052V8.78334ZM10.5265 9.6109C10.4847 9.61055 10.4433 9.60159 10.4049 9.58454C10.3665 9.56748 10.3318 9.54269 10.3029 9.51163C10.274 9.48056 10.2514 9.44385 10.2365 9.40365C10.2215 9.36346 10.2146 9.32061 10.2161 9.27762C10.2133 9.23383 10.2192 9.1899 10.2336 9.14857C10.2479 9.10723 10.2704 9.06937 10.2995 9.03732C10.3287 9.00527 10.364 8.97973 10.4031 8.96226C10.4423 8.94479 10.4845 8.93578 10.5272 8.93578C10.5699 8.93578 10.6121 8.94479 10.6513 8.96226C10.6905 8.97973 10.7257 9.00527 10.7549 9.03732C10.7841 9.06937 10.8065 9.10723 10.8209 9.14857C10.8352 9.1899 10.8412 9.23383 10.8383 9.27762C10.8412 9.32107 10.8352 9.36467 10.8208 9.40561C10.8063 9.44654 10.7836 9.4839 10.7543 9.5153C10.7249 9.54669 10.6895 9.57141 10.6502 9.58788C10.611 9.60435 10.5689 9.61219 10.5265 9.6109ZM11.5073 9.1604C11.4659 9.16049 11.4246 9.16332 11.3836 9.16888V8.95563H11.7628V8.79888H11.2133V9.75354C11.2669 9.75354 11.3507 9.75354 11.4551 9.75354C11.6831 9.75354 11.8122 9.64056 11.8122 9.44285C11.8124 9.40299 11.8045 9.36354 11.7888 9.32707C11.7732 9.29061 11.7502 9.25797 11.7214 9.23129C11.6926 9.20461 11.6586 9.1845 11.6217 9.17229C11.5848 9.16007 11.5458 9.15602 11.5073 9.1604ZM11.4867 9.60243C11.4523 9.60243 11.4207 9.60243 11.3836 9.60243V9.32564C11.4205 9.32041 11.4577 9.31758 11.4949 9.31716C11.6089 9.31716 11.6584 9.37789 11.6584 9.45838C11.6584 9.53888 11.6075 9.60243 11.4867 9.60243ZM12.4248 9.35529L12.1116 8.79888H11.9166L12.3383 9.52335L12.2243 9.75636H12.396L12.8603 8.79888H12.6886L12.4248 9.35529ZM13.4413 9.25079C13.4831 9.23342 13.5188 9.20323 13.5433 9.16432C13.5679 9.12541 13.5802 9.07967 13.5786 9.03331C13.5786 8.90197 13.4949 8.79746 13.2723 8.79746C13.1803 8.79746 13.0567 8.79746 13.0045 8.80453V9.75495C13.0594 9.75495 13.1789 9.75495 13.2641 9.75495C13.4605 9.75495 13.6089 9.66457 13.6089 9.47251C13.6121 9.42089 13.5968 9.36984 13.5659 9.329C13.5351 9.28816 13.4907 9.26034 13.4413 9.25079ZM13.1666 8.95563C13.1954 8.95563 13.2325 8.95563 13.2696 8.95563C13.3561 8.95563 13.4152 8.99659 13.4152 9.07426C13.4155 9.09228 13.4121 9.11015 13.4051 9.12668C13.3981 9.14321 13.3878 9.15801 13.3747 9.17006C13.3617 9.18212 13.3463 9.19115 13.3296 9.19655C13.3129 9.20195 13.2952 9.20359 13.2778 9.20136H13.1679L13.1666 8.95563ZM13.2737 9.60243C13.238 9.60461 13.2022 9.60461 13.1666 9.60243V9.34258H13.2819C13.385 9.34258 13.444 9.38354 13.444 9.46403C13.444 9.54453 13.3822 9.60243 13.271 9.60243H13.2737ZM14.113 9.11945C14.0773 9.11711 14.0415 9.11711 14.0058 9.11945V8.79888H13.841V9.75354H14.0745C14.3218 9.75354 14.4591 9.62644 14.4591 9.42449C14.4591 9.22254 14.3492 9.11945 14.1102 9.11945H14.113ZM14.0965 9.59961C14.0649 9.59961 14.036 9.59961 14.0058 9.59961V9.27762C14.0369 9.27601 14.0681 9.27601 14.0992 9.27762C14.2132 9.27762 14.2902 9.32563 14.2902 9.43296C14.2902 9.54029 14.2132 9.59961 14.0937 9.59961H14.0965ZM14.6816 9.56712C14.6684 9.5657 14.6549 9.56723 14.6423 9.57159C14.6296 9.57596 14.618 9.58307 14.6082 9.59244C14.5985 9.60181 14.5908 9.61322 14.5857 9.6259C14.5806 9.63859 14.5782 9.65226 14.5786 9.66598C14.5767 9.6869 14.5828 9.70778 14.5956 9.72414C14.6084 9.7405 14.627 9.75105 14.6473 9.75354C14.6535 9.75445 14.6598 9.75391 14.6657 9.75196C14.6717 9.75 14.6771 9.74668 14.6816 9.74224C14.6853 9.76427 14.6809 9.78691 14.6693 9.80579C14.6611 9.82276 14.6498 9.83789 14.6359 9.85026C14.6219 9.86263 14.6057 9.872 14.5882 9.87781L14.6294 9.95125C14.6791 9.93835 14.723 9.90832 14.7538 9.86617C14.7845 9.82402 14.8003 9.7723 14.7984 9.71964C14.7956 9.63068 14.7503 9.56712 14.6789 9.56712H14.6816ZM15.1981 8.95563H15.4989V9.75354H15.6624V8.95563H15.9673V8.79888H15.1954L15.1981 8.95563ZM16.4975 8.78334C16.4335 8.78079 16.3697 8.7918 16.31 8.81569C16.2504 8.83957 16.1961 8.87582 16.1506 8.92217C16.1052 8.96853 16.0694 9.024 16.0457 9.08515C16.022 9.1463 16.0107 9.21181 16.0126 9.27762C16.0101 9.34322 16.0208 9.40865 16.0442 9.46975C16.0676 9.53085 16.1031 9.58627 16.1484 9.6325C16.1938 9.67872 16.248 9.71474 16.3076 9.73825C16.3673 9.76176 16.431 9.77226 16.4948 9.76907C16.6223 9.76907 16.7446 9.717 16.8347 9.6243C16.9249 9.53161 16.9755 9.40589 16.9755 9.2748C16.9755 9.1437 16.9249 9.01798 16.8347 8.92529C16.7446 8.83259 16.6223 8.78052 16.4948 8.78052L16.4975 8.78334ZM16.4975 9.6109C16.4555 9.61093 16.4138 9.60224 16.3751 9.58536C16.3363 9.56848 16.3013 9.54374 16.2721 9.51264C16.2429 9.48153 16.22 9.44469 16.205 9.40431C16.1899 9.36393 16.1829 9.32084 16.1843 9.27762C16.1815 9.23383 16.1875 9.1899 16.2018 9.14857C16.2162 9.10723 16.2386 9.06937 16.2678 9.03732C16.297 9.00527 16.3322 8.97973 16.3714 8.96226C16.4105 8.94479 16.4528 8.93578 16.4955 8.93578C16.5381 8.93578 16.5804 8.94479 16.6195 8.96226C16.6587 8.97973 16.694 9.00527 16.7231 9.03732C16.7523 9.06937 16.7748 9.10723 16.7891 9.14857C16.8035 9.1899 16.8094 9.23383 16.8066 9.27762C16.8095 9.32107 16.8035 9.36467 16.789 9.40561C16.7745 9.44654 16.7519 9.4839 16.7225 9.5153C16.6931 9.54669 16.6577 9.57141 16.6185 9.58788C16.5793 9.60435 16.5371 9.61219 16.4948 9.6109H16.4975Z" fill="white"/>
</svg>
