<svg width="24" height="24" viewBox="0 0 24 24" fill="none" xmlns="http://www.w3.org/2000/svg">
<rect width="24" height="24" rx="7.33333" fill="#043E44"/>
<path d="M12.1157 8.3616L8.47852 12.0012L12.1157 15.642C12.8355 16.3611 13.7524 16.8507 14.7504 17.0489C15.7484 17.247 16.7828 17.1449 17.7227 16.7553C18.6627 16.3657 19.466 15.7061 20.0312 14.86C20.5964 14.014 20.8981 13.0193 20.8981 12.0018C20.8981 10.9843 20.5964 9.98965 20.0312 9.14356C19.466 8.29748 18.6627 7.63795 17.7227 7.24835C16.7828 6.85875 15.7484 6.75657 14.7504 6.95472C13.7524 7.15287 12.8355 7.64246 12.1157 8.3616V8.3616Z" fill="white"/>
<path d="M5.53125 12.0011L1.89405 8.36153C1.6324 8.10119 1.34308 7.87021 1.03125 7.67273L1.03125 16.3307C1.34281 16.1329 1.63208 15.9019 1.89405 15.6419L5.53125 12.0011Z" fill="white"/>
<path d="M10.6421 17.1168L7.00491 13.476L3.36771 17.1168C2.79055 17.6973 2.35982 18.4069 2.1111 19.1869C1.86238 19.9669 1.8028 20.7948 1.93731 21.6023C2.29749 22.0298 2.74666 22.3735 3.25342 22.6093C3.76019 22.8452 4.31234 22.9676 4.87131 22.9679H11.6513C12.1075 22.0077 12.2554 20.9299 12.0747 19.8823C11.8941 18.8347 11.3936 17.8687 10.6421 17.1168Z" fill="white"/>
<path d="M3.3677 6.88668L7.0037 10.5275L10.6409 6.88668C11.392 6.13399 11.8919 5.16735 12.0719 4.11934C12.252 3.07134 12.1034 1.99329 11.6465 1.03308L4.8701 1.03308C4.31083 1.03342 3.75839 1.15591 3.2514 1.39199C2.74441 1.62808 2.2951 1.97206 1.93489 2.39988C1.80198 3.20777 1.86255 4.03567 2.11161 4.81562C2.36068 5.59557 2.79115 6.30534 3.3677 6.88668V6.88668Z" fill="white"/>
</svg>
