<svg  viewBox="0 0 162 29" fill="none" xmlns="http://www.w3.org/2000/svg">
<path d="M32.8207 2.01794H9.57422V11.1187H32.8207V2.01794Z" fill="url(#paint0_linear_8684_1964)"/>
<path d="M0 28.4067V11.1366L9.57521 2V28.3887H0V28.4067Z" fill="url(#paint1_linear_8684_1964)"/>
<path d="M42.4163 28.4066V11.1366L32.8057 1.99994V28.3887H42.4163V28.4066Z" fill="url(#paint2_linear_8684_1964)"/>
<path d="M52.0264 11.1192H68.7298V28.3892H63.9245V15.6158H56.8317V28.3892H52.0264V11.1192Z" fill="black"/>
<path d="M85.095 11.1197H89.9003V28.3897H85.095V25.8995C84.4566 26.8311 83.6055 27.5477 82.6302 28.0672C81.655 28.5688 80.5556 28.8376 79.4385 28.8197C74.7218 28.8197 71.2109 25.1113 71.2109 19.7726C71.2109 14.434 74.6509 10.636 79.5449 10.636C81.7436 10.636 83.9247 11.6034 85.095 13.377V11.1197ZM84.9354 19.7905C84.9354 19.1993 84.829 18.6081 84.6162 18.0528C84.4034 17.4974 84.0665 16.9958 83.6587 16.5837C83.2509 16.1717 82.7366 15.8134 82.2047 15.5984C81.655 15.3476 81.0698 15.2401 80.4847 15.2401C79.3144 15.276 78.1973 15.7955 77.3816 16.6375C76.566 17.4974 76.1227 18.644 76.1227 19.8263C76.1227 21.0087 76.5837 22.1553 77.4171 22.9973C78.2505 23.8572 79.3676 24.3409 80.5379 24.3588C81.7082 24.3409 82.843 23.8572 83.6764 22.9973C84.4744 22.1195 84.9354 20.9729 84.9354 19.7905Z" fill="black"/>
<path d="M104.282 28.4068L100.487 22.1186H97.845V28.4068H93.1992V11.1367H97.845V17.9981H100.327L104.264 11.1546H109.548L104.441 19.6642L110.151 28.3888H104.282V28.4068Z" fill="black"/>
<path d="M127.669 21.3305H114.813C115.31 23.3549 116.959 24.5552 119.193 24.5552C120.044 24.5552 120.878 24.376 121.658 24.0177C122.438 23.6594 123.112 23.1578 123.679 22.5129L126.445 25.3614C124.832 27.547 121.871 28.8369 118.874 28.8369C113.59 28.8369 109.76 25.0926 109.76 19.7898C109.76 14.1824 113.98 10.689 118.839 10.689C123.697 10.689 127.74 14.2004 127.74 19.4853C127.775 19.969 127.74 20.5781 127.669 21.3305ZM122.952 18.1954C122.793 16.171 121.161 14.8632 118.998 14.8632C117.012 14.8632 115.328 15.8485 114.831 18.1954H122.952Z" fill="black"/>
<path d="M144.266 11.1192V15.6517H138.964V28.425H134.141V15.6517H128.839V11.1371H144.266V11.1192Z" fill="black"/>
<path d="M156.906 10.629L155.894 8.8424L154.901 10.629H153.706L155.251 7.92968L153.688 5.42456H154.938L155.95 7.09464L156.906 5.42456H158.101L156.557 8.00736L158.138 10.629H156.906Z" fill="black"/>
<path d="M161.999 8.86133C161.999 10.0071 161.19 10.7256 160.105 10.7256C159.167 10.7256 158.376 10.1819 158.284 8.97785H159.296C159.369 9.50218 159.755 9.71579 160.197 9.71579C160.73 9.71579 160.969 9.3274 160.969 8.84191C160.969 8.33701 160.602 8.00687 160.105 8.00687C159.682 8.00687 159.424 8.22049 159.296 8.4341H158.321L158.652 5.42407H161.852L161.742 6.43389H159.443L159.351 7.42429C159.351 7.42429 159.59 7.13299 160.326 7.13299C161.227 7.13299 161.999 7.75442 161.999 8.86133Z" fill="black"/>
<path d="M158.414 4.78286C157.862 2.54961 156.152 0.976624 152.565 0.976624H148.243L148.832 5.17125C149.273 8.95806 150.634 10.1621 153.062 10.6087C153.08 10.6087 153.154 10.6281 153.154 10.531C153.154 10.4922 153.135 10.4728 153.099 10.4534C151.462 9.73484 151.278 7.34624 150.928 4.93821L150.652 3.0351H153.117C155.398 3.0351 157.145 2.99626 158.267 4.84111C158.285 4.86053 158.303 4.87995 158.34 4.87995C158.377 4.87995 158.414 4.84111 158.414 4.80228C158.414 4.78286 158.414 4.78286 158.414 4.78286Z" fill="#5FAF2D"/>
<defs>
<linearGradient id="paint0_linear_8684_1964" x1="11.9045" y1="3.67493" x2="29.7271" y2="9.11572" gradientUnits="userSpaceOnUse">
<stop stop-color="#00F0FF"/>
<stop offset="1" stop-color="#0184FF"/>
</linearGradient>
<linearGradient id="paint1_linear_8684_1964" x1="4.78546" y1="25.9884" x2="4.78546" y2="4.21706" gradientUnits="userSpaceOnUse">
<stop stop-color="#0184FF"/>
<stop offset="1" stop-color="#2FAAF4"/>
</linearGradient>
<linearGradient id="paint2_linear_8684_1964" x1="37.6229" y1="27.9955" x2="37.6229" y2="3.60112" gradientUnits="userSpaceOnUse">
<stop offset="0.17" stop-color="#0184FF"/>
<stop offset="0.91" stop-color="#04BBE4"/>
</linearGradient>
</defs>
</svg>
