<svg width="24" height="24" viewBox="0 0 24 24" fill="none" xmlns="http://www.w3.org/2000/svg">
<g clip-path="url(#clip0_10568_2233)">
<rect width="24" height="24" rx="4" fill="#FFCA06"/>
<rect width="24" height="24" rx="4" fill="#202020"/>
<path d="M12.0002 5.80152C12.8547 5.80152 13.5562 6.41372 13.7029 7.22361H10.2975C10.4442 6.41372 11.152 5.80152 12.0002 5.80152ZM18.8173 7.22361H15.7053C15.5458 5.31686 13.9516 3.81824 12.0002 3.81824C10.0488 3.81824 8.45451 5.31686 8.29508 7.22361H5.18306C4.43056 7.22361 3.81836 7.83581 3.81836 8.58831V18.8172C3.81836 19.5697 4.43056 20.1819 5.18306 20.1819H18.8173C19.5698 20.1819 20.182 19.5697 20.182 18.8172V8.58831C20.182 7.83581 19.5698 7.22361 18.8173 7.22361Z" fill="#202020"/>
<path d="M18.3258 17.3568H19.2824V12.7461H18.3258V17.3568ZM18.8041 17.9243C18.4534 17.9243 18.1728 18.2113 18.1728 18.562C18.1728 18.9128 18.4534 19.1934 18.8041 19.1934C19.1549 19.1934 19.4355 18.9128 19.4355 18.562C19.4355 18.2113 19.1549 17.9243 18.8041 17.9243ZM18.4598 11.2794C18.5873 11.2794 18.6702 11.2284 18.7148 11.1518C18.8169 10.9924 18.8296 10.6481 18.8296 10.0359C18.8296 9.42366 18.8169 9.07929 18.7148 8.91986C18.6702 8.84334 18.5873 8.79232 18.4598 8.79232C18.3322 8.79232 18.2557 8.84334 18.211 8.91986C18.109 9.07929 18.0963 9.42366 18.0963 10.0359C18.0963 10.6481 18.1154 10.9924 18.211 11.1518C18.2557 11.2284 18.3322 11.2794 18.4598 11.2794ZM18.4598 11.7577C18.1409 11.7577 17.9496 11.6365 17.8093 11.4771C17.5606 11.1965 17.5606 10.7055 17.5606 10.0422C17.5606 9.37902 17.5606 8.88798 17.8093 8.60739C17.9496 8.44796 18.1409 8.32679 18.4598 8.32679C18.7786 8.32679 18.9699 8.44796 19.1102 8.60739C19.3589 8.89436 19.3525 9.37902 19.3525 10.0422C19.3525 10.7055 19.3525 11.1965 19.1102 11.4771C18.9699 11.6365 18.7786 11.7577 18.4598 11.7577ZM4.72348 12.7461H7.88015V13.658H6.80242V19.1615H5.79484V13.658H4.72348V12.7461ZM10.6988 14.6337C10.6988 14.1044 10.6159 13.6517 10.0739 13.6517H9.45529V15.6158H10.0739C10.6159 15.6158 10.6988 15.163 10.6988 14.6337ZM10.9603 16.3109L11.9169 19.1551H10.8646L10.0292 16.5277H9.46167V19.1551H8.45409V12.7461H10.0739C11.2473 12.7461 11.7128 13.3137 11.7128 14.6337C11.7128 15.4245 11.5534 15.9921 10.9667 16.3109M12.5354 19.1551H13.543V12.7461H12.5354V19.1551ZM16.6231 14.6975C16.6231 14.13 16.5402 13.6517 16.0046 13.6517H15.386V15.7434H16.0046C16.5466 15.7434 16.6231 15.2651 16.6231 14.6975ZM17.6307 14.6911C17.6307 15.9857 17.1971 16.6553 15.9854 16.6553H15.3796V19.1615H14.372V12.7525H15.9854C17.1461 12.7525 17.6307 13.3583 17.6307 14.6975M5.17626 10.0422C5.17626 10.6544 5.19539 10.9988 5.29105 11.1582C5.33569 11.2348 5.41221 11.2858 5.53975 11.2858C5.66729 11.2858 5.7502 11.2348 5.79484 11.1582C5.89687 10.9988 5.90962 10.6544 5.90962 10.0422C5.90962 9.43003 5.89687 9.08567 5.79484 8.92624C5.7502 8.84972 5.66729 8.7987 5.53975 8.7987C5.41221 8.7987 5.33569 8.84972 5.29105 8.92624C5.18901 9.08567 5.17626 9.43003 5.17626 10.0422ZM4.89567 11.4771C4.64696 11.1965 4.65334 10.7055 4.65334 10.0422C4.65334 9.37902 4.65334 8.88798 4.89567 8.60739C5.03596 8.44796 5.22727 8.32679 5.54613 8.32679C5.86498 8.32679 6.0563 8.44796 6.19659 8.60739C6.4453 8.89436 6.4453 9.37902 6.4453 10.0422C6.4453 10.7055 6.4453 11.1965 6.19659 11.4771C6.0563 11.6365 5.86498 11.7577 5.54613 11.7577C5.22727 11.7577 5.03596 11.6365 4.89567 11.4771ZM8.75381 8.35868H8.22451V10.3547L7.43375 8.35868H6.96185V11.7194H7.49114V9.72338L8.2819 11.7194H8.74743V8.35868H8.75381ZM10.7371 8.83696V8.35868H9.32137V11.7194H10.7371V11.2411H9.85067V10.2654H10.6095V9.78715H9.85067V8.83059H10.7371V8.83696ZM11.9934 8.83696H12.5546V11.7258H13.0839V8.83696H13.6514V8.35868H11.9934V8.83696ZM15.15 11.7258L15.6283 9.16857L16.113 11.7258H16.6678L17.2991 8.36506H16.7188L16.3936 10.9159L15.928 8.36506H15.3414L14.8758 10.9159L14.5442 8.36506H13.9639L14.6016 11.7258H15.1564H15.15ZM14.0659 6.83455L14.8503 7.63807L15.1564 6.55396L14.8121 6.64324C14.4294 5.44435 13.3071 4.59619 12.0061 4.59619C10.5713 4.59619 9.34688 5.62928 9.10455 7.03224C9.08542 7.15341 9.16194 7.2682 9.28311 7.28733C9.40427 7.30646 9.51906 7.22993 9.53819 7.10877C9.74864 5.92263 10.7817 5.04259 12.0061 5.04259C13.103 5.04259 14.0468 5.75045 14.3784 6.75803L14.0659 6.84093V6.83455Z" fill="white"/>
</g>
<defs>
<clipPath id="clip0_10568_2233">
<rect width="24" height="24" rx="4" fill="white"/>
</clipPath>
</defs>
</svg>
