<svg width="24" height="24" viewBox="0 0 24 24" fill="none" xmlns="http://www.w3.org/2000/svg">
<mask id="mask0_10557_1068" style="mask-type:alpha" maskUnits="userSpaceOnUse" x="0" y="0" width="24" height="24">
<rect width="24" height="24" rx="7.33333" fill="#C4C4C4"/>
</mask>
<g mask="url(#mask0_10557_1068)">
<rect width="24" height="24" rx="7.33333" fill="#FCFCFC"/>
<path fill-rule="evenodd" clip-rule="evenodd" d="M14.1401 -1L14.1401 5.1857L14.1444 5.24146C14.1558 5.31391 14.1901 5.37873 14.2473 5.43593C14.2931 5.48169 14.3437 5.51282 14.3993 5.52929L14.4418 5.53889L14.4976 5.54317H16.4566L16.5175 5.53918C16.5961 5.5285 16.664 5.49648 16.7212 5.4431C16.7688 5.39861 16.8006 5.34563 16.8165 5.2842L16.8254 5.23654L16.8284 5.1857L16.8289 -0.993441L17.0314 -0.988998L17.4172 -0.976646L17.7788 -0.95972L18.1175 -0.938218C18.3907 -0.918397 18.6417 -0.893825 18.874 -0.864613L18.8717 -0.832981L18.8625 -0.598361L18.8549 -0.214495L18.8508 0.419515L18.8511 0.831442L18.8548 1.33398L18.8602 1.63366L18.865 1.79666C18.9126 3.0741 19.3273 4.04173 20.109 4.69951C20.8907 5.3573 21.9584 5.68618 23.3121 5.68618C23.8973 5.68618 24.4287 5.6247 24.9061 5.50176C24.9204 5.64998 24.9331 5.80528 24.9441 5.9684L24.964 6.30533L24.9796 6.66444C24.9818 6.72621 24.9838 6.78896 24.9857 6.85272L24.9946 7.24759C24.9968 7.38339 24.9983 7.52343 24.9991 7.66795L25 8.13796C24.4954 7.98842 23.9328 7.91365 23.3121 7.91365C21.9775 7.91365 20.9122 8.25446 20.1162 8.93608C19.3533 9.5893 18.9385 10.5074 18.8717 11.6903L18.8625 11.9249L18.8549 12.3087L18.8508 12.9428L18.8511 13.3547L18.8548 13.8572L18.8602 14.1569L18.865 14.3199C18.9126 15.5973 19.3273 16.5649 20.109 17.2227C20.8907 17.8805 21.9584 18.2094 23.3121 18.2094C23.9134 18.2094 24.4578 18.1445 24.9453 18.0147C24.8464 19.4915 24.6146 20.3306 24.2607 21.0819L24.1697 21.2682L24.0736 21.4527C23.4694 22.5826 22.5827 23.4693 21.4529 24.0735C20.9727 24.3303 20.4943 24.5361 19.8656 24.6878L19.8659 20.8417L19.8631 20.7908C19.8538 20.7087 19.8214 20.6399 19.7658 20.5843C19.7213 20.5398 19.6683 20.5101 19.6069 20.4953L19.5592 20.487L19.5084 20.4842H15.6618L15.4747 20.4867C14.7341 20.5066 14.0911 20.6464 13.5455 20.906C12.9545 21.1873 12.5064 21.5805 12.2014 22.0857C11.8963 22.591 11.7438 23.1677 11.7438 23.816C11.7438 24.2451 11.8078 24.6398 11.936 25L7.88845 24.9996C7.75051 24.9996 7.61651 24.999 7.48624 24.9977L7.10651 24.9919L6.74821 24.9824C6.69022 24.9805 6.63308 24.9784 6.57676 24.9762L6.24864 24.961L5.93931 24.942C5.83922 24.935 5.74207 24.9275 5.64771 24.9193L5.37279 24.8929C5.06138 24.8599 4.78188 24.8194 4.52674 24.7716L4.31382 24.7287L4.11179 24.6823C4.04614 24.6662 3.98213 24.6495 3.91958 24.6323L3.73613 24.5787C3.64642 24.551 3.5596 24.522 3.47508 24.4917L3.30892 24.4294L3.31347 24.2879C3.3516 23.0867 3.90929 22.4861 4.98651 22.4861C5.43456 22.4861 5.79442 22.5791 6.06611 22.765L6.20736 22.8626C6.42592 23.0171 6.66837 23.2119 6.85016 23.5057L6.90839 23.6073C7.06946 23.912 7.22413 23.9517 7.34791 23.9503L7.40276 23.9475L7.45268 23.9437C7.46056 23.9433 7.46821 23.9431 7.47562 23.9431C7.4918 23.9431 7.51884 23.9354 7.55675 23.9201L7.62177 23.8915L7.74984 23.827L7.9146 23.7368L8.11602 23.6207L8.44163 23.4259L8.72862 23.2496C8.93127 23.1242 9.08534 22.8989 9.05098 22.5433C9.01662 22.1877 8.21677 21.4245 7.47562 20.9915L7.30314 20.8921L7.139 20.8013C6.60171 20.5128 6.14268 20.3653 5.15342 20.3179L5.00098 20.3115L4.83441 20.3079L4.6706 20.309C3.47945 20.3341 2.51151 20.7332 1.79058 21.3493C1.35392 21.7225 1.03113 22.183 0.82222 22.731C0.477134 22.349 0.177581 21.9218 -0.0732924 21.4527L-0.169363 21.2682L-0.260382 21.0819C-0.614292 20.3306 -0.846097 19.4915 -0.94487 18.0148C-0.456915 18.1446 0.0875189 18.2094 0.688277 18.2094C2.04196 18.2094 3.10726 17.8805 3.88419 17.2227C4.66113 16.5649 5.07344 15.5973 5.1211 14.3199L5.13941 13.7388L5.14713 13.381L5.14969 13.0901L5.14758 12.8331L5.13458 12.2676L5.1211 11.8461C5.08297 10.5877 4.6659 9.6177 3.8699 8.93608C3.0739 8.25446 2.01336 7.91365 0.688277 7.91365C0.0671963 7.91365 -0.495563 7.98746 -1 8.13508L-0.99758 7.50413L-0.992357 7.14063L-0.983669 6.7967L-0.971542 6.47145L-0.956005 6.16391L-0.937042 5.87319C-0.9336 5.82609 -0.930027 5.77966 -0.926304 5.73386L-0.902276 5.46669L-0.87489 5.21406L-0.844158 4.97505C-0.838759 4.93629 -0.833225 4.89805 -0.827549 4.86034L-0.791845 4.64006C-0.779393 4.56856 -0.766383 4.49895 -0.752835 4.43109L-0.710558 4.23257L-0.665016 4.04355L-0.616247 3.86309C-0.607847 3.83369 -0.599313 3.8046 -0.590645 3.77582L-0.537036 3.60657C-0.527835 3.57892 -0.518496 3.5515 -0.509028 3.52435L-0.450632 3.36421L-0.389062 3.20898C-0.378539 3.18347 -0.367887 3.15814 -0.357101 3.13294L-0.290823 2.98341L-0.221412 2.83654L-0.148893 2.69137L-0.0732924 2.54704C0.530948 1.41719 1.41764 0.530485 2.54747 -0.0737657L2.76422 -0.186011L2.91013 -0.256971L3.05823 -0.324836C3.08314 -0.335884 3.10818 -0.346793 3.13338 -0.357579L3.28645 -0.420737C3.31232 -0.430998 3.33837 -0.441128 3.36462 -0.451125L3.52477 -0.509522L3.69076 -0.564719C3.74716 -0.58259 3.8047 -0.599917 3.86351 -0.616716L4.04395 -0.665513L4.23297 -0.711056L4.4315 -0.75332C4.49936 -0.766868 4.56896 -0.779878 4.64045 -0.792331L4.86074 -0.828035C4.89845 -0.833711 4.93667 -0.839246 4.97542 -0.844645L5.21444 -0.875377L5.46706 -0.902751L5.73425 -0.926792L6.01687 -0.947448L6.31587 -0.964692L6.63216 -0.978524L6.96664 -0.988945L7.32023 -0.995901L7.69385 -0.999365L8.97668 -1C8.96669 0.185455 8.87347 1.12606 8.6974 1.82562L8.66342 1.95397C8.45369 2.70709 8.09622 3.12654 7.59097 3.21234C7.39435 3.25167 7.27884 3.34289 7.24443 3.48602L7.23597 3.53567L7.23348 3.58412V5.1714L7.23665 5.21826C7.24725 5.29506 7.28433 5.36523 7.34788 5.42879C7.42414 5.50505 7.50994 5.54317 7.60527 5.54317C8.69202 5.52411 9.519 5.30247 10.0862 4.87825C10.6534 4.45402 11.0419 3.79386 11.2516 2.89774C11.4409 2.08922 11.5447 0.985789 11.5632 -0.412538L11.5655 -0.648321L11.5662 -1H14.1401ZM17.1919 22.5433L17.1917 24.9843L16.7808 24.9941L16.3421 24.999L15.6033 24.9997C15.2693 24.9811 15.0124 24.8797 14.8325 24.6954C14.6323 24.4905 14.5322 24.1973 14.5322 23.816C14.5322 23.4347 14.637 23.1272 14.8468 22.8937C15.0198 22.701 15.248 22.5878 15.5313 22.5541L15.6278 22.5458L15.719 22.5433H17.1919ZM11.9546 7.91365C10.6104 7.91365 9.5451 8.24969 8.75863 8.92177C7.97216 9.59385 7.5551 10.5496 7.50744 11.7889L7.50301 11.9383L7.49551 12.4337L7.49347 12.8145V13.3327L7.49938 14.0172L7.50511 14.2654L7.50744 14.3342C7.5551 15.6021 7.9674 16.5649 8.74433 17.2227C9.52127 17.8805 10.5913 18.2094 11.9546 18.2094C12.803 18.2094 13.5632 18.0712 14.2353 17.7947C14.9074 17.5183 15.4389 17.1179 15.8297 16.5936C16.2206 16.0692 16.4255 15.4496 16.4446 14.7346C16.4446 14.6488 16.4136 14.5773 16.3516 14.5201C16.3145 14.4858 16.273 14.4617 16.2272 14.448L16.18 14.4377L16.13 14.4343H14.0995L14.0355 14.4365C13.9336 14.4438 13.8548 14.4693 13.7992 14.5129C13.7436 14.5566 13.6979 14.6318 13.6621 14.7384L13.6419 14.8061C13.518 15.2637 13.3154 15.5878 13.0342 15.7785C12.7529 15.9691 12.3931 16.0645 11.9546 16.0645C10.911 16.0645 10.355 15.5008 10.2866 14.3736L10.2788 14.175L10.2723 13.8646L10.2678 13.3404L10.2683 12.6413L10.2748 12.1018L10.2815 11.8604C10.3196 10.6592 10.8773 10.0586 11.9546 10.0586C12.4026 10.0586 12.7625 10.1516 13.0342 10.3375C13.3058 10.5233 13.5084 10.8499 13.6419 11.317C13.6895 11.46 13.7444 11.5577 13.8063 11.6101C13.8476 11.6451 13.9048 11.6684 13.9779 11.68L14.0357 11.6866L14.0995 11.6888H16.13L16.18 11.6853C16.2449 11.6762 16.3021 11.6487 16.3516 11.603C16.4136 11.5458 16.4446 11.4743 16.4446 11.3885C16.4255 10.6735 16.2206 10.0538 15.8297 9.52952C15.4389 9.0052 14.9074 8.60479 14.2353 8.32833C13.5632 8.05187 12.803 7.91365 11.9546 7.91365ZM23.3121 10.0586C23.8078 10.0586 24.2034 10.2088 24.499 10.509C24.7945 10.8093 24.9518 11.2693 24.9708 11.889L24.9923 12.5789L24.9986 12.9158V13.1795L24.9897 13.6249L24.9708 14.2341C24.9518 14.8538 24.7945 15.3137 24.499 15.614C24.2034 15.9143 23.8078 16.0645 23.3121 16.0645C22.8069 16.0645 22.4065 15.9143 22.111 15.614C21.8351 15.3338 21.6797 14.9144 21.6447 14.3559L21.6364 14.1476L21.6299 13.8452L21.6261 13.4784V12.6247L21.6299 12.2665L21.6364 11.9726L21.6391 11.889C21.6581 11.2693 21.8154 10.8093 22.111 10.509C22.4065 10.2088 22.8069 10.0586 23.3121 10.0586ZM0.688277 10.0586C1.18399 10.0586 1.57961 10.2088 1.87514 10.509C2.17066 10.8093 2.32795 11.2693 2.34701 11.889L2.36846 12.5789L2.37482 12.9158V13.1795L2.36588 13.6249L2.34701 14.2341C2.32795 14.8538 2.17066 15.3137 1.87514 15.614C1.57961 15.9143 1.18399 16.0645 0.688277 16.0645C0.18303 16.0645 -0.217355 15.9143 -0.512877 15.614C-0.788696 15.3338 -0.944097 14.9144 -0.979093 14.3559L-0.987477 14.1476L-0.993904 13.8452L-0.998479 13.3418V12.7584L-0.993904 12.2665L-0.987477 11.9726L-0.984753 11.889C-0.965687 11.2693 -0.808398 10.8093 -0.512877 10.509C-0.217355 10.2088 0.18303 10.0586 0.688277 10.0586ZM3.39317 2.85659C2.6403 2.85659 2.02336 3.45783 2.03382 4.20025C2.02336 4.95313 2.6403 5.55962 3.39317 5.55962C4.10944 5.55962 4.74205 4.95313 4.75251 4.20025C4.74205 3.45783 4.10944 2.85659 3.39317 2.85659ZM24.0736 2.54704C24.187 2.75903 24.2904 2.97069 24.3836 3.1951C24.1034 3.42613 23.7461 3.54122 23.3121 3.54122C22.8069 3.54122 22.4065 3.39108 22.111 3.09079C21.8351 2.81051 21.6797 2.39115 21.6447 1.83268L21.6364 1.62435L21.6299 1.32192L21.6261 0.95514L21.6258 0.134962C21.6261 0.0966004 21.6263 0.0591325 21.6266 0.0225842C22.6741 0.623301 23.5008 1.47591 24.0736 2.54704Z" fill="#FF5700"/>
</g>
</svg>
