<svg width="52" height="24" viewBox="0 0 52 24" fill="none" xmlns="http://www.w3.org/2000/svg">
<rect width="52" height="24" rx="8" fill="white"/>
<path fill-rule="evenodd" clip-rule="evenodd" d="M9.79989 9.45859C9.76952 10.1584 9.73527 10.7955 9.69736 11.3702C9.65923 11.9448 9.60808 12.4625 9.54391 12.9226C9.47929 13.383 9.39388 13.7901 9.2877 14.1435C9.18152 14.4972 9.04496 14.8028 8.87804 15.0607C8.77186 15.2303 8.6522 15.3702 8.51953 15.4806C8.38686 15.5909 8.24825 15.6793 8.10439 15.7459C7.96007 15.8122 7.81781 15.8581 7.6776 15.884C7.53717 15.9097 7.40632 15.9226 7.28507 15.9226C7.11061 15.9226 6.96446 15.9097 6.84686 15.884C6.72926 15.8581 6.61395 15.8195 6.5 15.7678L6.67058 14.4642C6.71602 14.479 6.76146 14.4899 6.80713 14.4972C6.85257 14.5045 6.89824 14.5083 6.94368 14.5083C7.06494 14.5083 7.18459 14.479 7.30197 14.4196C7.41957 14.3611 7.52004 14.2615 7.60385 14.1214C7.71734 13.9597 7.81598 13.7222 7.89956 13.4089C7.98291 13.0958 8.05689 12.6962 8.12129 12.21C8.18568 11.7237 8.23706 11.1438 8.27497 10.4697C8.31264 9.79563 8.33913 9.00956 8.35466 8.11084H13.0541V15.8452H11.4952V9.45859H9.79989Z" fill="black"/>
<path fill-rule="evenodd" clip-rule="evenodd" d="M17.725 12.5415H17.691L17.2017 13.348L15.1762 15.8453H14.2432V10.3206H15.7224V12.9502L15.6541 13.7017H15.6996L16.1663 12.9172L18.2144 10.3206H19.1474V15.8453H17.6684V13.3258L17.725 12.5415Z" fill="black"/>
<path fill-rule="evenodd" clip-rule="evenodd" d="M23.1634 11.5911V15.845H21.6387V11.5911H20.0117V10.3203H24.7452V11.5911H23.1634Z" fill="black"/>
<path fill-rule="evenodd" clip-rule="evenodd" d="M28.038 9.30384C27.8864 9.30384 27.742 9.30939 27.6057 9.32047C27.4692 9.33134 27.3591 9.34442 27.2757 9.35928V11.8674C27.3059 11.8747 27.3513 11.8823 27.4123 11.8894C27.4728 11.8969 27.5377 11.9024 27.6057 11.906C27.6738 11.9098 27.7402 11.9115 27.8048 11.9115H27.9469C28.1519 11.9115 28.3549 11.8933 28.5556 11.8563C28.7568 11.8197 28.937 11.7514 29.0964 11.6521C29.2558 11.5525 29.3825 11.4144 29.4775 11.2374C29.572 11.0607 29.6198 10.8288 29.6198 10.5416C29.6198 10.2984 29.5743 10.0977 29.4832 9.93913C29.3923 9.78103 29.2724 9.65375 29.1247 9.55818C28.977 9.46239 28.8077 9.39586 28.6184 9.35928C28.4289 9.32225 28.235 9.30384 28.038 9.30384ZM26.7695 8.04989C27.1522 8.01663 27.5336 8 27.9128 8C28.3072 8 28.7038 8.03149 29.1019 8.09402C29.5001 8.15655 29.8588 8.28183 30.1772 8.46965C30.4959 8.65746 30.7556 8.9189 30.9565 9.25395C31.1572 9.58945 31.2579 10.0258 31.2579 10.5633C31.2579 11.0496 31.1712 11.4605 30.9963 11.7956C30.8218 12.1308 30.5907 12.4049 30.3023 12.6187C30.0139 12.8324 29.686 12.9872 29.3183 13.0828C28.9502 13.1788 28.5689 13.2265 28.175 13.2265H27.9923C27.9087 13.2265 27.822 13.2245 27.7306 13.2209C27.6397 13.2171 27.5505 13.2118 27.4632 13.2045C27.376 13.1972 27.3132 13.1896 27.2755 13.1823V15.8452H25.7168V8.18782C26.0351 8.12905 26.3863 8.08293 26.7695 8.04989Z" fill="#FF4C00"/>
<path fill-rule="evenodd" clip-rule="evenodd" d="M34.2252 11.2922C33.7628 11.3053 33.5468 11.4184 33.3536 11.6388C33.1618 11.8581 33.0511 12.1575 33.0138 12.5331L35.1384 12.5524C35.1686 12.1548 35.1318 11.8477 34.9774 11.6341C34.8228 11.4204 34.5573 11.2827 34.2252 11.2922ZM35.4056 15.8175C35.0153 15.9393 34.5997 16 34.1597 16C33.2417 16 32.5706 15.7404 32.1457 15.2208C31.7209 14.7015 31.5088 13.9888 31.5088 13.0828C31.5088 12.1107 31.7476 11.3811 32.2254 10.8951C32.7033 10.4088 33.3746 10.1658 34.2394 10.1658C34.5276 10.1658 34.8084 10.2026 35.0816 10.2762C35.3547 10.3498 35.5972 10.4716 35.8098 10.6407C36.0224 10.8104 36.1929 11.0388 36.3217 11.3259C36.4507 11.6131 36.5154 11.9707 36.5154 12.398C36.5154 12.5524 36.5058 12.7182 36.4868 12.895C36.4679 13.0717 36.4396 13.2557 36.4016 13.4476H32.9721C32.9949 13.9117 33.1447 14.2613 33.3678 14.4971C33.5907 14.733 33.9519 14.8505 34.4506 14.8505C34.7603 14.8505 35.0338 14.792 35.2841 14.7126C35.596 14.6137 35.8897 14.4789 35.8897 14.4789L36.3331 15.3701C36.1055 15.5468 35.7963 15.696 35.4056 15.8175Z" fill="#FF4C00"/>
<path fill-rule="evenodd" clip-rule="evenodd" d="M41.3239 11.388C41.3239 11.388 40.871 11.2986 40.5144 11.2986C39.4989 11.2986 38.8396 11.8632 38.8396 13.1091C38.8396 14.2779 39.3425 14.8553 40.4029 14.8553C40.7487 14.8553 41.415 14.7655 41.415 14.7655L41.6189 15.764C41.3403 15.8503 40.7932 15.9807 40.1348 15.9807C38.0706 15.9807 37.3115 14.5179 37.3115 13.0333C37.3115 11.5381 38.2041 10.1943 40.2577 10.1943C40.637 10.1943 41.1051 10.2376 41.5408 10.346L41.3239 11.388Z" fill="#FF4C00"/>
<path fill-rule="evenodd" clip-rule="evenodd" d="M43.6609 11.8955C43.1969 11.8955 42.8213 11.5307 42.8213 11.0804C42.8213 10.63 43.1969 10.265 43.6609 10.265C44.1243 10.265 44.5003 10.63 44.5003 11.0804C44.5003 11.5307 44.1243 11.8955 43.6609 11.8955Z" fill="#FF4C00"/>
<path fill-rule="evenodd" clip-rule="evenodd" d="M44.5003 15.112C44.5003 15.5621 44.1243 15.9271 43.6609 15.9271C43.1969 15.9271 42.8213 15.5621 42.8213 15.112C42.8213 14.6614 43.1969 14.2964 43.6609 14.2964C44.1243 14.2964 44.5003 14.6616 44.5003 15.112Z" fill="#FF4C00"/>
</svg>
