<svg width="12" height="14" viewBox="0 0 12 14" fill="none" xmlns="http://www.w3.org/2000/svg">
<path d="M4.02803 11.6687H7.97203C7.89322 12.1347 7.65194 12.5577 7.29096 12.8627C6.92999 13.1678 6.47264 13.3352 6.00003 13.3352C5.52742 13.3352 5.07007 13.1678 4.7091 12.8627C4.34812 12.5577 4.10683 12.1347 4.02803 11.6687ZM6.00003 0.335327C7.32611 0.335327 8.59788 0.862111 9.53556 1.79979C10.4732 2.73748 11 4.00924 11 5.33533V8.00199L11.9454 10.1087C11.9883 10.205 12.0066 10.3106 11.9984 10.4158C11.9902 10.5209 11.9559 10.6224 11.8985 10.711C11.8412 10.7995 11.7626 10.8723 11.67 10.9228C11.5773 10.9733 11.4735 10.9998 11.368 11H0.634696C0.52905 11 0.425087 10.9735 0.332274 10.9231C0.23946 10.8726 0.160744 10.7997 0.103295 10.7111C0.0458448 10.6224 0.0114861 10.5208 0.00334723 10.4155C-0.00479164 10.3101 0.0135479 10.2044 0.0566958 10.108L1.00003 8.00133V5.32666L1.00336 5.15999C1.04897 3.86523 1.59536 2.63871 2.52743 1.73885C3.4595 0.838995 4.70446 0.335388 6.00003 0.335327Z" fill="currentColor"/>
</svg>
