<svg width="14" height="10" viewBox="0 0 14 10" fill="none" xmlns="http://www.w3.org/2000/svg">
<path d="M0.999913 8.33337H8.99991C9.16983 8.33356 9.33327 8.39863 9.45683 8.51527C9.58038 8.63192 9.65474 8.79134 9.66469 8.96097C9.67465 9.1306 9.61946 9.29763 9.5104 9.42793C9.40134 9.55823 9.24664 9.64197 9.07791 9.66204L8.99991 9.66671H0.999913C0.829993 9.66652 0.666558 9.60145 0.543 9.48481C0.419443 9.36816 0.345089 9.20874 0.335131 9.03911C0.325173 8.86948 0.380362 8.70245 0.489422 8.57215C0.598483 8.44185 0.753182 8.35811 0.921912 8.33804L0.999913 8.33337ZM0.999913 4.33337H12.9999C13.1698 4.33356 13.3333 4.39863 13.4568 4.51527C13.5804 4.63192 13.6547 4.79134 13.6647 4.96097C13.6747 5.1306 13.6195 5.29763 13.5104 5.42793C13.4013 5.55823 13.2466 5.64197 13.0779 5.66204L12.9999 5.66671H0.999913C0.829993 5.66652 0.666558 5.60145 0.543 5.48481C0.419443 5.36816 0.345089 5.20874 0.335131 5.03911C0.325173 4.86948 0.380362 4.70245 0.489422 4.57215C0.598483 4.44185 0.753182 4.35811 0.921912 4.33804L0.999913 4.33337ZM0.999913 0.333374H10.9999C11.1698 0.333562 11.3333 0.398627 11.4568 0.515273C11.5804 0.631919 11.6547 0.791343 11.6647 0.960971C11.6747 1.1306 11.6195 1.29763 11.5104 1.42793C11.4013 1.55823 11.2466 1.64197 11.0779 1.66204L10.9999 1.66671H0.999913C0.829993 1.66652 0.666558 1.60145 0.543 1.48481C0.419443 1.36816 0.345089 1.20874 0.335131 1.03911C0.325173 0.869483 0.380362 0.702455 0.489422 0.572152C0.598483 0.44185 0.753182 0.35811 0.921912 0.338041L0.999913 0.333374Z" fill="currentColor"/>
</svg>
