<svg width="13" height="14" viewBox="0 0 13 14" fill="none" xmlns="http://www.w3.org/2000/svg">
<path d="M9.33333 1.66671C9.15652 1.66671 8.98695 1.59647 8.86193 1.47145C8.7369 1.34642 8.66667 1.17685 8.66667 1.00004C8.66667 0.82323 8.7369 0.65366 8.86193 0.528636C8.98695 0.403612 9.15652 0.333374 9.33333 0.333374H12C12.1768 0.333374 12.3464 0.403612 12.4714 0.528636C12.5964 0.65366 12.6667 0.82323 12.6667 1.00004V3.66671C12.6667 3.84352 12.5964 4.01309 12.4714 4.13811C12.3464 4.26314 12.1768 4.33337 12 4.33337C11.8232 4.33337 11.6536 4.26314 11.5286 4.13811C11.4036 4.01309 11.3333 3.84352 11.3333 3.66671V2.60937L7.47133 6.47137C7.34631 6.59635 7.17678 6.66656 7 6.66656C6.82322 6.66656 6.65369 6.59635 6.52867 6.47137L4.66667 4.60937L1.138 8.13804C1.01227 8.25948 0.843864 8.32667 0.669066 8.32516C0.494268 8.32364 0.32706 8.25352 0.203454 8.12992C0.0798489 8.00631 0.00973628 7.83911 0.00821733 7.66431C0.00669839 7.48951 0.0738946 7.32111 0.195333 7.19537L4.19533 3.19537C4.32035 3.07039 4.48989 3.00018 4.66667 3.00018C4.84344 3.00018 5.01298 3.07039 5.138 3.19537L7 5.05737L10.3907 1.66671H9.33333ZM1.33333 11V13C1.33333 13.1769 1.2631 13.3464 1.13807 13.4714C1.01305 13.5965 0.843478 13.6667 0.666667 13.6667C0.489856 13.6667 0.320286 13.5965 0.195262 13.4714C0.0702379 13.3464 0 13.1769 0 13V11C0 10.8232 0.0702379 10.6537 0.195262 10.5286C0.320286 10.4036 0.489856 10.3334 0.666667 10.3334C0.843478 10.3334 1.01305 10.4036 1.13807 10.5286C1.2631 10.6537 1.33333 10.8232 1.33333 11ZM4.66667 8.33337C4.66667 8.15656 4.59643 7.98699 4.4714 7.86197C4.34638 7.73695 4.17681 7.66671 4 7.66671C3.82319 7.66671 3.65362 7.73695 3.5286 7.86197C3.40357 7.98699 3.33333 8.15656 3.33333 8.33337V13C3.33333 13.1769 3.40357 13.3464 3.5286 13.4714C3.65362 13.5965 3.82319 13.6667 4 13.6667C4.17681 13.6667 4.34638 13.5965 4.4714 13.4714C4.59643 13.3464 4.66667 13.1769 4.66667 13V8.33337ZM7.33333 9.00004C7.51014 9.00004 7.67971 9.07028 7.80474 9.1953C7.92976 9.32033 8 9.4899 8 9.66671V13C8 13.1769 7.92976 13.3464 7.80474 13.4714C7.67971 13.5965 7.51014 13.6667 7.33333 13.6667C7.15652 13.6667 6.98695 13.5965 6.86193 13.4714C6.73691 13.3464 6.66667 13.1769 6.66667 13V9.66671C6.66667 9.4899 6.73691 9.32033 6.86193 9.1953C6.98695 9.07028 7.15652 9.00004 7.33333 9.00004ZM11.3333 6.33337C11.3333 6.15656 11.2631 5.98699 11.1381 5.86197C11.013 5.73695 10.8435 5.66671 10.6667 5.66671C10.4899 5.66671 10.3203 5.73695 10.1953 5.86197C10.0702 5.98699 10 6.15656 10 6.33337V13C10 13.1769 10.0702 13.3464 10.1953 13.4714C10.3203 13.5965 10.4899 13.6667 10.6667 13.6667C10.8435 13.6667 11.013 13.5965 11.1381 13.4714C11.2631 13.3464 11.3333 13.1769 11.3333 13V6.33337Z" fill="currentColor"/>
</svg>
