<svg width="18" height="18" viewBox="0 0 18 18" fill="none" xmlns="http://www.w3.org/2000/svg">
<path d="M2 1C2 0.734784 1.89464 0.48043 1.70711 0.292893C1.51957 0.105357 1.26522 0 1 0C0.734784 0 0.48043 0.105357 0.292893 0.292893C0.105357 0.48043 0 0.734784 0 1V15C0 15.663 0.263392 16.2989 0.732233 16.7678C1.20107 17.2366 1.83696 17.5 2.5 17.5H16.5C16.7652 17.5 17.0196 17.3946 17.2071 17.2071C17.3946 17.0196 17.5 16.7652 17.5 16.5C17.5 16.2348 17.3946 15.9804 17.2071 15.7929C17.0196 15.6054 16.7652 15.5 16.5 15.5H2.5C2.36739 15.5 2.24021 15.4473 2.14645 15.3536C2.05268 15.2598 2 15.1326 2 15V1ZM10.75 3.75C10.75 3.48478 10.8554 3.23043 11.0429 3.04289C11.2304 2.85536 11.4848 2.75 11.75 2.75H16.252C16.5172 2.75 16.7716 2.85536 16.9591 3.04289C17.1466 3.23043 17.252 3.48478 17.252 3.75L17.25 8.25C17.25 8.51522 17.1446 8.76957 16.9571 8.95711C16.7696 9.14464 16.5152 9.25 16.25 9.25C15.9848 9.25 15.7304 9.14464 15.5429 8.95711C15.3554 8.76957 15.25 8.51522 15.25 8.25V6.164L10.707 10.707C10.5195 10.8945 10.2652 10.9998 10 10.9998C9.73484 10.9998 9.48053 10.8945 9.293 10.707L7.5 8.914L4.957 11.457C4.7684 11.6392 4.5158 11.74 4.2536 11.7377C3.9914 11.7354 3.74059 11.6302 3.55518 11.4448C3.36977 11.2594 3.2646 11.0086 3.26233 10.7464C3.26005 10.4842 3.36084 10.2316 3.543 10.043L6.793 6.793C6.98053 6.60553 7.23484 6.50021 7.5 6.50021C7.76516 6.50021 8.01947 6.60553 8.207 6.793L10 8.586L13.836 4.75H11.75C11.4848 4.75 11.2304 4.64464 11.0429 4.45711C10.8554 4.26957 10.75 4.01522 10.75 3.75Z" fill="currentColor"/>
</svg>
