<svg width="14" height="12" viewBox="0 0 14 12" fill="none" xmlns="http://www.w3.org/2000/svg">
<path d="M9.6667 2C9.6667 1.59085 9.79218 1.19155 10.0262 0.855959C10.2603 0.520364 10.5916 0.26462 10.9755 0.123226C11.3595 -0.0181681 11.7775 -0.0384098 12.1733 0.0652313C12.5691 0.168872 12.9236 0.39141 13.189 0.702825C13.4543 1.01424 13.6178 1.39955 13.6573 1.80678C13.6969 2.21401 13.6106 2.62356 13.41 2.9802C13.2095 3.33684 12.9044 3.62339 12.536 3.80122C12.1675 3.97905 11.7533 4.03958 11.3494 3.97466L9.9907 6.21333C10.2772 6.63533 10.3917 7.15086 10.3106 7.65445C10.2296 8.15805 9.95923 8.61166 9.5548 8.92249C9.15038 9.23332 8.64248 9.37789 8.13499 9.32661C7.6275 9.27534 7.15878 9.03211 6.8247 8.64666L4.3307 9.89333C4.35641 10.3789 4.20433 10.8572 3.90291 11.2388C3.6015 11.6204 3.17139 11.8791 2.69305 11.9665C2.21471 12.0539 1.72091 11.9641 1.30401 11.7138C0.887118 11.4635 0.575692 11.0699 0.427992 10.6066C0.280291 10.1433 0.306433 9.64205 0.501528 9.19664C0.696624 8.75123 1.04731 8.39216 1.48798 8.18659C1.92865 7.98101 2.42912 7.94303 2.89577 8.07973C3.36242 8.21644 3.76328 8.51847 4.02337 8.92933L6.37737 7.75266C6.29826 7.38424 6.32484 7.00097 6.45404 6.64699C6.58325 6.29302 6.80983 5.98275 7.10768 5.75193C7.40553 5.5211 7.76252 5.37912 8.13754 5.34233C8.51256 5.30555 8.89034 5.37545 9.22737 5.544L10.426 3.56866C10.1891 3.3816 9.9977 3.14325 9.86618 2.87155C9.73466 2.59985 9.66646 2.30186 9.6667 2Z" fill="currentColor"/>
</svg>
