<svg width="20" height="20" viewBox="0 0 20 20" fill="none" xmlns="http://www.w3.org/2000/svg">
<path d="M10.0122 0.25C10.7462 0.258 11.4772 0.343 12.1942 0.503C12.3468 0.53705 12.4848 0.617903 12.5892 0.734261C12.6935 0.850618 12.7589 0.996668 12.7762 1.152L12.9462 2.679C12.9702 2.89428 13.0444 3.10093 13.1629 3.28231C13.2813 3.46368 13.4406 3.61473 13.6281 3.72329C13.8155 3.83185 14.0259 3.89489 14.2421 3.90735C14.4584 3.9198 14.6745 3.88132 14.8732 3.795L16.2742 3.18C16.4165 3.11735 16.5747 3.10044 16.7269 3.13161C16.8792 3.16278 17.018 3.24049 17.1242 3.354C18.1362 4.43509 18.8897 5.73161 19.3282 7.146C19.3742 7.29464 19.3728 7.45389 19.3243 7.60171C19.2757 7.74953 19.1824 7.87858 19.0572 7.971L17.8152 8.887C17.6406 9.0153 17.4985 9.1829 17.4007 9.37625C17.3028 9.56961 17.2518 9.78328 17.2518 10C17.2518 10.2167 17.3028 10.4304 17.4007 10.6237C17.4985 10.8171 17.6406 10.9847 17.8152 11.113L19.0582 12.028C19.1838 12.1204 19.2774 12.2495 19.3262 12.3976C19.3749 12.5456 19.3763 12.7051 19.3302 12.854C18.8916 14.2683 18.138 15.5648 17.1262 16.646C17.0203 16.7593 16.8819 16.8369 16.73 16.8682C16.5782 16.8996 16.4203 16.8831 16.2782 16.821L14.8712 16.204C14.6728 16.117 14.4567 16.0779 14.2404 16.09C14.0241 16.102 13.8136 16.1648 13.6261 16.2733C13.4386 16.3817 13.2792 16.5328 13.1609 16.7143C13.0426 16.8958 12.9687 17.1026 12.9452 17.318L12.7762 18.844C12.7592 18.9976 12.6951 19.1423 12.5927 19.2581C12.4903 19.3739 12.3546 19.4553 12.2042 19.491C10.7558 19.8356 9.24667 19.8356 7.79822 19.491C7.64782 19.4553 7.51214 19.3739 7.40975 19.2581C7.30736 19.1423 7.24326 18.9976 7.22622 18.844L7.05822 17.32C7.03372 17.1052 6.95916 16.8991 6.84053 16.7183C6.72191 16.5376 6.56252 16.3872 6.37519 16.2792C6.18786 16.1712 5.97782 16.1087 5.76194 16.0967C5.54606 16.0847 5.33037 16.1235 5.13222 16.21L3.72622 16.826C3.58399 16.8883 3.42594 16.9049 3.27387 16.8736C3.1218 16.8422 2.98321 16.7645 2.87722 16.651C1.86492 15.5686 1.11135 14.2707 0.673216 12.855C0.627112 12.7061 0.628532 12.5466 0.677278 12.3986C0.726025 12.2505 0.819676 12.1214 0.945215 12.029L2.18822 11.113C2.36306 10.9848 2.50525 10.8173 2.60327 10.6239C2.70128 10.4305 2.75235 10.2168 2.75235 10C2.75235 9.78321 2.70128 9.56947 2.60327 9.3761C2.50525 9.18273 2.36306 9.01517 2.18822 8.887L0.945215 7.973C0.819853 7.88052 0.726401 7.75129 0.677836 7.60327C0.629272 7.45525 0.628007 7.29577 0.674216 7.147C1.11274 5.73262 1.8663 4.43611 2.87822 3.355C2.9844 3.24149 3.12323 3.16378 3.2755 3.13261C3.42777 3.10144 3.58597 3.11835 3.72822 3.181L5.12822 3.796C5.32723 3.88227 5.54371 3.92066 5.76026 3.90809C5.97681 3.89551 6.18739 3.83232 6.37509 3.7236C6.56278 3.61487 6.72236 3.46363 6.841 3.28204C6.95964 3.10045 7.03404 2.89356 7.05822 2.678L7.22822 1.152C7.24537 0.996355 7.31082 0.849984 7.41537 0.733414C7.51993 0.616845 7.65835 0.535924 7.81122 0.502C8.52822 0.343 9.26122 0.259 10.0122 0.25ZM10.0002 7C9.20457 7 8.4415 7.31607 7.87889 7.87868C7.31629 8.44129 7.00022 9.20435 7.00022 10C7.00022 10.7956 7.31629 11.5587 7.87889 12.1213C8.4415 12.6839 9.20457 13 10.0002 13C10.7959 13 11.5589 12.6839 12.1215 12.1213C12.6841 11.5587 13.0002 10.7956 13.0002 10C13.0002 9.20435 12.6841 8.44129 12.1215 7.87868C11.5589 7.31607 10.7959 7 10.0002 7Z" fill="currentColor"/>
</svg>
