<svg width="20" height="20" viewBox="0 0 20 20" fill="none" xmlns="http://www.w3.org/2000/svg">
<path d="M6.90386 14.5H13.0959C12.4759 17.773 11.2339 20 9.99986 20C8.80286 20 7.59986 17.906 6.96186 14.796L6.90386 14.502V14.5ZM1.06586 14.501H5.36986C5.73486 16.583 6.35286 18.355 7.16286 19.594C4.62039 18.8394 2.48031 17.1085 1.21086 14.78L1.06586 14.501ZM14.6289 14.501H18.9339C18.3181 15.7204 17.4596 16.8012 16.4112 17.677C15.3628 18.5528 14.1464 19.2051 12.8369 19.594C13.5919 18.436 14.1809 16.816 14.5519 14.913L14.6289 14.501ZM14.9309 8.00095H19.8009C20.1381 9.66263 20.0497 11.3826 19.5439 13.001H14.8399C14.9935 11.5584 15.037 10.1062 14.9699 8.65695L14.9299 7.99995L14.9309 8.00095ZM0.197862 7.99995H5.06786C4.96358 9.47191 4.97495 10.9498 5.10186 12.42L5.15886 13H0.455862C-0.0506828 11.3818 -0.139439 9.66169 0.197862 7.99995ZM6.57486 7.99995H13.4249C13.5391 9.4733 13.5267 10.9537 13.3879 12.425L13.3259 13H6.67386C6.49903 11.5026 6.45487 9.99293 6.54186 8.48795L6.57486 7.99995ZM12.9449 0.575953L12.8359 0.405953C14.3223 0.847205 15.6862 1.62718 16.8203 2.68458C17.9544 3.74197 18.8278 5.04798 19.3719 6.49995H14.7799C14.4639 4.08395 13.8239 2.00795 12.9429 0.576953L12.9449 0.575953ZM7.04186 0.442953L7.16386 0.405953C6.28286 1.75695 5.62786 3.73595 5.27986 6.05995L5.21886 6.49995H0.627862C1.16445 5.06817 2.02134 3.77805 3.13302 2.72825C4.2447 1.67844 5.58173 0.896755 7.04186 0.442953ZM9.99986 0.00195312C11.3189 0.00195312 12.6459 2.54395 13.2139 6.18495L13.2609 6.49995H6.73886C7.27986 2.69095 8.64286 0.00195312 9.99986 0.00195312Z" fill="currentColor"/>
</svg>
