<svg width="14" height="14" viewBox="0 0 14 14" fill="none" xmlns="http://www.w3.org/2000/svg">
<path d="M8.29333 2.33333L11.6667 5.70667L5.04133 12.3333C4.85676 12.518 4.62719 12.6513 4.37533 12.72L0.964661 13.65C0.879654 13.6731 0.790063 13.6733 0.704955 13.6506C0.619847 13.6279 0.542243 13.5831 0.479995 13.5208C0.417747 13.4585 0.373065 13.3808 0.350471 13.2957C0.327877 13.2106 0.328172 13.121 0.351327 13.036L1.28133 9.62533C1.35006 9.37347 1.48334 9.1439 1.66799 8.95934L8.29199 2.33333H8.29333ZM13.02 0.980001C13.4673 1.42734 13.7186 2.03405 13.7186 2.66667C13.7186 3.29929 13.4673 3.906 13.02 4.35333L12.3733 5L8.99999 1.62667L9.64666 0.980001C10.094 0.532676 10.7007 0.281372 11.3333 0.281372C11.9659 0.281372 12.5727 0.532676 13.02 0.980001Z" fill="currentColor"/>
</svg>
