<svg width="15" height="15" viewBox="0 0 15 15" fill="none" xmlns="http://www.w3.org/2000/svg">
<path d="M8.2932 2.3333L11.6672 5.70664L11.0259 6.34797C10.3984 6.29583 9.76718 6.38103 9.17603 6.59765C8.58488 6.81427 8.04803 7.1571 7.60285 7.60228C7.15766 8.04747 6.81483 8.58432 6.59821 9.17547C6.38159 9.76662 6.29639 10.3979 6.34853 11.0253L5.04186 12.332C4.85711 12.5167 4.6273 12.65 4.3752 12.7186L0.965197 13.6486C0.880259 13.6716 0.790753 13.6718 0.705721 13.6492C0.620689 13.6265 0.543144 13.5818 0.480919 13.5196C0.418694 13.4574 0.373994 13.3798 0.351334 13.2948C0.328674 13.2097 0.328857 13.1202 0.351864 13.0353L1.2812 9.62464C1.34982 9.37253 1.48311 9.14272 1.66786 8.95797L8.2932 2.3333ZM13.0205 0.979969C13.4677 1.42739 13.7189 2.03407 13.7189 2.66664C13.7189 3.2992 13.4677 3.90588 13.0205 4.3533L12.3739 4.99997L8.99986 1.62664L9.64653 0.979969C9.86804 0.758376 10.131 0.582594 10.4205 0.462664C10.71 0.342734 11.0202 0.281006 11.3335 0.281006C11.6469 0.281006 11.9571 0.342734 12.2466 0.462664C12.536 0.582594 12.799 0.758376 13.0205 0.979969ZM8.51986 8.31597C8.56971 8.48837 8.58424 8.66907 8.56259 8.84722C8.54093 9.02538 8.48353 9.19732 8.39383 9.35276C8.30412 9.5082 8.18396 9.64393 8.04055 9.75182C7.89713 9.85971 7.73341 9.93754 7.5592 9.98064L7.16986 10.0766C7.10746 10.4759 7.10881 10.8825 7.17386 11.2813L7.53386 11.368C7.70958 11.4103 7.87486 11.4879 8.01966 11.5961C8.16446 11.7043 8.28575 11.8408 8.37616 11.9973C8.46657 12.1538 8.52422 12.327 8.5456 12.5065C8.56698 12.686 8.55165 12.8679 8.50053 13.0413L8.37586 13.4626C8.6692 13.72 9.00253 13.9286 9.3652 14.0766L9.69453 13.7313C9.81908 13.6003 9.96897 13.496 10.1351 13.4247C10.3012 13.3534 10.4801 13.3167 10.6609 13.3167C10.8416 13.3167 11.0205 13.3534 11.1866 13.4247C11.3528 13.496 11.5026 13.6003 11.6272 13.7313L11.9592 14.0813C12.3202 13.9345 12.6543 13.7288 12.9479 13.4726L12.8159 13.0153C12.7661 12.8429 12.7517 12.6622 12.7735 12.4841C12.7952 12.306 12.8527 12.1341 12.9424 11.9787C13.0322 11.8234 13.1524 11.6877 13.2958 11.5799C13.4393 11.4721 13.603 11.3943 13.7772 11.3513L14.1659 11.2553C14.2283 10.8558 14.227 10.449 14.1619 10.05L13.8019 9.9633C13.6261 9.92097 13.4609 9.84336 13.3161 9.73518C13.1713 9.627 13.05 9.49051 12.9596 9.334C12.8692 9.1775 12.8115 9.00424 12.7901 8.82476C12.7687 8.64529 12.7841 8.46334 12.8352 8.28997L12.9599 7.86997C12.6666 7.61133 12.3322 7.40337 11.9705 7.25463L11.6419 7.60064C11.5173 7.73175 11.3674 7.83616 11.2012 7.9075C11.035 7.97885 10.856 8.01564 10.6752 8.01564C10.4943 8.01564 10.3154 7.97885 10.1492 7.9075C9.98302 7.83616 9.83309 7.73175 9.70853 7.60064L9.37653 7.25064C9.01386 7.3973 8.68053 7.60397 8.38786 7.85863L8.51986 8.31597ZM10.6672 11.6666C10.1339 11.6666 9.70053 11.2186 9.70053 10.6666C9.70053 10.114 10.1339 9.66664 10.6672 9.66664C11.2005 9.66664 11.6339 10.114 11.6339 10.6666C11.6339 11.2186 11.2005 11.6666 10.6672 11.6666Z" fill="currentColor"/>
</svg>
