<svg width="14" height="13" viewBox="0 0 14 13" fill="none" xmlns="http://www.w3.org/2000/svg">
<path d="M8.28325 0.668701C8.54461 0.66868 8.80145 0.736951 9.0283 0.86675C9.25516 0.996548 9.44416 1.18337 9.57658 1.4087L10.1193 2.33337H11.4999C11.7844 2.33337 12.0662 2.38941 12.3291 2.4983C12.5919 2.60718 12.8308 2.76678 13.032 2.96797C13.2332 3.16916 13.3928 3.40802 13.5017 3.67089C13.6105 3.93376 13.6666 4.2155 13.6666 4.50003V10.8334C13.6666 11.1179 13.6105 11.3996 13.5017 11.6625C13.3928 11.9254 13.2332 12.1642 13.032 12.3654C12.8308 12.5666 12.5919 12.7262 12.3291 12.8351C12.0662 12.944 11.7844 13 11.4999 13H2.49992C1.92528 13 1.37418 12.7718 0.967854 12.3654C0.561525 11.9591 0.333252 11.408 0.333252 10.8334V4.50003C0.333252 3.9254 0.561525 3.3743 0.967854 2.96797C1.37418 2.56164 1.92528 2.33337 2.49992 2.33337H3.88658L4.46992 1.38403C4.60404 1.16551 4.79194 0.985022 5.01568 0.859791C5.23942 0.734559 5.49152 0.668769 5.74792 0.668701H8.28325ZM6.99992 4.33337C6.20427 4.33337 5.44121 4.64944 4.8786 5.21205C4.31599 5.77466 3.99992 6.53772 3.99992 7.33337C3.99992 8.12902 4.31599 8.89208 4.8786 9.45469C5.44121 10.0173 6.20427 10.3334 6.99992 10.3334C7.79557 10.3334 8.55863 10.0173 9.12124 9.45469C9.68385 8.89208 9.99992 8.12902 9.99992 7.33337C9.99992 6.53772 9.68385 5.77466 9.12124 5.21205C8.55863 4.64944 7.79557 4.33337 6.99992 4.33337ZM6.99992 5.33337C7.26256 5.33337 7.52263 5.3851 7.76529 5.48561C8.00794 5.58612 8.22842 5.73344 8.41413 5.91915C8.59985 6.10487 8.74717 6.32535 8.84768 6.568C8.94819 6.81065 8.99992 7.07072 8.99992 7.33337C8.99992 7.59601 8.94819 7.85608 8.84768 8.09873C8.74717 8.34139 8.59985 8.56186 8.41413 8.74758C8.22842 8.9333 8.00794 9.08062 7.76529 9.18113C7.52263 9.28164 7.26256 9.33337 6.99992 9.33337C6.46949 9.33337 5.96078 9.12265 5.5857 8.74758C5.21063 8.37251 4.99992 7.8638 4.99992 7.33337C4.99992 6.80293 5.21063 6.29423 5.5857 5.91915C5.96078 5.54408 6.46949 5.33337 6.99992 5.33337Z" fill="currentColor"/>
</svg>
