<svg width="13" height="13" viewBox="0 0 13 13" fill="none" xmlns="http://www.w3.org/2000/svg">
<path d="M5.66673 0.666687C6.59871 0.66665 7.51216 0.927096 8.30398 1.41864C9.09581 1.91017 9.73449 2.61324 10.148 3.44849C10.5614 4.28374 10.7332 5.21793 10.6439 6.14563C10.5547 7.07333 10.2079 7.95761 9.64273 8.69869L12.8047 11.862C12.9243 11.982 12.9937 12.143 12.9989 12.3123C13.0041 12.4816 12.9446 12.6465 12.8326 12.7735C12.7205 12.9006 12.5644 12.9802 12.3957 12.9963C12.2271 13.0123 12.0587 12.9636 11.9247 12.86L11.8621 12.8047L8.69873 9.64269C8.0674 10.1241 7.3305 10.4482 6.54902 10.5883C5.76754 10.7283 4.96395 10.6803 4.20473 10.4481C3.44551 10.2159 2.7525 9.80626 2.18303 9.25305C1.61357 8.69985 1.18402 8.01899 0.929947 7.26681C0.67587 6.51464 0.604563 5.71277 0.721925 4.92756C0.839288 4.14235 1.14195 3.39638 1.60486 2.75137C2.06777 2.10636 2.67762 1.58086 3.38396 1.21834C4.09029 0.855831 4.8728 0.666729 5.66673 0.666687ZM5.66673 2.00002C4.69427 2.00002 3.76164 2.38633 3.074 3.07396C2.38637 3.7616 2.00006 4.69423 2.00006 5.66669C2.00006 6.63915 2.38637 7.57178 3.074 8.25941C3.76164 8.94705 4.69427 9.33335 5.66673 9.33335C6.63919 9.33335 7.57182 8.94705 8.25945 8.25941C8.94709 7.57178 9.3334 6.63915 9.3334 5.66669C9.3334 4.69423 8.94709 3.7616 8.25945 3.07396C7.57182 2.38633 6.63919 2.00002 5.66673 2.00002Z" fill="currentColor"/>
</svg>
