<svg width="10" height="12" viewBox="0 0 10 12" fill="none" xmlns="http://www.w3.org/2000/svg">
<path d="M0.166748 1.33329C0.166748 1.15648 0.236986 0.986913 0.36201 0.861888C0.487035 0.736864 0.656604 0.666626 0.833415 0.666626H9.16675C9.34356 0.666626 9.51313 0.736864 9.63815 0.861888C9.76318 0.986913 9.83342 1.15648 9.83342 1.33329V2.66663C9.83342 2.84344 9.76318 3.01301 9.63815 3.13803C9.51313 3.26305 9.34356 3.33329 9.16675 3.33329C8.98994 3.33329 8.82037 3.26305 8.69534 3.13803C8.57032 3.01301 8.50008 2.84344 8.50008 2.66663V1.99996H5.66675V9.99996H6.33342C6.51023 9.99996 6.6798 10.0702 6.80482 10.1952C6.92984 10.3202 7.00008 10.4898 7.00008 10.6666C7.00008 10.8434 6.92984 11.013 6.80482 11.138C6.6798 11.2631 6.51023 11.3333 6.33342 11.3333H3.66675C3.48994 11.3333 3.32037 11.2631 3.19534 11.138C3.07032 11.013 3.00008 10.8434 3.00008 10.6666C3.00008 10.4898 3.07032 10.3202 3.19534 10.1952C3.32037 10.0702 3.48994 9.99996 3.66675 9.99996H4.33342V1.99996H1.50008V2.66663C1.50008 2.84344 1.42984 3.01301 1.30482 3.13803C1.17979 3.26305 1.01023 3.33329 0.833415 3.33329C0.656604 3.33329 0.487035 3.26305 0.36201 3.13803C0.236986 3.01301 0.166748 2.84344 0.166748 2.66663V1.33329Z" fill="currentColor"/>
</svg>
