<svg width="20" height="12" viewBox="0 0 20 12" fill="none" xmlns="http://www.w3.org/2000/svg">
<path d="M10.0001 4.005C11.061 4.005 12.0784 4.42643 12.8285 5.17657C13.5787 5.92672 14.0001 6.94413 14.0001 8.005C14.0001 9.06587 13.5787 10.0833 12.8285 10.8334C12.0784 11.5836 11.061 12.005 10.0001 12.005C8.93922 12.005 7.9218 11.5836 7.17166 10.8334C6.42151 10.0833 6.00008 9.06587 6.00008 8.005C6.00008 6.94413 6.42151 5.92672 7.17166 5.17657C7.9218 4.42643 8.93922 4.005 10.0001 4.005ZM10.0001 0.5C14.6131 0.5 18.5961 3.65 19.7011 8.064C19.7495 8.25695 19.7193 8.46122 19.6171 8.63187C19.5148 8.80253 19.349 8.9256 19.1561 8.974C18.9631 9.0224 18.7589 8.99217 18.5882 8.88997C18.4176 8.78776 18.2945 8.62194 18.2461 8.429C17.7838 6.59181 16.7213 4.9616 15.2271 3.79704C13.7328 2.63248 11.8925 2.00028 9.99802 2.00074C8.10357 2.0012 6.26353 2.6343 4.76986 3.79958C3.27619 4.96486 2.21444 6.59558 1.75308 8.433C1.70127 8.62193 1.5776 8.78309 1.4085 8.88201C1.23941 8.98094 1.03832 9.00977 0.848239 8.96235C0.65816 8.91493 0.49418 8.79501 0.391369 8.62825C0.288557 8.46149 0.255076 8.26113 0.298084 8.07C0.840358 5.90746 2.08954 3.98806 3.84729 2.61657C5.60504 1.24509 7.77059 0.500135 10.0001 0.5Z" fill="currentColor"/>
</svg>
