<svg width="13" height="13" viewBox="0 0 13 13" fill="none" xmlns="http://www.w3.org/2000/svg">
<path d="M10.6668 5.66667C10.6667 4.53861 10.2852 3.44372 9.58423 2.55989C8.88326 1.67606 7.90402 1.05524 6.80561 0.798301C5.7072 0.541362 4.55418 0.663405 3.53391 1.1446C2.51363 1.6258 1.68605 2.43787 1.18564 3.44886C0.685227 4.45985 0.541393 5.61035 0.777507 6.71342C1.01362 7.81649 1.61581 8.80731 2.48622 9.52488C3.35663 10.2424 4.44411 10.6446 5.57197 10.666C6.69982 10.6874 7.80177 10.3267 8.69875 9.64267L11.8621 12.8047L11.9248 12.86C12.0587 12.9636 12.2272 13.0123 12.3958 12.9963C12.5644 12.9802 12.7206 12.9006 12.8326 12.7735C12.9446 12.6465 13.0041 12.4816 12.9989 12.3123C12.9937 12.143 12.9243 11.982 12.8048 11.862L9.64275 8.69867C10.3085 7.82824 10.6684 6.76249 10.6668 5.66667ZM8.00009 5.00001C8.1769 5.00001 8.34647 5.07024 8.47149 5.19527C8.59652 5.32029 8.66675 5.48986 8.66675 5.66667C8.66675 5.84348 8.59652 6.01305 8.47149 6.13808C8.34647 6.2631 8.1769 6.33334 8.00009 6.33334H3.33342C3.15661 6.33334 2.98704 6.2631 2.86202 6.13808C2.73699 6.01305 2.66675 5.84348 2.66675 5.66667C2.66675 5.48986 2.73699 5.32029 2.86202 5.19527C2.98704 5.07024 3.15661 5.00001 3.33342 5.00001H8.00009Z" fill="currentColor"/>
</svg>
