<svg width="13" height="13" viewBox="0 0 13 13" fill="none" xmlns="http://www.w3.org/2000/svg">
<path d="M10.6668 5.66667C10.6668 6.80667 10.2854 7.85801 9.64275 8.69867L12.8048 11.862C12.9243 11.982 12.9937 12.143 12.9989 12.3123C13.0041 12.4816 12.9446 12.6465 12.8326 12.7735C12.7206 12.9006 12.5644 12.9802 12.3958 12.9963C12.2272 13.0123 12.0587 12.9636 11.9248 12.86L11.8621 12.8047L8.69875 9.64267C7.80177 10.3267 6.69982 10.6874 5.57197 10.666C4.44411 10.6446 3.35663 10.2424 2.48622 9.52488C1.61581 8.80731 1.01362 7.81649 0.777507 6.71342C0.541393 5.61035 0.685227 4.45985 1.18564 3.44886C1.68605 2.43787 2.51363 1.6258 3.53391 1.1446C4.55418 0.663405 5.7072 0.541362 6.80561 0.798301C7.90402 1.05524 8.88326 1.67606 9.58423 2.55989C10.2852 3.44372 10.6667 4.53861 10.6668 5.66667ZM5.66675 2.66667C5.48994 2.66667 5.32037 2.73691 5.19535 2.86194C5.07033 2.98696 5.00009 3.15653 5.00009 3.33334V5.00001H3.33342C3.15661 5.00001 2.98704 5.07024 2.86202 5.19527C2.73699 5.32029 2.66675 5.48986 2.66675 5.66667C2.66675 5.84348 2.73699 6.01305 2.86202 6.13808C2.98704 6.2631 3.15661 6.33334 3.33342 6.33334H5.00009V8.00001C5.00009 8.17682 5.07033 8.34639 5.19535 8.47141C5.32037 8.59644 5.48994 8.66667 5.66675 8.66667C5.84356 8.66667 6.01313 8.59644 6.13816 8.47141C6.26318 8.34639 6.33342 8.17682 6.33342 8.00001V6.33334H8.00009C8.1769 6.33334 8.34647 6.2631 8.47149 6.13808C8.59652 6.01305 8.66675 5.84348 8.66675 5.66667C8.66675 5.48986 8.59652 5.32029 8.47149 5.19527C8.34647 5.07024 8.1769 5.00001 8.00009 5.00001H6.33342V3.33334C6.33342 3.15653 6.26318 2.98696 6.13816 2.86194C6.01313 2.73691 5.84356 2.66667 5.66675 2.66667Z" fill="currentColor"/>
</svg>
