<svg xmlns="http://www.w3.org/2000/svg" xmlns:xlink="http://www.w3.org/1999/xlink"><symbol id="advantage-1-icon" viewBox="0 0 21 22"><g fill="currentColor">
<path fill-rule="evenodd" clip-rule="evenodd" d="M4.71094 6.62135C4.71094 3.27083 7.42708 0.554688 10.7776 0.554688C14.1281 0.554688 16.8443 3.27083 16.8443 6.62135C16.8443 9.97188 14.1281 12.688 10.7776 12.688C7.42708 12.688 4.71094 9.97188 4.71094 6.62135Z" fill="currentColor"/>
<path fill-rule="evenodd" clip-rule="evenodd" d="M4.07724 15.3307C5.72786 14.5429 7.93891 14.2886 10.7791 14.2886C13.6193 14.2886 15.8303 14.5429 17.4809 15.3307C19.2231 16.1622 20.2801 17.5566 20.8445 19.572C20.94 19.9131 20.8839 20.2842 20.6934 20.5719C20.5028 20.8595 20.2005 21.0293 19.8791 21.0293H1.67909C1.35765 21.0293 1.05536 20.8595 0.864804 20.5719C0.674249 20.2842 0.618132 19.9131 0.713641 19.572C1.27811 17.5566 2.33501 16.1622 4.07724 15.3307Z" fill="currentColor"/>
</g></symbol><symbol id="advantage-2-icon" viewBox="0 0 21 21"><g fill="currentColor">
<path fill-rule="evenodd" clip-rule="evenodd" d="M3.12435 0.21416C3.85509 0.0517599 4.72014 0 5.71075 0H14.5115C15.5021 0 16.3671 0.0517599 17.0979 0.21416C17.8401 0.379112 18.5042 0.67134 19.0276 1.19466C19.5509 1.71798 19.8431 2.38214 20.0081 3.12435C20.1705 3.85509 20.2222 4.72014 20.2222 5.71076V10.467C20.2222 11.4576 20.1705 12.3227 20.0081 13.0534C19.8431 13.7956 19.5509 14.4598 19.0276 14.9831C18.5042 15.5064 17.8401 15.7987 17.0979 15.9636C16.3671 16.126 15.5021 16.1778 14.5115 16.1778H12.1333L13.9533 18.6044C14.2884 19.0512 14.1978 19.6849 13.7511 20.02C13.3044 20.3551 12.6706 20.2645 12.3356 19.8178L10.1111 16.8519L7.88667 19.8178C7.55161 20.2645 6.91785 20.3551 6.47111 20.02C6.02437 19.6849 5.93384 19.0512 6.26889 18.6044L8.08889 16.1778H5.71075C4.72014 16.1778 3.85509 16.126 3.12435 15.9636C2.38214 15.7987 1.71798 15.5064 1.19466 14.9831C0.67134 14.4598 0.379112 13.7956 0.21416 13.0534C0.0517599 12.3227 0 11.4576 0 10.467V5.71076C0 4.72014 0.0517599 3.85509 0.21416 3.12435C0.379112 2.38214 0.67134 1.71798 1.19466 1.19466C1.71798 0.67134 2.38214 0.379112 3.12435 0.21416ZM11.1222 5.05556C11.1222 4.49713 10.6695 4.04444 10.1111 4.04444C9.55269 4.04444 9.1 4.49713 9.1 5.05556L9.1 11.1222C9.1 11.6806 9.55269 12.1333 10.1111 12.1333C10.6695 12.1333 11.1222 11.6806 11.1222 11.1222L11.1222 5.05556ZM14.1556 5.05556C14.714 5.05556 15.1667 5.50825 15.1667 6.06667L15.1667 11.1222C15.1667 11.6806 14.714 12.1333 14.1556 12.1333C13.5971 12.1333 13.1444 11.6806 13.1444 11.1222L13.1444 6.06667C13.1444 5.50825 13.5971 5.05556 14.1556 5.05556ZM7.07778 7.07778C7.07778 6.51936 6.62509 6.06667 6.06667 6.06667C5.50824 6.06667 5.05556 6.51936 5.05556 7.07778L5.05555 11.1222C5.05555 11.6806 5.50824 12.1333 6.06667 12.1333C6.62509 12.1333 7.07778 11.6806 7.07778 11.1222L7.07778 7.07778Z" fill="currentColor"/>
</g></symbol><symbol id="advantage-3-icon" viewBox="0 0 21 21"><g fill="currentColor">
<path fill-rule="evenodd" clip-rule="evenodd" d="M0.779297 7.30029C0.779297 3.57507 3.79919 0.555176 7.52441 0.555176C11.2496 0.555176 14.2695 3.57507 14.2695 7.30029C14.2695 11.0255 11.2496 14.0454 7.52441 14.0454C3.79919 14.0454 0.779297 11.0255 0.779297 7.30029Z" fill="currentColor"/>
<path d="M2.65045 13.474C2.30564 13.2011 1.76624 13.3507 1.6596 13.7772L0.959657 16.577C0.241932 19.4479 3.30573 21.7852 5.88495 20.3344L6.97823 19.7194C7.32045 19.5269 7.7383 19.5269 8.08052 19.7194L9.1738 20.3344C11.753 21.7852 14.8168 19.4479 14.0991 16.577L13.3992 13.7772C13.2925 13.3507 12.7531 13.2011 12.4083 13.474C11.0672 14.5351 9.37227 15.1686 7.52938 15.1686C5.68648 15.1686 3.99154 14.5351 2.65045 13.474Z" fill="currentColor"/>
</g></symbol><symbol id="arrow-down" viewBox="0 0 8 5"><g fill="none">
<path d="M1 1L4 4L7 1" stroke="currentColor" stroke-width="1" stroke-linecap="round" stroke-linejoin="round"/>
</g></symbol><symbol id="burger-button" viewBox="0 0 22 12"><g fill="none">
<rect width="22" height="2" rx="1" fill="#171716"/>
<rect y="5" width="22" height="2" rx="1" fill="#171716"/>
<rect x="10" y="10" width="12" height="2" rx="1" fill="#171716"/>
</g></symbol><symbol id="checkbox-icon" viewBox="0 0 9 7"><g fill="none">
<path d="M1 3.5L3.875 6.5L8 1" stroke="#FAFAFA" stroke-linecap="round" stroke-linejoin="round"/>
</g></symbol><symbol id="footer-logo" viewBox="0 0 1800 1945"><g fill="none">
<rect x="808.585" y="1944.88" width="377.339" height="161.717" transform="rotate(-90 808.585 1944.88)" fill="currentColor"/>
<mask id="mask0_551_818" style="mask-type:alpha" maskUnits="userSpaceOnUse" x="0" y="-154" width="1800" height="1728">
<rect y="444.948" width="673.819" height="1266.78" transform="rotate(-26.999 0 444.948)" fill="currentColor"/>
<rect x="599.654" y="890.399" width="673.819" height="1266.78" transform="rotate(-108.7 599.654 890.399)" fill="currentColor"/>
</mask>
<g mask="url(#mask0_551_818)">
<circle cx="889.434" cy="732.098" r="498.626" stroke="currentColor" stroke-width="134.764"/>
</g>
</g></symbol><symbol id="header-logo" viewBox="0 0 1800 1945"><g fill="none">
<rect x="808.585" y="1944.88" width="377.339" height="161.717" transform="rotate(-90 808.585 1944.88)" fill="#1D5CBB"/>
<mask id="mask0_551_818" style="mask-type:alpha" maskUnits="userSpaceOnUse" x="0" y="-154" width="1800" height="1728">
<rect y="444.948" width="673.819" height="1266.78" transform="rotate(-26.999 0 444.948)" fill="#C4C4C4"/>
<rect x="599.654" y="890.399" width="673.819" height="1266.78" transform="rotate(-108.7 599.654 890.399)" fill="#C4C4C4"/>
</mask>
<g mask="url(#mask0_551_818)">
<circle cx="889.434" cy="732.098" r="498.626" stroke="#1D5CBB" stroke-width="134.764"/>
</g>
</g></symbol><symbol id="icon-close" viewBox="0 0 23 24"><g fill="none">
<path d="M5.65723 17.5566L16.9709 6.24293" stroke="currentColor" stroke-width="2" stroke-linecap="round" stroke-linejoin="round"/>
<path d="M5.65723 6.24219L16.9709 17.5559" stroke="currentColor" stroke-width="2" stroke-linecap="round" stroke-linejoin="round"/>
</g></symbol><symbol id="search-icon" viewBox="0 0 16 16"><g fill="none">
<path d="M10.334 10.3343L15.0009 15.0012" stroke="#AFAFAF" stroke-width="1.3" stroke-linecap="round" stroke-linejoin="round"/>
<path d="M11.8896 6.44479C11.8896 9.45187 9.45187 11.8896 6.44479 11.8896C3.43772 11.8896 1 9.45187 1 6.44479C1 3.43772 3.43772 1 6.44479 1C9.45187 1 11.8896 3.43772 11.8896 6.44479Z" stroke="#AFAFAF" stroke-width="1.3"/>
</g></symbol><symbol id="star-6" viewBox="0 0 16 16"><g fill="none">
<path d="M8.11176 0L10.2125 5.67707L15.8895 7.77778L10.2125 9.87848L8.11176 15.5556L6.01106 9.87848L0.333984 7.77778L6.01106 5.67707L8.11176 0Z" fill="currentColor"/>
</g></symbol></svg>