<svg width="24" height="24" viewBox="0 0 24 24" fill="none" xmlns="http://www.w3.org/2000/svg">
<rect width="24" height="24" rx="4" fill="white"/>
<path d="M6.02397 13.9966C6.02397 13.7002 5.81026 13.5248 5.43931 13.5248C5.29818 13.5248 5.15303 13.5289 5.01191 13.5349V14.4643C5.17319 14.4683 5.32238 14.4744 5.43931 14.4744C5.81026 14.4724 6.02397 14.293 6.02397 13.9966ZM6.84047 14.049C6.84047 14.7002 6.32033 15.0752 5.43528 15.0752C5.16312 15.0752 4.60467 15.055 4.22363 15.0268V11.5249H6.4796V12.1277H5.00989V12.9301C5.15101 12.9261 5.29214 12.92 5.43327 12.92C6.32033 12.922 6.84047 13.3353 6.84047 14.049Z" fill="#62A830"/>
<path d="M10.9653 14.4239H10.1588C10.2233 14.305 10.2798 14.182 10.3302 14.057C10.3947 13.8997 10.4512 13.7223 10.4935 13.5389C10.5237 13.3856 10.5419 13.2284 10.556 13.0752H10.9653V14.4239V14.4239ZM12.0741 14.4239H11.7193V12.5167H9.92497C9.93706 12.7183 9.92901 12.9179 9.90683 13.0994C9.85038 13.5631 9.72336 14.0368 9.44716 14.4219C9.29797 14.4219 9.16895 14.4279 9.16895 14.4279V15.563C9.16895 15.563 9.56006 15.5892 9.85037 15.5993L9.88666 14.9803H11.3544L11.3906 15.5993C11.681 15.5872 12.0721 15.563 12.0721 15.563V14.4239H12.0741Z" fill="#62A830"/>
<path d="M13.4205 14.561H13.1866V13.8453C13.2592 13.8413 13.3318 13.8413 13.4064 13.8413C13.6685 13.8413 13.8237 13.9763 13.8237 14.2021C13.8237 14.4239 13.6745 14.561 13.4205 14.561ZM13.4064 13.3191C13.3338 13.3191 13.2612 13.3191 13.1866 13.3231V12.5167C12.9024 12.5167 12.4326 12.553 12.4326 12.553V15.0247C12.7149 15.0549 13.0838 15.0731 13.4205 15.0731C14.1443 15.0731 14.5737 14.7465 14.5737 14.1981C14.5737 13.6518 14.1463 13.3191 13.4064 13.3191Z" fill="#62A830"/>
<path d="M8.61703 12.5087L8.29043 13.6619L8.0485 14.43C8.0485 14.43 7.88923 13.7788 7.79447 13.4361C7.71585 13.1518 7.63319 12.8091 7.54247 12.5308C7.32272 12.4885 7.06466 12.5107 6.77637 12.5954L7.51626 14.9602L7.79045 15.0025C7.76222 15.1033 7.71182 15.2626 7.65134 15.3574C7.58884 15.4541 7.50215 15.5388 7.40941 15.6053C7.3328 15.6577 7.25215 15.694 7.17756 15.7041L7.484 16.186C7.8348 16.1376 8.18963 15.7868 8.36906 15.2807L9.32265 12.6216L8.61703 12.5087Z" fill="#62A830"/>
<path d="M5.04476 16.5691C5.59514 16.5691 5.91972 16.807 5.91972 17.2304C5.91972 17.4824 5.75038 17.688 5.45805 17.7646C5.84311 17.8231 6.0669 18.0509 6.0669 18.3815C6.0669 18.8493 5.65764 19.1255 4.96815 19.1255C4.63751 19.1255 4.2968 19.0287 3.98633 18.7646L4.24841 18.3311C4.44397 18.5025 4.68589 18.5589 4.89556 18.5589C5.15361 18.5589 5.30482 18.4622 5.30482 18.3009C5.30482 18.1356 5.17378 18.0428 4.95403 18.0428H4.61332V17.5711H4.86533C5.04475 17.5711 5.15766 17.4924 5.15766 17.3513C5.15766 17.2102 5.04677 17.1275 4.84718 17.1275C4.7121 17.1275 4.49235 17.1618 4.31695 17.2727L4.12342 16.811C4.42381 16.6417 4.75848 16.5691 5.04476 16.5691Z" fill="#62A830"/>
<path d="M11.2475 17.8473C11.2475 17.4199 11.0439 17.1618 10.7031 17.1618C10.3624 17.1618 10.1588 17.4199 10.1588 17.8473C10.1588 18.2747 10.3624 18.5287 10.7031 18.5287C11.0418 18.5287 11.2475 18.2767 11.2475 17.8473ZM9.38867 17.8473C9.38867 17.0449 9.87051 16.5691 10.6971 16.5691C11.5237 16.5691 12.0095 17.0449 12.0095 17.8473C12.0095 18.6497 11.5237 19.1275 10.6971 19.1275C9.87051 19.1275 9.38867 18.6497 9.38867 17.8473Z" fill="#62A830"/>
<path d="M16.9574 17.8473C16.9574 17.4199 16.7538 17.1618 16.4131 17.1618C16.0724 17.1618 15.8688 17.4199 15.8688 17.8473C15.8688 18.2747 16.0724 18.5287 16.4131 18.5287C16.7538 18.5287 16.9574 18.2767 16.9574 17.8473ZM15.0986 17.8473C15.0986 17.0449 15.5805 16.5691 16.4071 16.5691C17.2336 16.5691 17.7195 17.0449 17.7195 17.8473C17.7195 18.6497 17.2336 19.1275 16.4071 19.1275C15.5805 19.1275 15.0986 18.6497 15.0986 17.8473Z" fill="#62A830"/>
<path d="M19.5201 18.2908C19.5201 18.1154 19.385 18.0086 19.1693 18.0086H18.8104V18.5771C18.9213 18.5811 19.0383 18.5811 19.1693 18.5811C19.385 18.5831 19.5201 18.4702 19.5201 18.2908ZM18.8104 17.1134V17.6437H19.1068C19.3165 17.6437 19.4374 17.5368 19.4374 17.3755C19.4374 17.2203 19.3165 17.1134 19.1068 17.1134H18.8104V17.1134ZM20.266 18.3594C20.266 18.8412 19.8568 19.1275 19.1612 19.1275C18.6895 19.1275 18.3306 19.1073 18.0625 19.0791V16.6175C18.3145 16.5893 18.6613 16.5691 19.0987 16.5691C19.7802 16.5691 20.1733 16.8413 20.1733 17.309C20.1733 17.5328 20.0523 17.7021 19.8225 17.815C20.1088 17.9158 20.266 18.1053 20.266 18.3594Z" fill="#62A830"/>
<path d="M8.11564 18.4763H7.30921C7.37373 18.3573 7.43017 18.2344 7.48057 18.1094C7.54509 17.9521 7.60154 17.7747 7.64387 17.5912C7.67412 17.438 7.69226 17.2808 7.70637 17.1275H8.11564V18.4763V18.4763ZM9.22447 18.4763H8.86964V16.5691H7.07536C7.08745 16.7707 7.07938 16.9703 7.05721 17.1517C7.00076 17.6154 6.87374 18.0892 6.59754 18.4743C6.44835 18.4743 6.3274 18.4763 6.31934 18.4803V19.6154C6.31934 19.6154 6.71044 19.6416 7.00075 19.6516L7.03705 19.0327H8.50473L8.54102 19.6516C8.83133 19.6416 9.22245 19.6154 9.22245 19.6154V18.4763H9.22447Z" fill="#62A830"/>
<path d="M13.4028 18.579C13.3201 18.579 13.2233 18.579 13.1104 18.575V17.4904C13.1104 17.4904 13.1407 17.448 13.2012 17.3936C13.308 17.3008 13.4592 17.2525 13.5621 17.2363C13.8645 17.196 13.9975 17.4137 14.0197 17.4682C14.0519 17.5569 14.0681 17.6617 14.0681 17.7827C14.0681 18.2867 13.8161 18.579 13.4028 18.579ZM13.8887 16.5791C13.6024 16.5791 13.3181 16.6698 13.1104 16.9359V16.6295C12.8262 16.6295 12.3564 16.6658 12.3564 16.6658V20.1435C12.3564 20.1435 12.798 20.1717 13.1104 20.1818V19.1274C13.2516 19.1314 13.3826 19.1375 13.4754 19.1375C14.3261 19.1375 14.8322 18.6375 14.8322 17.7807C14.8322 17.0267 14.4572 16.5791 13.8887 16.5791Z" fill="#62A830"/>
<path d="M7.59275 5.45458C7.00608 4.19051 5.75209 3.52522 4.79446 3.96875C3.83482 4.4143 3.53443 5.79933 4.12111 7.06541C4.98801 8.93228 7.25607 10.3939 7.68347 10.1963C8.11088 9.99877 8.45965 7.32347 7.59275 5.45458Z" fill="#E2241D"/>
<path d="M11.0403 7.04522C11.6189 5.77712 11.3105 4.39209 10.3488 3.95259C9.38715 3.51309 8.13921 4.18645 7.55858 5.45455C6.70378 7.32746 7.06868 10.0008 7.49609 10.1963C7.92551 10.3939 10.1855 8.91813 11.0403 7.04522Z" fill="#62A830"/>
</svg>
