<svg width="24" height="24" viewBox="0 0 24 24" fill="none" xmlns="http://www.w3.org/2000/svg">
<rect width="24" height="24" rx="4" fill="white"/>
<path d="M15.5081 17.9286L15.1716 16.3844C15.0936 16.0219 14.9335 15.9288 14.6846 15.9288C14.4357 15.9288 14.2744 16.0219 14.1965 16.3844L13.8589 17.9286C13.6727 18.789 13.3513 19.0898 12.7031 19.0898V18.9957C12.8178 18.9654 12.9261 18.7619 13.1447 17.9027L13.5277 16.3692C13.6782 15.773 14.019 15.3888 14.6835 15.3888C15.3479 15.3888 15.6878 15.773 15.8382 16.3692L16.2213 17.9027C16.4388 18.7619 16.5492 18.9643 16.6617 18.9957V19.0898C16.0146 19.0898 15.6921 18.789 15.5059 17.9286" fill="#00A651"/>
<path d="M4.79172 15.9353H4.15973V17.1722H4.79172C5.11854 17.1722 5.40315 16.9395 5.40315 16.5618C5.40315 16.1842 5.11854 15.9353 4.79172 15.9353ZM4.16082 17.9394C4.16082 18.908 3.92058 19.092 3.27344 19.0898V18.9956C3.39248 18.9675 3.48554 18.9134 3.48554 17.9016V16.3487C3.48554 15.6388 3.43901 15.5197 3.27777 15.4883V15.3953H4.94106C5.59469 15.3953 6.09249 15.8963 6.09249 16.5597C6.09249 17.223 5.59469 17.71 4.94106 17.71H4.15973V17.9384L4.16082 17.9394Z" fill="#00A651"/>
<path d="M19.8211 17.9286L19.7594 17.6646H18.1535L18.0907 17.9286C17.8884 18.789 17.6092 19.0898 16.9609 19.0898V18.9957C17.0756 18.9654 17.1882 18.7619 17.4014 17.9027L17.7856 16.3692C17.9403 15.7416 18.3028 15.3888 18.9565 15.3888C19.6101 15.3888 19.9715 15.7416 20.1274 16.3692L20.5105 17.9027C20.7226 18.7619 20.8373 18.9654 20.9509 18.9957V19.0898C20.3027 19.0898 20.0235 18.7879 19.8211 17.9286M19.4835 16.4255C19.3904 16.0219 19.2346 15.9288 18.9554 15.9288C18.6762 15.9288 18.5193 16.0219 18.4262 16.4255L18.266 17.1354H19.6447L19.4835 16.4255V16.4255Z" fill="#00A651"/>
<path d="M6.59267 16.3454C6.59267 15.6355 6.57428 15.5349 6.39355 15.4872V15.3942H7.23981V17.696L7.28202 17.7219L9.68119 15.3065H9.77425V17.9026C9.77425 18.9145 9.8684 18.9675 9.98636 18.9967V19.0898C9.36628 19.0963 9.12712 18.922 9.12712 17.9448V16.7014L9.08491 16.6755L6.68574 19.0909H6.59267V16.3465V16.3454Z" fill="#00A651"/>
<path d="M10.2998 15.3964H13.0106V16.1658H12.9143C12.8829 15.9851 12.6903 15.9526 12.028 15.9526H11.2142V17.8918C11.2142 18.8907 10.9675 19.0931 10.3009 19.0909V18.9935C10.4221 18.9654 10.5173 18.9091 10.5173 17.8659V16.3833C10.5173 15.6518 10.4654 15.5295 10.2998 15.497V15.3964V15.3964Z" fill="#00A651"/>
<path d="M11.0607 14.1194C10.749 14.1194 10.4341 14.0296 10.1571 13.8424L10.1441 13.8326C9.84539 13.6097 9.75448 13.3662 9.67981 13.1703C9.61488 12.9994 9.57268 12.8879 9.3952 12.758C9.21773 12.6303 9.09869 12.6239 8.91797 12.6163C8.70803 12.6065 8.44831 12.5946 8.1453 12.3782L8.13231 12.3685C7.54145 11.9064 7.3564 11.1142 7.64317 10.4509C6.98413 10.0948 6.64649 9.32215 6.85752 8.58195L6.86184 8.56572C6.98196 8.21401 7.18433 8.05169 7.34882 7.92074C7.49058 7.8082 7.58582 7.73136 7.65183 7.52359C7.71892 7.31581 7.68754 7.19894 7.63992 7.02362C7.58473 6.82126 7.51656 6.5702 7.62586 6.21524L7.63127 6.19901C7.88882 5.49452 8.58574 5.07464 9.30322 5.14065C9.43849 4.41127 10.0683 3.84746 10.8399 3.81932H10.8475L10.8551 3.81824C11.2273 3.82257 11.4448 3.96541 11.6201 4.0812C11.7716 4.18076 11.8712 4.24569 12.0909 4.24569C12.3106 4.24569 12.4101 4.17968 12.5627 4.0812C12.738 3.96541 12.9545 3.82257 13.3278 3.81824H13.344C14.094 3.84637 14.7087 4.37772 14.8667 5.08221C15.6069 4.98373 16.3352 5.40903 16.5992 6.133L16.6035 6.14815C16.7139 6.5031 16.6457 6.75525 16.5906 6.95653C16.5419 7.13184 16.5105 7.24872 16.5786 7.45649C16.6457 7.66535 16.7399 7.73894 16.8817 7.85365C17.044 7.98351 17.2474 8.14692 17.3676 8.4997L17.3719 8.51485C17.5764 9.23558 17.2615 9.98552 16.6403 10.3535C16.9628 11.0287 16.7832 11.8512 16.1761 12.3263L16.1631 12.336C15.859 12.5513 15.5993 12.5643 15.3893 12.5741C15.2086 12.5816 15.0885 12.5881 14.9121 12.7169C14.7346 12.8457 14.6913 12.9582 14.6275 13.1281C14.5539 13.324 14.4608 13.5675 14.1632 13.7894L14.1503 13.7991C13.528 14.2179 12.7175 14.1508 12.1764 13.6725C11.8669 13.9679 11.4643 14.1216 11.0574 14.1216" fill="white"/>
<path d="M14.5738 5.42641C14.5651 4.7349 14.0154 4.17867 13.3315 4.15378C12.7622 4.15919 12.7081 4.58015 12.0891 4.58015C11.4701 4.58015 11.416 4.15919 10.85 4.15161C10.1672 4.17542 9.61528 4.73274 9.6077 5.42424C9.60662 5.46861 9.60879 5.51082 9.61203 5.5541C9.85877 5.64717 10.0806 5.81599 10.1997 6.0032C10.218 6.03351 10.2624 6.10168 10.2992 6.16661C10.3219 6.20557 10.6791 6.88625 10.8803 7.27043C10.9842 7.37756 11.0556 7.45007 11.0556 7.45007C11.3229 7.72602 11.6498 7.97492 12.0631 7.99115H12.1173C12.5328 7.97492 12.8585 7.72602 13.1258 7.45007C13.1258 7.45007 13.2102 7.36457 13.3315 7.24012C13.5273 6.86353 13.9082 6.13956 13.931 6.09952C13.9688 6.0335 14.0132 5.96641 14.0316 5.93611C14.1431 5.7608 14.3444 5.6028 14.5727 5.50649C14.5738 5.47943 14.5749 5.45238 14.5738 5.42533V5.42641Z" fill="url(#paint0_radial_10568_2568)"/>
<path d="M11.2109 8.68377C11.3386 8.27579 11.198 7.87864 11.0151 7.53234C11.0151 7.53234 10.9599 7.42629 10.8798 7.27154C10.5822 6.96853 10.0108 6.38308 9.97943 6.34845C9.92857 6.29218 9.87663 6.22941 9.85499 6.20236C9.7208 6.04219 9.63314 5.80195 9.6115 5.55522C9.58769 5.54548 9.56172 5.53682 9.53574 5.52816C9.40805 5.48812 9.27819 5.46973 9.15157 5.46973C8.62239 5.46973 8.13109 5.79871 7.94171 6.31815C7.77289 6.85923 8.15598 7.04104 7.96552 7.62974C7.77397 8.21844 7.35625 8.13944 7.17445 8.6762C6.98723 9.33524 7.34652 10.0311 8.00015 10.2529C8.04127 10.2659 8.08347 10.2778 8.1246 10.2875C8.29125 10.0819 8.51634 9.92394 8.73278 9.86983C8.7674 9.86009 8.84532 9.84061 8.91891 9.82438C8.96328 9.81464 9.7208 9.68586 10.1483 9.61336C10.2835 9.54734 10.3744 9.50189 10.3744 9.50189C10.7261 9.32874 11.0735 9.08958 11.2109 8.68377V8.68377Z" fill="url(#paint1_radial_10568_2568)"/>
<path d="M14.7195 12.4507C15.2205 12.086 15.5105 12.3955 15.9748 12.0676C16.5137 11.6466 16.6317 10.8707 16.2323 10.308C16.2085 10.2723 16.1793 10.2376 16.1512 10.2052C15.8958 10.2744 15.6198 10.269 15.4142 10.1868C15.3807 10.1738 15.306 10.1446 15.2378 10.1143C15.1967 10.097 14.5074 9.75499 14.1189 9.56236C13.9728 9.53747 13.8721 9.52124 13.8721 9.52124C13.7314 9.49743 13.5875 9.48012 13.4425 9.48012C13.186 9.47904 12.935 9.53206 12.712 9.69006C12.369 9.94653 12.25 10.3491 12.1926 10.7376C12.1926 10.7376 12.1753 10.8566 12.1504 11.0276C12.2132 11.4475 12.3322 12.257 12.3365 12.3035C12.3441 12.3782 12.3484 12.4593 12.3517 12.495C12.3647 12.7028 12.2954 12.9485 12.1677 13.1606C12.1818 13.1833 12.1969 13.206 12.2142 13.2277C12.6276 13.7817 13.4014 13.9084 13.9674 13.5264C14.4219 13.1887 14.2173 12.8143 14.7195 12.4507V12.4507Z" fill="url(#paint2_radial_10568_2568)"/>
<path d="M14.1177 9.56353C14.5365 9.63387 15.3416 9.77131 15.3882 9.78105C15.4617 9.7962 15.5397 9.81676 15.5743 9.82542C15.7777 9.87736 15.9898 10.0191 16.1511 10.2063C16.176 10.1998 16.203 10.1923 16.229 10.1847C16.8848 9.96177 17.243 9.26594 17.0558 8.60906C16.874 8.0723 16.4563 8.1513 16.2647 7.5626C16.0732 6.9739 16.4573 6.79209 16.2885 6.25101C16.0991 5.73157 15.6078 5.40259 15.0787 5.40259C14.951 5.40259 14.8211 5.42098 14.6945 5.45994C14.6534 5.47293 14.6112 5.48916 14.5722 5.50539C14.5581 5.76836 14.4683 6.03025 14.3265 6.20123C14.3038 6.22937 14.253 6.29105 14.2021 6.34732C14.1707 6.38087 13.6361 6.92953 13.332 7.24011C13.2617 7.37322 13.2141 7.46304 13.2141 7.46304C13.0301 7.81042 12.8916 8.20649 13.0193 8.61555C13.1567 9.02028 13.503 9.25944 13.8547 9.43367C13.8547 9.43367 13.9619 9.4867 14.1177 9.56353Z" fill="url(#paint3_radial_10568_2568)"/>
<path d="M10.8787 7.27028C10.6763 6.88611 10.3213 6.20542 10.2975 6.16646C10.2597 6.10045 10.2164 6.03227 10.1969 6.00306C10.0789 5.81584 9.85925 5.6481 9.61035 5.55396C9.63199 5.79961 9.71965 6.04093 9.85384 6.20109C9.87548 6.22923 9.92743 6.29091 9.97721 6.34719C10.0086 6.38182 10.58 6.96619 10.8776 7.27028H10.8787Z" fill="url(#paint4_radial_10568_2568)"/>
<path d="M10.1496 9.61218C9.7211 9.68469 8.96358 9.81238 8.92029 9.82321C8.84778 9.83944 8.76879 9.85892 8.73416 9.86866C8.51989 9.92277 8.29371 10.0818 8.12598 10.2864C8.3673 10.3416 8.62269 10.3329 8.81748 10.2561C8.84995 10.2431 8.9257 10.2139 8.99388 10.1836C9.03608 10.1641 9.76979 9.80156 10.1496 9.61218V9.61218Z" fill="url(#paint5_radial_10568_2568)"/>
<path d="M12.3498 12.4951C12.3466 12.4594 12.3433 12.3793 12.3347 12.3036C12.3314 12.2571 12.2113 11.4476 12.1485 11.0277C12.0868 11.4584 11.9754 12.2181 11.9711 12.2625C11.9646 12.3382 11.9581 12.4183 11.9559 12.454C11.9408 12.6759 12.0219 12.941 12.1658 13.1617C12.2925 12.9496 12.3628 12.704 12.3498 12.4962V12.4951Z" fill="url(#paint6_radial_10568_2568)"/>
<path d="M13.3311 7.24009C13.6351 6.92951 14.1708 6.38085 14.2011 6.3473C14.252 6.29103 14.3028 6.22826 14.3256 6.20121C14.4673 6.03131 14.5582 5.7705 14.5723 5.50754V5.50537C14.344 5.60277 14.1427 5.75968 14.0312 5.93499C14.0128 5.96638 13.9685 6.03347 13.9306 6.0984C13.9079 6.13844 13.528 6.86241 13.3311 7.23901V7.24009Z" fill="url(#paint7_radial_10568_2568)"/>
<path d="M15.4136 10.1879C15.6203 10.2712 15.8963 10.2755 16.1506 10.2063C15.9893 10.0191 15.7772 9.87731 15.5749 9.82536C15.5402 9.81779 15.4634 9.79614 15.3887 9.78099C15.3411 9.77017 14.5349 9.63382 14.1172 9.56348C14.5057 9.7561 15.195 10.097 15.2351 10.1154C15.3043 10.1457 15.379 10.1749 15.4125 10.1879H15.4136Z" fill="url(#paint8_radial_10568_2568)"/>
<path d="M12.0958 13.2678C12.1228 13.2321 12.1466 13.1964 12.1694 13.1596C12.0243 12.9388 11.9443 12.6726 11.9594 12.4518C11.9616 12.4161 11.9659 12.3361 11.9746 12.2603C11.9789 12.2159 12.0914 11.4562 12.1531 11.0255C12.1326 10.8762 12.1174 10.7777 12.1174 10.7777C12.0622 10.3892 11.9421 9.98558 11.598 9.72911C11.375 9.57111 11.124 9.51917 10.8697 9.51917C10.7236 9.52025 10.5786 9.53756 10.439 9.56353C10.439 9.56353 10.3199 9.58301 10.1489 9.61223C9.7691 9.80053 9.03539 10.1641 8.99319 10.1836C8.92501 10.215 8.84926 10.2431 8.81679 10.2561C8.62308 10.333 8.36769 10.3427 8.12529 10.2864C8.10905 10.307 8.09174 10.3286 8.07659 10.3514C7.67727 10.9152 7.79631 11.69 8.33414 12.111C8.79623 12.4389 9.08842 12.1294 9.58946 12.493C10.0905 12.8566 9.88706 13.2299 10.3405 13.5686C10.9086 13.9517 11.6802 13.824 12.0936 13.27L12.0958 13.2678Z" fill="url(#paint9_radial_10568_2568)"/>
<defs>
<radialGradient id="paint0_radial_10568_2568" cx="0" cy="0" r="1" gradientUnits="userSpaceOnUse" gradientTransform="translate(12.1042 8.51163) scale(3.79104)">
<stop stop-color="#FFF5E5"/>
<stop offset="0.51" stop-color="#FAB678"/>
<stop offset="1" stop-color="#E91D26"/>
</radialGradient>
<radialGradient id="paint1_radial_10568_2568" cx="0" cy="0" r="1" gradientUnits="userSpaceOnUse" gradientTransform="translate(11.8309 8.77275) rotate(-72) scale(3.79104)">
<stop stop-color="#F6F8E8"/>
<stop offset="0.51" stop-color="#B2D138"/>
<stop offset="1" stop-color="#74BD43"/>
</radialGradient>
<radialGradient id="paint2_radial_10568_2568" cx="0" cy="0" r="1" gradientUnits="userSpaceOnUse" gradientTransform="translate(12.1574 9.03214) rotate(144) scale(3.79104)">
<stop stop-color="#FFF0E2"/>
<stop offset="0.51" stop-color="#FFD02A"/>
<stop offset="1" stop-color="#F59324"/>
</radialGradient>
<radialGradient id="paint3_radial_10568_2568" cx="0" cy="0" r="1" gradientUnits="userSpaceOnUse" gradientTransform="translate(12.255 8.75197) rotate(72) scale(3.79104)">
<stop stop-color="#8FD0F1"/>
<stop offset="0.51" stop-color="#4B97D1"/>
<stop offset="1" stop-color="#0064AD"/>
</radialGradient>
<radialGradient id="paint4_radial_10568_2568" cx="0" cy="0" r="1" gradientUnits="userSpaceOnUse" gradientTransform="translate(12.2168 8.93148) rotate(-72) scale(3.78988)">
<stop stop-color="#F4ECE0"/>
<stop offset="0.51" stop-color="#B48C80"/>
<stop offset="1" stop-color="#933F39"/>
</radialGradient>
<radialGradient id="paint5_radial_10568_2568" cx="0" cy="0" r="1" gradientUnits="userSpaceOnUse" gradientTransform="translate(12.0252 9.22961) rotate(-144) scale(3.79104)">
<stop stop-color="#F4EDEB"/>
<stop offset="0.51" stop-color="#B49B9E"/>
<stop offset="1" stop-color="#785830"/>
</radialGradient>
<radialGradient id="paint6_radial_10568_2568" cx="0" cy="0" r="1" gradientUnits="userSpaceOnUse" gradientTransform="translate(12.1596 9.01607) rotate(144) scale(3.78988 3.78988)">
<stop stop-color="#EFEBE0"/>
<stop offset="0.51" stop-color="#AE9954"/>
<stop offset="1" stop-color="#91592F"/>
</radialGradient>
<radialGradient id="paint7_radial_10568_2568" cx="0" cy="0" r="1" gradientUnits="userSpaceOnUse" gradientTransform="translate(12.0901 8.78964) rotate(72) scale(3.78988)">
<stop stop-color="#E2DDDB"/>
<stop offset="0.51" stop-color="#9D8F8C"/>
<stop offset="1" stop-color="#2B2E2E"/>
</radialGradient>
<radialGradient id="paint8_radial_10568_2568" cx="0" cy="0" r="1" gradientUnits="userSpaceOnUse" gradientTransform="translate(11.797 8.84991) rotate(72) scale(3.78872)">
<stop stop-color="#B4C9B6"/>
<stop offset="0.51" stop-color="#889281"/>
<stop offset="1" stop-color="#194936"/>
</radialGradient>
<radialGradient id="paint9_radial_10568_2568" cx="0" cy="0" r="1" gradientUnits="userSpaceOnUse" gradientTransform="translate(12.4292 8.78322) rotate(-144) scale(3.78988)">
<stop stop-color="#EDE6F1"/>
<stop offset="0.51" stop-color="#C2A4CE"/>
<stop offset="1" stop-color="#8D5BA4"/>
</radialGradient>
</defs>
</svg>
