<svg width="104" height="24" viewBox="0 0 104 24" fill="none" xmlns="http://www.w3.org/2000/svg">
<rect width="104.002" height="24" rx="4" fill="white"/>
<path d="M31.6323 10.8032C31.5029 10.5576 30.9035 9.54659 29.299 9.54659C27.8246 9.54659 26.7711 10.7424 26.7711 12.2295C26.7711 13.7167 27.8239 14.9125 29.3149 14.9125C30.9353 14.9125 31.5347 13.9158 31.6641 13.6559H33.1225C33.0416 14.1922 32.1833 16.2006 29.3149 16.2006C27.0299 16.2006 25.2476 14.4686 25.2476 12.2303C25.2476 9.99196 27.014 8.25989 29.299 8.25989C32.1992 8.25989 32.9931 10.2376 33.1225 10.8047H31.6316L31.6323 10.8032Z" fill="#FF5200"/>
<path d="M34.8337 8.4425H36.3088V14.145L40.9589 8.4425H42.4332V16.0152H40.9589V10.2669L36.3088 16.0152H34.8337V8.4425Z" fill="#FF5200"/>
<path d="M47.0062 9.69985H43.7654V8.4425H51.7214V9.69985H48.4813V16.0152H47.0062V9.69985Z" fill="#FF5200"/>
<path d="M53.0532 8.4425H54.5283V14.145L59.1784 8.4425H60.6527V16.0152H59.1784V10.2669L54.5283 16.0152H53.0532V8.4425Z" fill="#FF5200"/>
<path d="M64.124 8.4425H70.0871V16.0159H68.6128V9.69985H65.3069L64.9989 12.7351C64.7559 15.065 64.124 16.1226 62.4226 16.1226H61.9851V14.8653H62.1796C63.2816 14.8653 63.5086 14.3598 63.6865 12.6427L64.124 8.4425Z" fill="#FF5200"/>
<path d="M72.3994 8.4425H73.8737V14.145L78.5246 8.4425H79.9989V16.0152H78.5246V10.2669L73.8737 16.0152H72.3994V8.4425Z" fill="#FF5200"/>
<path d="M82.3108 8.4425H83.7859V11.5393H88.274V8.4425H89.7483V16.0152H88.274V12.796H83.7859V16.0152H82.3108V8.4425Z" fill="#FF5200"/>
<path d="M92.0459 8.4425H93.4718V11.7233L97.6852 8.4425H99.7915L95.0597 12.0756L100.002 16.0152H97.9115L93.4718 12.5511V16.0152H92.0459V8.4425Z" fill="#FF5200"/>
<path d="M17.0904 18.3777L8.35111 19.9386C6.09117 20.3424 4 18.7027 4 16.5267V7.47327C4 5.29726 6.09117 3.65755 8.35111 4.06139L17.0904 5.62234C18.3884 5.85433 19.3284 6.92694 19.3284 8.17712V15.8236C19.3284 17.0738 18.3884 18.1464 17.0904 18.3784" fill="#FF5200"/>
<path d="M8.75771 15.1732V9.10419C8.75771 8.81849 9.02639 8.60011 9.32459 8.64235L15.754 9.54526L15.7479 8.19125L9.61446 7.28977C8.41864 7.11291 7.33862 7.98719 7.33862 9.13211V15.1453C7.33862 16.2902 8.41864 17.1645 9.61446 16.9877L15.754 16.0783L15.7608 14.7236L9.32535 15.6344C9.02715 15.6766 8.75847 15.4582 8.75847 15.1725" fill="white"/>
</svg>
