<svg width="52" height="24" viewBox="0 0 52 24" fill="none" xmlns="http://www.w3.org/2000/svg">
<rect width="52" height="24" rx="4" fill="white"/>
<path fill-rule="evenodd" clip-rule="evenodd" d="M26.2364 9.46411H25.0974L24.0938 14.5348H25.2327L26.2364 9.46411Z" fill="#0099B3"/>
<path fill-rule="evenodd" clip-rule="evenodd" d="M24.725 9.46411H23.5861L21.4647 12.9836L20.7952 9.46411H19.6553L20.6196 14.5348H21.6686L24.725 9.46411Z" fill="#0099B3"/>
<path fill-rule="evenodd" clip-rule="evenodd" d="M30.4978 9.46411H26.777L26.5791 10.5297H27.8736L27.0819 14.5348H28.2209L29.0135 10.5297H30.3009L30.4978 9.46411Z" fill="#0099B3"/>
<path fill-rule="evenodd" clip-rule="evenodd" d="M18.239 9.46411L17.5757 12.8198L15.8309 9.46411H14.8464L13.8438 14.5348H14.9413L15.6057 11.172L17.3464 14.5348H18.3339L19.3366 9.46411H18.239Z" fill="#0099B3"/>
<path fill-rule="evenodd" clip-rule="evenodd" d="M33.208 9.46411H31.1179L30.1143 14.5348H31.2532L32.0458 10.5297H33.0313C33.1295 10.5255 33.2276 10.5413 33.3196 10.5763C33.4115 10.6113 33.4955 10.6647 33.5665 10.7333C33.6213 10.7926 33.6629 10.8631 33.6883 10.94C33.7138 11.0169 33.7225 11.0985 33.7139 11.1791C33.6654 11.688 33.2686 11.9231 32.7516 11.9231H31.9196L32.9909 14.5378H34.1299L33.418 12.8004C34.2834 12.66 34.8226 12.0188 34.865 11.1526C34.9124 10.1674 34.1945 9.46411 33.208 9.46411Z" fill="#0099B3"/>
<path d="M35.0771 12.0006C35.1187 11.2908 35.4295 10.6243 35.945 10.139C36.4605 9.65365 37.1413 9.38659 37.8467 9.39306C39.3613 9.39306 40.3881 10.5523 40.3043 12.0006C40.2621 12.7107 39.9508 13.3773 39.4347 13.8624C38.9187 14.3476 38.2373 14.6142 37.5317 14.6072C36.0161 14.6072 34.9933 13.4479 35.0771 12.0006ZM39.2472 12.0006C39.2997 11.1355 38.6938 10.4159 37.779 10.4159C37.3549 10.414 36.9465 10.5782 36.6401 10.8738C36.3336 11.1694 36.153 11.5734 36.1362 12.0006C36.0848 12.8648 36.6886 13.5853 37.6034 13.5853C38.0276 13.5873 38.4361 13.4232 38.7427 13.1276C39.0493 12.832 39.2302 12.428 39.2472 12.0006Z" fill="#0099B3"/>
<path fill-rule="evenodd" clip-rule="evenodd" d="M13.833 9.46411H12.6941L11.6904 14.5348H12.8304L13.833 9.46411Z" fill="#0099B3"/>
</svg>
