<svg width="24" height="24" viewBox="0 0 24 24" fill="none" xmlns="http://www.w3.org/2000/svg">
<rect width="24" height="24" rx="4" fill="#06048C"/>
<path d="M12.8729 10.5292C12.46 10.198 11.9114 9.99019 11.213 9.99019C9.74123 9.99019 8.54759 11.264 8.54759 12.8344C8.54759 14.4067 9.74123 15.6799 11.213 15.6799C11.9111 15.6799 12.46 15.4724 12.8729 15.1412V15.5772H14.3039V10.0904H12.8729V10.5292ZM11.4285 14.362C10.6277 14.362 9.97896 13.679 9.97896 12.8344C9.97896 11.9923 10.6277 11.3078 11.4285 11.3078C12.2759 11.3078 12.9623 11.9923 12.9623 12.8344C12.962 13.679 12.2759 14.362 11.4285 14.362ZM20.0195 15.5772H21.4506V11.1758H20.0195V15.5772ZM19.7402 9.7583C19.7402 10.3078 20.1854 10.7527 20.7352 10.7527C21.2844 10.7527 21.73 10.3078 21.73 9.7583C21.73 8.99729 21.1111 8.466 20.2154 8.44811C19.1749 8.42869 17.862 8.9936 17.2743 10.7312V10.0904H15.8438V15.5772H17.2743V12.3876C17.2743 10.3334 18.4464 8.6655 20.2064 8.68339C20.3708 8.684 20.5321 8.71515 20.6872 8.76294C20.1599 8.78915 19.7402 9.22363 19.7402 9.7583ZM8.69282 10.0904H6.67156L4.43107 12.2159V8.50947H3V15.5769H4.43107V13.5788L6.67156 15.5769H8.68171L5.73602 12.8394L8.69282 10.0904Z" fill="white"/>
<path d="M6.90136 8.03076L6.36266 8.57963V8.03076H5.93652V9.71283H6.36266V9.17907L6.88225 9.71283H7.45424L6.63341 8.87195L7.45424 8.03076H6.90136Z" fill="white"/>
<path d="M9.31055 8.42391H9.63772V9.31969H9.31055V9.71283H10.3913V9.31969H10.0642V8.42391H10.3913V8.03076H9.31055V8.42391Z" fill="white"/>
<path d="M17.096 8.84797C17.001 8.75917 16.8703 8.70582 16.7069 8.68886L16.4201 8.66049C16.3603 8.65371 16.3146 8.63891 16.2844 8.61547C16.2598 8.59666 16.2487 8.57323 16.2487 8.53962C16.2487 8.51649 16.2542 8.48103 16.3032 8.44187C16.3433 8.4098 16.4093 8.39346 16.4987 8.39346C16.5743 8.39346 16.6449 8.40857 16.7081 8.43848C16.7673 8.46623 16.8062 8.502 16.8271 8.54764L16.8429 8.58186H17.2749L17.2499 8.50508C17.2295 8.44218 17.1987 8.37989 17.158 8.31945C17.117 8.25871 17.0646 8.20382 17.0026 8.15603C16.9403 8.10823 16.8669 8.07 16.784 8.04194C16.7013 8.01418 16.607 8 16.5037 8C16.4022 8 16.3094 8.01326 16.2277 8.03916C16.1451 8.06568 16.0729 8.10299 16.0134 8.15048C15.9526 8.19889 15.9052 8.25778 15.8722 8.32501C15.8392 8.39253 15.8225 8.46777 15.8225 8.54856C15.8225 8.61301 15.8324 8.67406 15.8515 8.73018C15.8715 8.78815 15.9036 8.84088 15.9471 8.88621C15.9903 8.93092 16.0448 8.96793 16.1099 8.99598C16.1731 9.02342 16.2496 9.04161 16.3375 9.05025L16.6057 9.07615C16.7078 9.08664 16.7562 9.10823 16.779 9.12426C16.8052 9.14307 16.817 9.16836 16.817 9.20597C16.817 9.23126 16.8105 9.26888 16.7544 9.3031C16.7035 9.33424 16.6332 9.34997 16.5459 9.34997C16.4648 9.34997 16.3927 9.3364 16.3313 9.30988C16.2739 9.28521 16.2317 9.24637 16.2015 9.19178L16.1848 9.16126H15.7568L15.7803 9.23742C15.8022 9.30866 15.8339 9.37556 15.8746 9.43631C15.9159 9.49859 15.9687 9.55318 16.0316 9.59851C16.0942 9.64383 16.1691 9.6796 16.2545 9.70489C16.339 9.72986 16.4371 9.74281 16.5459 9.74281C16.6572 9.74281 16.7571 9.7277 16.8432 9.69841C16.9298 9.66849 17.0035 9.62872 17.0621 9.57938C17.1219 9.52943 17.1676 9.46992 17.1981 9.403C17.228 9.33672 17.2434 9.2664 17.2434 9.19394C17.2431 9.05612 17.1938 8.93924 17.096 8.84797Z" fill="white"/>
<path d="M13.6001 8.27837C13.5218 8.20252 13.4253 8.14177 13.3133 8.09737C13.2017 8.05327 13.0722 8.03076 12.9288 8.03076H12.3281V9.71283H12.9288C13.0722 9.71283 13.2017 9.69064 13.3133 9.64622C13.4253 9.60183 13.5218 9.54108 13.6001 9.46523C13.6787 9.38905 13.7395 9.2984 13.7799 9.19604C13.82 9.09458 13.8406 8.98542 13.8406 8.87164C13.8406 8.75786 13.8203 8.6487 13.7799 8.54725C13.7392 8.44488 13.6787 8.35453 13.6001 8.27837ZM13.4145 8.87195C13.4145 8.93763 13.4028 8.99869 13.3802 9.05326C13.3577 9.10723 13.325 9.1544 13.2834 9.19326C13.2415 9.23242 13.1894 9.26356 13.1289 9.28577C13.0676 9.30827 12.9969 9.31999 12.9195 9.31999H12.7546V8.42391H12.9195C12.9969 8.42391 13.0676 8.43532 13.1289 8.45783C13.1897 8.48034 13.2415 8.51148 13.2834 8.55065C13.325 8.5895 13.3574 8.63668 13.3802 8.69064C13.4028 8.74522 13.4145 8.80627 13.4145 8.87195Z" fill="white"/>
<path d="M7.95967 9.00844C7.88844 8.93721 7.88844 8.82189 7.95967 8.75035L8.25292 8.45711C8.32414 8.38588 8.43947 8.38588 8.51069 8.45711L8.80425 8.75066C8.87548 8.82189 8.87548 8.93752 8.80425 9.00844L8.51069 9.30169C8.43947 9.37291 8.32384 9.37291 8.25292 9.30169L7.95967 9.00844Z" fill="#E738BE"/>
<path d="M11.7087 8.87207C11.7904 8.82336 11.8181 8.71759 11.7706 8.63495C11.7228 8.55231 11.6177 8.52333 11.5344 8.56989C11.5332 8.47461 11.4555 8.39783 11.3599 8.39783C11.2643 8.39783 11.1869 8.47461 11.1854 8.56989C11.1021 8.52333 10.997 8.55231 10.9492 8.63495C10.9014 8.71759 10.9291 8.82336 11.0112 8.87207C10.9294 8.92079 10.9014 9.02656 10.9492 9.10919C10.997 9.19184 11.1021 9.22083 11.1854 9.17426C11.1866 9.26954 11.2643 9.34632 11.3599 9.34632C11.4555 9.34632 11.5329 9.26954 11.5344 9.17426C11.6177 9.22083 11.7228 9.19184 11.7706 9.10919C11.8181 9.02626 11.7904 8.92079 11.7087 8.87207Z" fill="#3BD13D"/>
<path d="M14.7992 9.29588C14.6043 9.29588 14.2812 9.05598 14.3172 8.69428C14.3305 8.56077 14.4434 8.45654 14.5803 8.45654C14.6663 8.45654 14.7508 8.49755 14.7992 8.56108C14.8476 8.49755 14.9321 8.45654 15.0181 8.45654C15.1553 8.45654 15.2679 8.56077 15.2811 8.69428C15.3175 9.05598 14.9941 9.29588 14.7992 9.29588Z" fill="#FF5B00"/>
</svg>
