<svg width="24" height="24" viewBox="0 0 24 24" fill="none" xmlns="http://www.w3.org/2000/svg">
<g clip-path="url(#clip0_267_8701)">
<rect width="24" height="24" rx="7.33333" fill="white"/>
<g clip-path="url(#clip1_267_8701)">
<path d="M11.9747 3C7.0259 3 3 7.02649 3 11.9747C3 16.923 7.0259 20.95 11.9747 20.95C16.9236 20.95 20.95 16.9236 20.95 11.9747C20.95 7.0259 16.9236 3 11.9747 3Z" fill="white"/>
<path d="M16.8964 5.82897C15.7997 8.67851 12.8888 8.30957 10.8337 8.38089L10.3345 10.3258C12.8688 8.26301 16.2187 10.3081 15.8604 13.4246C15.6193 15.5239 14.1229 16.8965 12.5399 17.2914C10.8149 17.7216 8.90418 17.078 8.04725 15.32C7.92877 15.0742 7.82524 14.8215 7.73725 14.5632L9.5566 14.0965C9.59175 14.2015 9.64007 14.3017 9.7004 14.3947C10.918 16.3584 13.3856 15.3766 13.6644 13.3397C13.9473 11.267 11.0394 10.1625 9.71572 12.5848L8.10147 11.894L8.07318 11.8823L8.67374 9.47178C8.7698 9.04273 9.05564 7.92354 9.08629 7.8151C9.13756 7.64773 9.14876 7.59233 9.20416 7.44027C10.2379 4.72393 12.2818 4.44988 14.0958 4.44988C14.1683 4.44988 14.2402 4.44988 14.3115 4.44988C12.4343 3.86191 10.4052 3.99572 8.62142 4.82511C6.83765 5.6545 5.42763 7.11976 4.66736 8.93406C3.90709 10.7484 3.85131 12.7811 4.51093 14.6344C5.17055 16.4877 6.49809 18.028 8.23369 18.954C9.96929 19.88 11.988 20.1249 13.8947 19.6407C15.8013 19.1566 17.4587 17.9783 18.5423 16.3365C19.6259 14.6947 20.0578 12.7076 19.7533 10.7642C19.4489 8.8207 18.4302 7.06081 16.8964 5.82897" fill="#E52322"/>
<path d="M16.1805 5.29333C15.8752 6.24166 15.3424 6.83872 14.519 7.15994C13.662 7.49353 12.6194 7.50237 11.6104 7.51357C11.0681 7.5177 10.5495 7.52182 10.0732 7.57899C10.929 5.51141 12.4656 5.30748 14.1041 5.30748C14.3322 5.30748 14.5609 5.3122 14.7819 5.31691C15.0029 5.32163 15.2115 5.32516 15.4196 5.32516C15.7178 5.32516 15.963 5.31632 16.1805 5.29628" fill="#00923A"/>
</g>
</g>
<defs>
<clipPath id="clip0_267_8701">
<rect width="24" height="24" rx="4" fill="white"/>
</clipPath>
<clipPath id="clip1_267_8701">
<rect width="17.95" height="17.95" fill="white" transform="translate(3 3)"/>
</clipPath>
</defs>
</svg>
