<svg width="63" height="63" viewBox="0 0 63 63" fill="none" xmlns="http://www.w3.org/2000/svg">
<path d="M42.6278 28.72L41.7377 27.8302C41.3916 27.4842 41.1938 27.0146 41.1938 26.5215V25.2474C41.1938 23.196 39.5248 21.5289 37.4726 21.5289H36.1993C35.7048 21.5289 35.235 21.3299 34.8889 20.9839L33.9864 20.083C32.5277 18.6371 30.1664 18.6371 28.72 20.0941L27.8299 20.9839C27.4838 21.3299 27.014 21.5289 26.5195 21.5289H25.2462C23.194 21.5289 21.5251 23.196 21.5251 25.2474V26.5079C21.5251 27.0146 21.3273 27.4842 20.9811 27.8302L20.0786 28.7335C18.6322 30.1905 18.6446 32.5521 20.091 33.9968L20.9811 34.8742C21.3273 35.2326 21.5251 35.7022 21.5251 36.1977V37.4693C21.5251 39.5208 23.194 41.1903 25.2462 41.1903H26.5195C27.014 41.1903 27.4838 41.3868 27.8299 41.7328L28.7324 42.6362C29.4618 43.3529 30.4137 43.7101 31.3656 43.7101C32.3175 43.7101 33.2694 43.3529 33.9988 42.6226L34.8889 41.7328C35.235 41.3868 35.7048 41.1903 36.1993 41.1903H37.4726C39.5248 41.1903 41.1938 39.5208 41.1938 37.4693V36.1977C41.1938 35.7022 41.3916 35.2326 41.7377 34.8865L42.6154 34.0091C42.6278 33.9968 42.6402 33.9857 42.6525 33.9721C43.3448 33.2689 43.7281 32.3285 43.7157 31.3398C43.7157 30.3512 43.3325 29.412 42.6278 28.72Z" fill="url(#paint0_linear_309_673)"/>
<g opacity="0.5" filter="url(#filter0_f_309_673)">
<path d="M38.8194 29.6112L38.2301 29.0221C38.0009 28.793 37.87 28.4821 37.87 28.1557V27.3121C37.87 25.9539 36.765 24.8501 35.4063 24.8501H34.5632C34.2358 24.8501 33.9248 24.7184 33.6956 24.4893L33.0981 23.8928C32.1323 22.9355 30.5689 22.9355 29.6113 23.9002L29.022 24.4893C28.7928 24.7184 28.4817 24.8501 28.1543 24.8501H27.3113C25.9526 24.8501 24.8476 25.9539 24.8476 27.3121V28.1467C24.8476 28.4821 24.7166 28.793 24.4874 29.0221L23.8899 29.6202C22.9323 30.5849 22.9405 32.1485 23.8981 33.105L24.4874 33.6859C24.7166 33.9232 24.8476 34.2341 24.8476 34.5622V35.4041C24.8476 36.7623 25.9526 37.8677 27.3113 37.8677H28.1543C28.4817 37.8677 28.7928 37.9978 29.022 38.2269L29.6195 38.825C30.1024 39.2996 30.7326 39.536 31.3629 39.536C31.9931 39.536 32.6234 39.2995 33.1063 38.816L33.6956 38.2269C33.9248 37.9978 34.2358 37.8677 34.5632 37.8677H35.4063C36.765 37.8677 37.87 36.7623 37.87 35.4041V34.5622C37.87 34.2341 38.0009 33.9232 38.2301 33.6941L38.8113 33.1131C38.8194 33.105 38.8276 33.0976 38.8358 33.0886C39.2942 32.623 39.5479 32.0004 39.5397 31.3458C39.5397 30.6913 39.286 30.0694 38.8194 29.6112Z" fill="#CCCCCC"/>
</g>
<g filter="url(#filter1_b_309_673)">
<path d="M46.913 33.009L46.0229 32.1192C45.6767 31.7732 45.4789 31.3036 45.4789 30.8105V29.5364C45.4789 27.485 43.81 25.818 41.7578 25.818H40.4845C39.99 25.818 39.5202 25.619 39.174 25.273L38.2716 24.3721C36.8128 22.9262 34.4516 22.9262 33.0052 24.3832L32.1151 25.273C31.7689 25.619 31.2992 25.818 30.8047 25.818H29.5313C27.4791 25.818 25.8102 27.485 25.8102 29.5364V30.797C25.8102 31.3036 25.6124 31.7732 25.2663 32.1192L24.3638 33.0226C22.9174 34.4796 22.9298 36.8412 24.3762 38.2858L25.2663 39.1633C25.6124 39.5216 25.8102 39.9912 25.8102 40.4868V41.7584C25.8102 43.8098 27.4791 45.4794 29.5313 45.4794H30.8047C31.2992 45.4794 31.7689 45.6759 32.1151 46.0219L33.0175 46.9253C33.7469 47.642 34.6988 47.9992 35.6507 47.9992C36.6027 47.9992 37.5546 47.642 38.2839 46.9117L39.174 46.0219C39.5202 45.6759 39.99 45.4794 40.4845 45.4794H41.7578C43.81 45.4794 45.4789 43.8098 45.4789 41.7584V40.4868C45.4789 39.9912 45.6767 39.5216 46.0229 39.1756L46.9006 38.2982C46.913 38.2858 46.9253 38.2747 46.9377 38.2611C47.63 37.558 48.0132 36.6175 48.0009 35.6289C48.0009 34.6403 47.6176 33.7011 46.913 33.009Z" fill="#CCCCCC" fill-opacity="0.13"/>
</g>
<g filter="url(#filter2_b_309_673)">
<mask id="path-4-inside-1_309_673" fill="white">
<path fill-rule="evenodd" clip-rule="evenodd" d="M33.2284 39.5843C33.0306 39.7944 32.7586 39.9056 32.4619 39.9056C32.1776 39.9056 31.9056 39.7944 31.7078 39.5843C31.2875 39.1641 31.2875 38.4721 31.7078 38.0519L38.0621 31.6999C38.4825 31.281 39.1624 31.281 39.5827 31.6999C40.003 32.1201 40.003 32.8134 39.5827 33.2336L33.2284 39.5843ZM38.8281 39.9053C38.2224 39.9053 37.7402 39.4234 37.7402 38.8178C37.7402 38.2259 38.2224 37.7427 38.8281 37.7427C39.4215 37.7427 39.9037 38.2259 39.9037 38.8178C39.9037 39.4234 39.4215 39.9053 38.8281 39.9053ZM33.5502 32.4653C33.5502 31.8721 33.068 31.3902 32.4746 31.3902C31.8812 31.3902 31.3867 31.8721 31.3867 32.4653C31.3867 33.0721 31.8812 33.5528 32.4746 33.5528C33.068 33.5528 33.5502 33.0721 33.5502 32.4653Z"/>
</mask>
<path fill-rule="evenodd" clip-rule="evenodd" d="M33.2284 39.5843C33.0306 39.7944 32.7586 39.9056 32.4619 39.9056C32.1776 39.9056 31.9056 39.7944 31.7078 39.5843C31.2875 39.1641 31.2875 38.4721 31.7078 38.0519L38.0621 31.6999C38.4825 31.281 39.1624 31.281 39.5827 31.6999C40.003 32.1201 40.003 32.8134 39.5827 33.2336L33.2284 39.5843ZM38.8281 39.9053C38.2224 39.9053 37.7402 39.4234 37.7402 38.8178C37.7402 38.2259 38.2224 37.7427 38.8281 37.7427C39.4215 37.7427 39.9037 38.2259 39.9037 38.8178C39.9037 39.4234 39.4215 39.9053 38.8281 39.9053ZM33.5502 32.4653C33.5502 31.8721 33.068 31.3902 32.4746 31.3902C31.8812 31.3902 31.3867 31.8721 31.3867 32.4653C31.3867 33.0721 31.8812 33.5528 32.4746 33.5528C33.068 33.5528 33.5502 33.0721 33.5502 32.4653Z" fill="url(#paint1_linear_309_673)"/>
<path d="M33.2284 39.5843L32.9455 39.3012L32.9372 39.3101L33.2284 39.5843ZM31.7078 39.5843L31.9992 39.31L31.9906 39.3014L31.7078 39.5843ZM31.7078 38.0519L31.9906 38.3348H31.9906L31.7078 38.0519ZM38.0621 31.6999L37.7798 31.4166L37.7793 31.417L38.0621 31.6999ZM39.5827 31.6999L39.8655 31.417L39.8651 31.4166L39.5827 31.6999ZM39.5827 33.2336L39.8655 33.5165L39.8655 33.5165L39.5827 33.2336ZM32.4619 40.3056C32.8612 40.3056 33.2411 40.1543 33.5196 39.8585L32.9372 39.3101C32.8201 39.4344 32.6561 39.5056 32.4619 39.5056V40.3056ZM31.4166 39.8585C31.6935 40.1525 32.0725 40.3056 32.4619 40.3056V39.5056C32.2827 39.5056 32.1178 39.4362 31.9991 39.3101L31.4166 39.8585ZM31.425 37.769C30.8484 38.3454 30.8484 39.2908 31.425 39.8672L31.9906 39.3014C31.7266 39.0374 31.7266 38.5987 31.9906 38.3348L31.425 37.769ZM37.7793 31.417L31.425 37.769L31.9906 38.3348L38.3449 31.9828L37.7793 31.417ZM39.8651 31.4166C39.2887 30.8421 38.3562 30.8421 37.7798 31.4166L38.3445 31.9833C38.6087 31.7199 39.0361 31.7199 39.3003 31.9833L39.8651 31.4166ZM39.8655 33.5165C40.4421 32.9401 40.4421 31.9934 39.8655 31.417L39.2999 31.9828C39.564 32.2468 39.564 32.6867 39.2999 32.9507L39.8655 33.5165ZM33.5112 39.8672L39.8655 33.5165L39.3 32.9506L32.9456 39.3014L33.5112 39.8672ZM37.3402 38.8178C37.3402 39.6444 38.0016 40.3053 38.8281 40.3053V39.5053C38.4431 39.5053 38.1402 39.2023 38.1402 38.8178H37.3402ZM38.8281 37.3427C38.0043 37.3427 37.3402 38.0021 37.3402 38.8178H38.1402C38.1402 38.4496 38.4405 38.1427 38.8281 38.1427V37.3427ZM40.3037 38.8178C40.3037 38.0051 39.6426 37.3427 38.8281 37.3427V38.1427C39.2005 38.1427 39.5037 38.4466 39.5037 38.8178H40.3037ZM38.8281 40.3053C39.6453 40.3053 40.3037 39.6414 40.3037 38.8178H39.5037C39.5037 39.2053 39.1978 39.5053 38.8281 39.5053V40.3053ZM32.4746 31.7902C32.8472 31.7902 33.1502 32.0932 33.1502 32.4653H33.9502C33.9502 31.6511 33.2888 30.9902 32.4746 30.9902V31.7902ZM31.7867 32.4653C31.7867 32.0991 32.096 31.7902 32.4746 31.7902V30.9902C31.6664 30.9902 30.9867 31.6452 30.9867 32.4653H31.7867ZM32.4746 33.1528C32.0987 33.1528 31.7867 32.8478 31.7867 32.4653H30.9867C30.9867 33.2964 31.6637 33.9528 32.4746 33.9528V33.1528ZM33.1502 32.4653C33.1502 32.8537 32.8446 33.1528 32.4746 33.1528V33.9528C33.2915 33.9528 33.9502 33.2904 33.9502 32.4653H33.1502Z" fill="url(#paint2_linear_309_673)" mask="url(#path-4-inside-1_309_673)"/>
</g>
<defs>
<filter id="filter0_f_309_673" x="0.175781" y="0.175781" width="62.3633" height="62.3604" filterUnits="userSpaceOnUse" color-interpolation-filters="sRGB">
<feFlood flood-opacity="0" result="BackgroundImageFix"/>
<feBlend mode="normal" in="SourceGraphic" in2="BackgroundImageFix" result="shape"/>
<feGaussianBlur stdDeviation="11.5" result="effect1_foregroundBlur_309_673"/>
</filter>
<filter id="filter1_b_309_673" x="-0.714844" y="-0.710938" width="72.7168" height="72.71" filterUnits="userSpaceOnUse" color-interpolation-filters="sRGB">
<feFlood flood-opacity="0" result="BackgroundImageFix"/>
<feGaussianBlur in="BackgroundImageFix" stdDeviation="12"/>
<feComposite in2="SourceAlpha" operator="in" result="effect1_backgroundBlur_309_673"/>
<feBlend mode="normal" in="SourceGraphic" in2="effect1_backgroundBlur_309_673" result="shape"/>
</filter>
<filter id="filter2_b_309_673" x="16.3867" y="16.3857" width="38.5176" height="38.5195" filterUnits="userSpaceOnUse" color-interpolation-filters="sRGB">
<feFlood flood-opacity="0" result="BackgroundImageFix"/>
<feGaussianBlur in="BackgroundImageFix" stdDeviation="7.5"/>
<feComposite in2="SourceAlpha" operator="in" result="effect1_backgroundBlur_309_673"/>
<feBlend mode="normal" in="SourceGraphic" in2="effect1_backgroundBlur_309_673" result="shape"/>
</filter>
<linearGradient id="paint0_linear_309_673" x1="31.358" y1="19" x2="31.358" y2="43.7101" gradientUnits="userSpaceOnUse">
<stop stop-color="#CCCCCC" stop-opacity="0.42"/>
<stop offset="1" stop-color="#CCCCCC" stop-opacity="0.73"/>
</linearGradient>
<linearGradient id="paint1_linear_309_673" x1="39.2999" y1="32.9243" x2="29.8127" y2="33.2335" gradientUnits="userSpaceOnUse">
<stop stop-color="white"/>
<stop offset="0.916667" stop-color="white"/>
<stop offset="1" stop-color="white" stop-opacity="0.2"/>
</linearGradient>
<linearGradient id="paint2_linear_309_673" x1="32.7425" y1="32.3783" x2="38.1776" y2="39.1076" gradientUnits="userSpaceOnUse">
<stop stop-color="white" stop-opacity="0.25"/>
<stop offset="1" stop-color="white" stop-opacity="0"/>
</linearGradient>
</defs>
</svg>
