<svg width="42" height="38" viewBox="-7 -7 50 50" fill="none" xmlns="http://www.w3.org/2000/svg">
<path fill-rule="evenodd" clip-rule="evenodd" d="M16.2893 17.3341C17.1728 13.7539 20.9016 11.7263 24.6179 12.8054C26.4026 13.3235 27.9456 14.5034 28.9075 16.0856C29.8695 17.6677 30.1716 19.5224 29.7473 21.2416C28.8639 24.8218 25.1351 26.8494 21.4187 25.7704C17.7024 24.6914 15.4059 20.9143 16.2893 17.3341ZM27.9799 26.4287L29.6028 28.5513L29.6375 28.5614C29.9465 29.0695 29.7903 29.7024 29.2887 29.9752C28.7871 30.2479 28.13 30.0572 27.8211 29.5491L26.6069 27.2507C26.487 27.0542 26.4492 26.8236 26.5019 26.6099C26.5547 26.3962 26.6936 26.2169 26.888 26.1116C27.2618 25.9127 27.7477 26.0538 27.9799 26.4287Z" fill="url(#paint0_linear_309_698)"/>
<g filter="url(#filter0_f_309_698)">
<path d="M23.9203 15.7224C21.9127 15.1535 19.881 16.2891 19.3825 18.2588C18.884 20.2285 20.1074 22.2864 22.1151 22.8553C24.1227 23.4241 26.1544 22.2885 26.6529 20.3188C26.8923 19.373 26.7389 18.3573 26.2264 17.4953C25.714 16.6333 24.8844 15.9956 23.9203 15.7224Z" fill="#CCCCCC" fill-opacity="0.68"/>
</g>
<g filter="url(#filter1_b_309_698)">
<g filter="url(#filter2_b_309_698)">
<mask id="path-3-outside-1_309_698" maskUnits="userSpaceOnUse" x="-0.957904" y="0.758907" width="31.395" height="32.2938" fill="black">
<rect fill="white" x="-0.957904" y="0.758907" width="31.395" height="32.2938"/>
<path fill-rule="evenodd" clip-rule="evenodd" d="M25.888 12.0641C24.5054 6.46076 18.8908 3.22314 13.3474 4.83265C10.6854 5.60556 8.39616 7.41573 6.98333 9.86494C5.5705 12.3142 5.1498 15.2018 5.81377 17.8926C7.19643 23.4959 12.8111 26.7335 18.3544 25.124C23.8978 23.5145 27.2707 17.6674 25.888 12.0641ZM8.33488 25.1546L5.91423 28.3208L5.86236 28.3358C5.40157 29.0937 5.63455 30.0378 6.38273 30.4446C7.13092 30.8515 8.11098 30.5669 8.57178 29.8091L10.383 26.3807C10.5618 26.0876 10.6182 25.7437 10.5395 25.4249C10.4608 25.1061 10.2536 24.8387 9.9637 24.6817C9.40603 24.385 8.68135 24.5954 8.33488 25.1546Z"/>
</mask>
<path fill-rule="evenodd" clip-rule="evenodd" d="M25.888 12.0641C24.5054 6.46076 18.8908 3.22314 13.3474 4.83265C10.6854 5.60556 8.39616 7.41573 6.98333 9.86494C5.5705 12.3142 5.1498 15.2018 5.81377 17.8926C7.19643 23.4959 12.8111 26.7335 18.3544 25.124C23.8978 23.5145 27.2707 17.6674 25.888 12.0641ZM8.33488 25.1546L5.91423 28.3208L5.86236 28.3358C5.40157 29.0937 5.63455 30.0378 6.38273 30.4446C7.13092 30.8515 8.11098 30.5669 8.57178 29.8091L10.383 26.3807C10.5618 26.0876 10.6182 25.7437 10.5395 25.4249C10.4608 25.1061 10.2536 24.8387 9.9637 24.6817C9.40603 24.385 8.68135 24.5954 8.33488 25.1546Z" fill="#CCCCCC" fill-opacity="0.72"/>
<path d="M13.3474 4.83265L13.599 5.80033L13.3474 4.83265ZM25.888 12.0641L26.8517 11.7972L25.888 12.0641ZM6.98333 9.86494L7.83728 10.3575L7.83728 10.3575L6.98333 9.86494ZM5.81377 17.8926L4.85016 18.1594L5.81377 17.8926ZM18.3544 25.124L18.1028 24.1563L18.3544 25.124ZM5.91423 28.3208L6.69333 28.9256C6.55962 29.1005 6.37444 29.2279 6.1658 29.2885L5.91423 28.3208ZM8.33488 25.1546L9.17198 25.6753C9.15403 25.7043 9.13468 25.7324 9.11399 25.7594L8.33488 25.1546ZM5.86236 28.3358L5.02068 27.8225C5.15493 27.6017 5.366 27.4392 5.61078 27.3682L5.86236 28.3358ZM6.38273 30.4446L6.86837 29.5545L6.86838 29.5545L6.38273 30.4446ZM8.57178 29.8091L9.44448 30.2677C9.43469 30.2862 9.42434 30.3045 9.41345 30.3224L8.57178 29.8091ZM10.383 26.3807L9.51026 25.9221C9.52032 25.903 9.53097 25.8843 9.54219 25.8659L10.383 26.3807ZM10.5395 25.4249L9.57589 25.6917L9.57588 25.6917L10.5395 25.4249ZM9.9637 24.6817L10.4417 23.7873L10.4478 23.7907L9.9637 24.6817ZM13.0958 3.86496C19.1742 2.10011 25.3355 5.65276 26.8517 11.7972L24.9244 12.3309C23.6753 7.26877 18.6073 4.34618 13.599 5.80033L13.0958 3.86496ZM6.12939 9.37236C7.67458 6.69368 10.1794 4.71173 13.0958 3.86496L13.599 5.80033C11.1914 6.49938 9.11774 8.13777 7.83728 10.3575L6.12939 9.37236ZM4.85016 18.1594C4.12271 15.2114 4.58419 12.051 6.12939 9.37236L7.83728 10.3575C6.55682 12.5773 6.1769 15.1922 6.77739 17.6258L4.85016 18.1594ZM18.606 26.0917C12.5276 27.8565 6.36635 24.3039 4.85016 18.1594L6.77739 17.6258C8.0265 22.6879 13.0945 25.6105 18.1028 24.1563L18.606 26.0917ZM26.8517 11.7972C28.3655 17.9323 24.6751 24.3296 18.606 26.0917L18.1028 24.1563C23.1205 22.6995 26.1759 17.4025 24.9244 12.3309L26.8517 11.7972ZM5.13513 27.7159L7.55578 24.5497L9.11399 25.7594L6.69333 28.9256L5.13513 27.7159ZM5.61078 27.3682L5.66266 27.3531L6.1658 29.2885L6.11393 29.3035L5.61078 27.3682ZM5.89709 31.3348C4.64332 30.6531 4.26561 29.0644 5.02068 27.8225L6.70403 28.8491C6.53752 29.123 6.62578 29.4226 6.86837 29.5545L5.89709 31.3348ZM9.41345 30.3224C8.67733 31.533 7.11678 31.998 5.89709 31.3348L6.86838 29.5545C7.14506 29.7049 7.54464 29.6008 7.7301 29.2958L9.41345 30.3224ZM11.2557 26.8393L9.44448 30.2677L7.69907 29.3505L9.51026 25.9221L11.2557 26.8393ZM11.5031 25.158C11.6492 25.7501 11.5412 26.3754 11.2237 26.8955L9.54219 25.8659C9.5825 25.7999 9.58713 25.7373 9.57589 25.6917L11.5031 25.158ZM10.4478 23.7907C10.9723 24.0747 11.3568 24.5651 11.5031 25.158L9.57588 25.6917C9.56486 25.647 9.53493 25.6027 9.47958 25.5727L10.4478 23.7907ZM7.49779 24.6338C8.11993 23.6297 9.41629 23.2419 10.4417 23.7874L9.48574 25.576C9.44539 25.5545 9.3881 25.5456 9.32167 25.5649C9.25516 25.5842 9.203 25.6253 9.17198 25.6753L7.49779 24.6338Z" fill="url(#paint1_linear_309_698)" mask="url(#path-3-outside-1_309_698)"/>
</g>
</g>
<defs>
<filter id="filter0_f_309_698" x="4.27148" y="0.575195" width="37.4922" height="37.4268" filterUnits="userSpaceOnUse" color-interpolation-filters="sRGB">
<feFlood flood-opacity="0" result="BackgroundImageFix"/>
<feBlend mode="normal" in="SourceGraphic" in2="BackgroundImageFix" result="shape"/>
<feGaussianBlur stdDeviation="7.5" result="effect1_foregroundBlur_309_698"/>
</filter>
<filter id="filter1_b_309_698" x="-19.4863" y="-20.5879" width="70.6777" height="76.2256" filterUnits="userSpaceOnUse" color-interpolation-filters="sRGB">
<feFlood flood-opacity="0" result="BackgroundImageFix"/>
<feGaussianBlur in="BackgroundImageFix" stdDeviation="12"/>
<feComposite in2="SourceAlpha" operator="in" result="effect1_backgroundBlur_309_698"/>
<feBlend mode="normal" in="SourceGraphic" in2="effect1_backgroundBlur_309_698" result="shape"/>
</filter>
<filter id="filter2_b_309_698" x="-19.4863" y="-20.5879" width="70.6777" height="76.2256" filterUnits="userSpaceOnUse" color-interpolation-filters="sRGB">
<feFlood flood-opacity="0" result="BackgroundImageFix"/>
<feGaussianBlur in="BackgroundImageFix" stdDeviation="12"/>
<feComposite in2="SourceAlpha" operator="in" result="effect1_backgroundBlur_309_698"/>
<feBlend mode="normal" in="SourceGraphic" in2="effect1_backgroundBlur_309_698" result="shape"/>
</filter>
<linearGradient id="paint0_linear_309_698" x1="33.3941" y1="15.2918" x2="13.4001" y2="24.6387" gradientUnits="userSpaceOnUse">
<stop stop-color="#CCCCCC" stop-opacity="0.58"/>
<stop offset="1" stop-color="#CCCCCC" stop-opacity="0.25"/>
</linearGradient>
<linearGradient id="paint1_linear_309_698" x1="20.3486" y1="5.65656" x2="6.40956" y2="29.9724" gradientUnits="userSpaceOnUse">
<stop stop-color="white" stop-opacity="0.25"/>
<stop offset="1" stop-color="white" stop-opacity="0"/>
</linearGradient>
</defs>
</svg>
