<svg width="42" height="39" viewBox="-7 -7 50 50" fill="none" xmlns="http://www.w3.org/2000/svg">
<path fill-rule="evenodd" clip-rule="evenodd" d="M16.3242 17.2406C17.188 13.2281 20.9296 10.9896 24.6814 12.2409C26.483 12.8417 28.0461 14.1834 29.0267 15.9708C30.0074 17.7582 30.3253 19.8449 29.9104 21.7718C29.0466 25.7843 25.305 28.0228 21.5533 26.7715C17.8015 25.5203 15.4604 21.2532 16.3242 17.2406ZM28.084 27.5827L29.7341 29.9839L29.7692 29.9956C30.0841 30.5695 29.9314 31.2788 29.4282 31.5799C28.9249 31.8809 28.2617 31.6597 27.9468 31.0858L26.7069 28.4915C26.5847 28.2696 26.5449 28.0102 26.5965 27.7707C26.6481 27.5312 26.7867 27.3313 26.9817 27.2151C27.3568 26.9956 27.8472 27.1592 28.084 27.5827Z" fill="url(#paint0_linear_562_2582)"/>
<g filter="url(#filter0_f_562_2582)">
<path d="M24.0069 15.4987C21.9838 14.8447 19.9452 16.1092 19.4535 18.3231C18.9618 20.5369 20.2033 22.8619 22.2264 23.5159C24.2495 24.1699 26.2881 22.9054 26.7797 20.6915C27.0158 19.6284 26.8563 18.484 26.3363 17.5102C25.8163 16.5363 24.9784 15.8128 24.0069 15.4987Z" fill="#F29305" fill-opacity="0.68"/>
</g>
<g filter="url(#filter1_b_562_2582)">
<g filter="url(#filter2_b_562_2582)">
<mask id="path-3-outside-1_562_2582" maskUnits="userSpaceOnUse" x="-1.42739" y="-1.285" width="31.7953" height="35.6721" fill="black">
<rect fill="white" x="-1.42739" y="-1.285" width="31.7953" height="35.6721"/>
<path fill-rule="evenodd" clip-rule="evenodd" d="M25.9369 10.7187C24.6484 4.73355 19.0673 1.3946 13.4711 3.26097C10.7837 4.15723 8.4522 6.15855 6.98946 8.82466C5.52671 11.4908 5.05256 14.6033 5.67131 17.4775C6.95978 23.4626 12.5409 26.8016 18.1371 24.9352C23.7333 23.0688 27.2253 16.7039 25.9369 10.7187ZM8.39711 26.1469L5.93565 29.7286L5.88329 29.746C5.4136 30.6021 5.64138 31.6601 6.39205 32.1091C7.14271 32.5582 8.13201 32.2283 8.6017 31.3723L10.4511 27.5025C10.6335 27.1714 10.6927 26.7845 10.6158 26.4273C10.5389 26.07 10.3322 25.7718 10.0413 25.5986C9.48168 25.2712 8.75019 25.5151 8.39711 26.1469Z"/>
</mask>
<path fill-rule="evenodd" clip-rule="evenodd" d="M25.9369 10.7187C24.6484 4.73355 19.0673 1.3946 13.4711 3.26097C10.7837 4.15723 8.4522 6.15855 6.98946 8.82466C5.52671 11.4908 5.05256 14.6033 5.67131 17.4775C6.95978 23.4626 12.5409 26.8016 18.1371 24.9352C23.7333 23.0688 27.2253 16.7039 25.9369 10.7187ZM8.39711 26.1469L5.93565 29.7286L5.88329 29.746C5.4136 30.6021 5.64138 31.6601 6.39205 32.1091C7.14271 32.5582 8.13201 32.2283 8.6017 31.3723L10.4511 27.5025C10.6335 27.1714 10.6927 26.7845 10.6158 26.4273C10.5389 26.07 10.3322 25.7718 10.0413 25.5986C9.48168 25.2712 8.75019 25.5151 8.39711 26.1469Z" fill="#F29305" fill-opacity="0.93"/>
<path d="M13.4711 3.26097L13.2453 2.28682L13.4711 3.26097ZM25.9369 10.7187L24.9829 11.0203L25.9369 10.7187ZM6.98946 8.82466L6.15226 8.36971L6.98946 8.82466ZM5.67131 17.4775L6.62528 17.1759L6.62528 17.1759L5.67131 17.4775ZM18.1371 24.9352L17.9113 23.9611L17.9113 23.9611L18.1371 24.9352ZM5.93565 29.7286L6.7124 30.2817C6.57558 30.4808 6.38091 30.6296 6.16144 30.7027L5.93565 29.7286ZM8.39711 26.1469L9.22992 26.6097C9.21263 26.6407 9.19391 26.6708 9.17385 26.7L8.39711 26.1469ZM5.88329 29.746L5.04611 29.2911C5.18153 29.0443 5.40191 28.8571 5.65751 28.7719L5.88329 29.746ZM6.39205 32.1091L5.85734 33.0093L5.85734 33.0093L6.39205 32.1091ZM8.6017 31.3723L9.46825 31.77C9.459 31.7893 9.4492 31.8084 9.43888 31.8272L8.6017 31.3723ZM10.4511 27.5025L9.5846 27.1048C9.59411 27.0849 9.60419 27.0653 9.61483 27.046L10.4511 27.5025ZM10.6158 26.4273L9.66184 26.7288L10.6158 26.4273ZM10.0413 25.5986L10.5687 24.6941L10.5745 24.6976L10.0413 25.5986ZM13.2453 2.28682C19.4065 0.232 25.4924 3.92112 26.8908 10.4172L24.9829 11.0203C23.8044 5.54597 18.728 2.5572 13.6969 4.23512L13.2453 2.28682ZM6.15226 8.36971C7.74625 5.46438 10.2945 3.27091 13.2453 2.28682L13.6969 4.23512C11.2729 5.04355 9.15814 6.85272 7.82665 9.27961L6.15226 8.36971ZM4.71733 17.779C4.04526 14.6571 4.55904 11.2736 6.15226 8.36971L7.82665 9.27961C6.49439 11.7079 6.05986 14.5494 6.62528 17.1759L4.71733 17.779ZM18.3629 25.9094C12.2017 27.9642 6.11578 24.2751 4.71733 17.779L6.62528 17.1759C7.80378 22.6502 12.8801 25.639 17.9113 23.9611L18.3629 25.9094ZM26.8908 10.4172C28.287 16.9028 24.5108 23.859 18.3629 25.9094L17.9113 23.9611C22.9557 22.2787 26.1636 16.505 24.9829 11.0203L26.8908 10.4172ZM5.15891 29.1755L7.62036 25.5938L9.17385 26.7L6.7124 30.2817L5.15891 29.1755ZM5.65751 28.7719L5.70987 28.7544L6.16144 30.7027L6.10908 30.7202L5.65751 28.7719ZM5.85734 33.0093C4.6556 32.2903 4.31276 30.6276 5.04611 29.2911L6.72047 30.201C6.51445 30.5765 6.62716 31.0298 6.92676 31.209L5.85734 33.0093ZM9.43888 31.8272C8.69159 33.1892 7.08445 33.7433 5.85734 33.0093L6.92676 31.209C7.20098 31.3731 7.57243 31.2674 7.76452 30.9173L9.43888 31.8272ZM11.3177 27.9002L9.46825 31.77L7.73515 30.9745L9.5846 27.1048L11.3177 27.9002ZM11.5698 26.1257C11.7002 26.7312 11.601 27.3898 11.2875 27.959L9.61483 27.046C9.66598 26.9531 9.6853 26.8378 9.66184 26.7288L11.5698 26.1257ZM10.5745 24.6976C11.0862 25.0023 11.4393 25.5197 11.5698 26.1257L9.66184 26.7288C9.63849 26.6204 9.57813 26.5413 9.50798 26.4995L10.5745 24.6976ZM7.56429 25.684C8.19564 24.5544 9.53589 24.0899 10.5687 24.6941L9.51383 26.503C9.46344 26.4735 9.41361 26.4719 9.36755 26.4872C9.3209 26.5028 9.26933 26.5392 9.22992 26.6097L7.56429 25.684Z" fill="url(#paint1_linear_562_2582)" mask="url(#path-3-outside-1_562_2582)"/>
</g>
</g>
<defs>
<filter id="filter0_f_562_2582" x="4.3457" y="0.326172" width="37.541" height="38.3623" filterUnits="userSpaceOnUse" color-interpolation-filters="sRGB">
<feFlood flood-opacity="0" result="BackgroundImageFix"/>
<feBlend mode="normal" in="SourceGraphic" in2="BackgroundImageFix" result="shape"/>
<feGaussianBlur stdDeviation="7.5" result="effect1_foregroundBlur_562_2582"/>
</filter>
<filter id="filter1_b_562_2582" x="-19.5703" y="-22.2822" width="70.752" height="79.6172" filterUnits="userSpaceOnUse" color-interpolation-filters="sRGB">
<feFlood flood-opacity="0" result="BackgroundImageFix"/>
<feGaussianBlur in="BackgroundImageFix" stdDeviation="12"/>
<feComposite in2="SourceAlpha" operator="in" result="effect1_backgroundBlur_562_2582"/>
<feBlend mode="normal" in="SourceGraphic" in2="effect1_backgroundBlur_562_2582" result="shape"/>
</filter>
<filter id="filter2_b_562_2582" x="-19.5703" y="-22.2822" width="70.752" height="79.6172" filterUnits="userSpaceOnUse" color-interpolation-filters="sRGB">
<feFlood flood-opacity="0" result="BackgroundImageFix"/>
<feGaussianBlur in="BackgroundImageFix" stdDeviation="12"/>
<feComposite in2="SourceAlpha" operator="in" result="effect1_backgroundBlur_562_2582"/>
<feBlend mode="normal" in="SourceGraphic" in2="effect1_backgroundBlur_562_2582" result="shape"/>
</filter>
<linearGradient id="paint0_linear_562_2582" x1="33.4832" y1="15.086" x2="12.7469" y2="23.8028" gradientUnits="userSpaceOnUse">
<stop stop-color="#FFBB56"/>
<stop offset="1" stop-color="#FFC876"/>
</linearGradient>
<linearGradient id="paint1_linear_562_2582" x1="20.53" y1="4.13244" x2="4.01345" y2="30.0409" gradientUnits="userSpaceOnUse">
<stop stop-color="white" stop-opacity="0.25"/>
<stop offset="1" stop-color="white" stop-opacity="0"/>
</linearGradient>
</defs>
</svg>
