<svg width="27" height="29" viewBox="2 6 50 51" fill="none" xmlns="http://www.w3.org/2000/svg">
<path d="M31.9507 19.4204L23.8403 17.2472C20.8984 16.459 18.724 17.7225 17.9331 20.6741L15.2546 30.6707C14.4508 33.6706 15.7124 35.8134 18.6543 36.6017L26.7647 38.7749C29.754 39.5759 31.8696 38.338 32.6734 35.3381L35.352 25.3415C36.1429 22.39 34.9399 20.2214 31.9507 19.4204Z" fill="url(#paint0_linear_309_689)"/>
<g opacity="0.5" filter="url(#filter0_f_309_689)">
<path d="M23.0004 27.7326C21.3265 27.5545 20.0566 26.1424 20.0566 24.4591V24.4591C20.0566 22.7757 21.3265 21.3636 23.0004 21.1855L25.4075 20.9294C27.5046 20.7063 29.3325 22.3501 29.3325 24.4591V24.4591C29.3325 26.568 27.5046 28.2118 25.4074 27.9887L23.0004 27.7326Z" fill="#CCCCCC"/>
</g>
<g filter="url(#filter1_b_309_689)">
<path d="M38.286 29.6216C38.286 25.5418 35.8127 23.1387 31.6272 23.1387H20.6599C16.4733 23.1387 14 25.5418 14 29.6216V38.5077C14 42.5876 16.4733 45.0001 20.6599 45.0001H31.6315C35.817 45.0001 38.2903 42.5876 38.2903 38.5077C38.2903 34.4278 38.286 30.0724 38.286 29.6216Z" fill="#CCCCCC" fill-opacity="0.35"/>
<path d="M38.786 29.6216C38.786 27.4797 38.1344 25.7175 36.8749 24.4919C35.6171 23.268 33.8143 22.6387 31.6272 22.6387H20.6599C18.4723 22.6387 16.6692 23.268 15.4113 24.4918C14.1516 25.7175 13.5 27.4797 13.5 29.6216V38.5077C13.5 40.6496 14.1515 42.414 15.4109 43.6419C16.6686 44.8682 18.4717 45.5002 20.6599 45.5002H31.6315C33.8192 45.5002 35.622 44.8682 36.8796 43.6419C38.1388 42.4139 38.7903 40.6496 38.7903 38.5077C38.7903 36.4676 38.7892 34.3586 38.7882 32.7034C38.7876 31.8731 38.7871 31.1571 38.7867 30.6212C38.7863 30.0886 38.786 29.7339 38.786 29.6216Z" stroke="url(#paint1_linear_309_689)" stroke-linecap="round" stroke-linejoin="round"/>
</g>
<g filter="url(#filter2_b_309_689)">
<path d="M29.5274 34.6145C29.8552 36.0999 31.1625 37.1449 32.6549 37.1177H39.3491C39.97 37.1177 40.4738 36.6054 40.4738 35.9721V32.019C40.4724 31.3871 39.97 30.8734 39.3491 30.8721H32.535C30.8373 30.8775 29.4661 32.2813 29.4688 34.0112C29.4688 34.2137 29.4887 34.4161 29.5274 34.6145Z" fill="#CCCCCC" fill-opacity="0.35"/>
<path d="M29.0366 34.7101L29.0365 34.7102L29.0391 34.7223C29.4166 36.4325 30.9247 37.647 32.6593 37.6177H39.3491C40.2546 37.6177 40.9738 36.873 40.9738 35.9721L40.9738 32.019L40.9738 32.0179C40.9719 31.1204 40.2559 30.3741 39.3502 30.3721H39.3491L32.535 30.3721L32.5334 30.3721C30.5512 30.3784 28.9659 32.0149 28.9688 34.0116C28.9688 34.2467 28.992 34.4811 29.0366 34.7101Z" stroke="url(#paint2_linear_309_689)" stroke-linecap="round" stroke-linejoin="round"/>
</g>
<g filter="url(#filter3_bd_309_689)">
<ellipse cx="32.5904" cy="33.9947" rx="1.33845" ry="1.33846" fill="url(#paint3_linear_309_689)"/>
<path d="M33.8288 33.9947C33.8288 34.6787 33.2744 35.2332 32.5904 35.2332C31.9064 35.2332 31.352 34.6787 31.352 33.9947C31.352 33.3107 31.9064 32.7563 32.5904 32.7563C33.2744 32.7563 33.8288 33.3107 33.8288 33.9947Z" stroke="url(#paint4_linear_309_689)" stroke-opacity="0.5" stroke-width="0.2"/>
</g>
<g filter="url(#filter4_bd_309_689)">
<path d="M26.613 29.6583H19.7631C19.2503 29.6562 18.8357 29.2488 18.8379 28.7488C18.8401 28.251 19.2535 27.8478 19.7631 27.8457H26.6173C27.1301 27.8436 27.5489 28.2478 27.5511 28.7478C27.5533 29.2488 27.1387 29.6562 26.6259 29.6583H26.6173H26.613Z" fill="url(#paint5_linear_309_689)"/>
<path d="M26.6177 27.9457L26.6173 27.9457L19.7633 27.9457C19.3064 27.9477 18.9398 28.3086 18.9379 28.7493L26.6177 27.9457ZM26.6177 27.9457C27.0778 27.9438 27.4492 28.3059 27.4511 28.7482C27.453 29.1916 27.0855 29.5563 26.6257 29.5583H26.6173H26.613H19.7633M26.6177 27.9457L19.7633 29.5583M19.7633 29.5583C19.3034 29.5563 18.936 29.1916 18.9379 28.7493L19.7633 29.5583Z" stroke="url(#paint6_linear_309_689)" stroke-opacity="0.5" stroke-width="0.2"/>
</g>
<defs>
<filter id="filter0_f_309_689" x="0.0566406" y="0.90918" width="49.2754" height="47.0996" filterUnits="userSpaceOnUse" color-interpolation-filters="sRGB">
<feFlood flood-opacity="0" result="BackgroundImageFix"/>
<feBlend mode="normal" in="SourceGraphic" in2="BackgroundImageFix" result="shape"/>
<feGaussianBlur stdDeviation="10" result="effect1_foregroundBlur_309_689"/>
</filter>
<filter id="filter1_b_309_689" x="-11" y="-1.86133" width="74.291" height="71.8613" filterUnits="userSpaceOnUse" color-interpolation-filters="sRGB">
<feFlood flood-opacity="0" result="BackgroundImageFix"/>
<feGaussianBlur in="BackgroundImageFix" stdDeviation="12"/>
<feComposite in2="SourceAlpha" operator="in" result="effect1_backgroundBlur_309_689"/>
<feBlend mode="normal" in="SourceGraphic" in2="effect1_backgroundBlur_309_689" result="shape"/>
</filter>
<filter id="filter2_b_309_689" x="4.46875" y="5.87207" width="61.0059" height="56.2461" filterUnits="userSpaceOnUse" color-interpolation-filters="sRGB">
<feFlood flood-opacity="0" result="BackgroundImageFix"/>
<feGaussianBlur in="BackgroundImageFix" stdDeviation="12"/>
<feComposite in2="SourceAlpha" operator="in" result="effect1_backgroundBlur_309_689"/>
<feBlend mode="normal" in="SourceGraphic" in2="effect1_backgroundBlur_309_689" result="shape"/>
</filter>
<filter id="filter3_bd_309_689" x="16.252" y="17.6562" width="32.6777" height="32.6768" filterUnits="userSpaceOnUse" color-interpolation-filters="sRGB">
<feFlood flood-opacity="0" result="BackgroundImageFix"/>
<feGaussianBlur in="BackgroundImageFix" stdDeviation="7.5"/>
<feComposite in2="SourceAlpha" operator="in" result="effect1_backgroundBlur_309_689"/>
<feColorMatrix in="SourceAlpha" type="matrix" values="0 0 0 0 0 0 0 0 0 0 0 0 0 0 0 0 0 0 127 0" result="hardAlpha"/>
<feOffset dx="5" dy="5"/>
<feGaussianBlur stdDeviation="5"/>
<feColorMatrix type="matrix" values="0 0 0 0 0.15375 0 0 0 0 0.522433 0 0 0 0 0.9 0 0 0 0.5 0"/>
<feBlend mode="normal" in2="effect1_backgroundBlur_309_689" result="effect2_dropShadow_309_689"/>
<feBlend mode="normal" in="SourceGraphic" in2="effect2_dropShadow_309_689" result="shape"/>
</filter>
<filter id="filter4_bd_309_689" x="3.83789" y="12.8457" width="38.7129" height="31.8125" filterUnits="userSpaceOnUse" color-interpolation-filters="sRGB">
<feFlood flood-opacity="0" result="BackgroundImageFix"/>
<feGaussianBlur in="BackgroundImageFix" stdDeviation="7.5"/>
<feComposite in2="SourceAlpha" operator="in" result="effect1_backgroundBlur_309_689"/>
<feColorMatrix in="SourceAlpha" type="matrix" values="0 0 0 0 0 0 0 0 0 0 0 0 0 0 0 0 0 0 127 0" result="hardAlpha"/>
<feOffset dx="5" dy="5"/>
<feGaussianBlur stdDeviation="5"/>
<feColorMatrix type="matrix" values="0 0 0 0 0.15375 0 0 0 0 0.522433 0 0 0 0 0.9 0 0 0 0.5 0"/>
<feBlend mode="normal" in2="effect1_backgroundBlur_309_689" result="effect2_dropShadow_309_689"/>
<feBlend mode="normal" in="SourceGraphic" in2="effect2_dropShadow_309_689" result="shape"/>
</filter>
<linearGradient id="paint0_linear_309_689" x1="35.3585" y1="20.3336" x2="12.6577" y2="27.2107" gradientUnits="userSpaceOnUse">
<stop stop-color="#CCCCCC"/>
<stop offset="1" stop-color="#CCCCCC" stop-opacity="0.06"/>
</linearGradient>
<linearGradient id="paint1_linear_309_689" x1="17.8666" y1="25.6856" x2="35.6048" y2="45.7626" gradientUnits="userSpaceOnUse">
<stop stop-color="white" stop-opacity="0.76"/>
<stop offset="1" stop-color="white" stop-opacity="0.76"/>
</linearGradient>
<linearGradient id="paint2_linear_309_689" x1="31.2206" y1="31.5998" x2="35.5633" y2="39.3941" gradientUnits="userSpaceOnUse">
<stop stop-color="white" stop-opacity="0.76"/>
<stop offset="1" stop-color="white" stop-opacity="0.76"/>
</linearGradient>
<linearGradient id="paint3_linear_309_689" x1="33.7391" y1="33.1396" x2="30.7573" y2="33.2369" gradientUnits="userSpaceOnUse">
<stop stop-color="white"/>
<stop offset="1" stop-color="white" stop-opacity="0.2"/>
</linearGradient>
<linearGradient id="paint4_linear_309_689" x1="31.5403" y1="33.5542" x2="33.8134" y2="33.5668" gradientUnits="userSpaceOnUse">
<stop stop-color="white"/>
<stop offset="1" stop-color="white" stop-opacity="0.74"/>
</linearGradient>
<linearGradient id="paint5_linear_309_689" x1="26.9334" y1="28.173" x2="17.4503" y2="29.6593" gradientUnits="userSpaceOnUse">
<stop stop-color="white"/>
<stop offset="1" stop-color="white" stop-opacity="0.2"/>
</linearGradient>
<linearGradient id="paint6_linear_309_689" x1="19.7765" y1="28.4537" x2="27.1702" y2="28.6499" gradientUnits="userSpaceOnUse">
<stop stop-color="white"/>
<stop offset="1" stop-color="white" stop-opacity="0.74"/>
</linearGradient>
</defs>
</svg>
