<svg width="50" height="52" viewBox="2 6 50 51" fill="none" xmlns="http://www.w3.org/2000/svg">
<path d="M31.9507 18.8767L23.8403 16.4136C20.8984 15.5202 18.724 16.9523 17.9331 20.2977L15.2546 31.6279C14.4508 35.028 15.7124 37.4567 18.6543 38.3501L26.7647 40.8132C29.754 41.7211 31.8696 40.3181 32.6734 36.9179L35.352 25.5877C36.1429 22.2424 34.9399 19.7846 31.9507 18.8767Z" fill="url(#paint0_linear_562_2572)"/>
<g opacity="0.5" filter="url(#filter0_f_562_2572)">
<path d="M23.3878 28.3447C21.4869 28.1155 20.0566 26.5025 20.0566 24.5877C20.0566 22.673 21.4869 21.0599 23.3879 20.8307L24.8909 20.6495C27.2528 20.3647 29.3325 22.2087 29.3325 24.5877C29.3325 26.9668 27.2528 28.8108 24.8909 28.526L23.3878 28.3447Z" fill="#A3BB13"/>
</g>
<g filter="url(#filter1_b_562_2572)">
<path d="M38.286 30.4387C38.286 25.8145 35.8127 23.0908 31.6272 23.0908H20.6599C16.4733 23.0908 14 25.8145 14 30.4387V40.5102C14 45.1344 16.4733 47.8688 20.6599 47.8688H31.6315C35.817 47.8688 38.2903 45.1344 38.2903 40.5102C38.2903 35.886 38.286 30.9495 38.286 30.4387Z" fill="#ADC617" fill-opacity="0.35"/>
<path d="M38.786 30.4387C38.786 28.0413 38.1444 26.071 36.8966 24.6948C35.6428 23.3121 33.8328 22.5908 31.6272 22.5908H20.6599C18.4538 22.5908 16.6435 23.3121 15.3896 24.6948C14.1416 26.071 13.5 28.0413 13.5 30.4387V40.5102C13.5 42.9075 14.1416 44.8803 15.3892 46.259C16.6429 47.6445 18.4532 48.3688 20.6599 48.3688H31.6315C33.8377 48.3688 35.6477 47.6444 36.9013 46.259C38.1487 44.8803 38.7903 42.9075 38.7903 40.5102C38.7903 38.198 38.7892 35.8077 38.7882 33.9317C38.7876 32.9891 38.7871 32.1764 38.7867 31.5687C38.7863 30.9667 38.786 30.5657 38.786 30.4387Z" stroke="url(#paint1_linear_562_2572)" stroke-linecap="round" stroke-linejoin="round"/>
</g>
<g filter="url(#filter2_b_562_2572)">
<path d="M29.5274 36.0982C29.8552 37.7817 31.1625 38.9661 32.6549 38.9353H39.3491C39.97 38.9353 40.4738 38.3546 40.4738 37.6369V33.1564C40.4724 32.4402 39.97 31.858 39.3491 31.8564H32.535C30.8373 31.8626 29.4661 33.4536 29.4688 35.4143C29.4688 35.6438 29.4887 35.8733 29.5274 36.0982Z" fill="#ADC617" fill-opacity="0.35"/>
<path d="M29.0346 36.1829L29.0345 36.1829L29.0366 36.1938C29.4006 38.0631 30.8782 39.4692 32.6599 39.4353H39.3491C40.311 39.4353 40.9738 38.5612 40.9738 37.6369L40.9738 33.1564L40.9738 33.1555C40.972 32.2343 40.312 31.3588 39.3503 31.3564H39.3491L32.535 31.3564L32.5332 31.3564C30.495 31.3638 28.966 33.2482 28.9688 35.4147C28.9688 35.673 28.9913 35.9307 29.0346 36.1829Z" stroke="url(#paint2_linear_562_2572)" stroke-linecap="round" stroke-linejoin="round"/>
</g>
<g filter="url(#filter3_bd_562_2572)">
<ellipse cx="32.5904" cy="35.3949" rx="1.33845" ry="1.51702" fill="url(#paint3_linear_562_2572)"/>
<path d="M33.8288 35.3949C33.8288 36.1897 33.263 36.812 32.5904 36.812C31.9178 36.812 31.352 36.1897 31.352 35.3949C31.352 34.6002 31.9178 33.9779 32.5904 33.9779C33.263 33.9779 33.8288 34.6002 33.8288 35.3949Z" stroke="url(#paint4_linear_562_2572)" stroke-opacity="0.5" stroke-width="0.2"/>
</g>
<g filter="url(#filter4_bd_562_2572)">
<path d="M26.613 30.4802H19.7631C19.2503 30.4778 18.8357 30.0161 18.8379 29.4494C18.8401 28.8851 19.2535 28.4282 19.7631 28.4258H26.6173C27.1301 28.4234 27.5489 28.8815 27.5511 29.4482C27.5533 30.0161 27.1387 30.4778 26.6259 30.4802H26.6173H26.613Z" fill="url(#paint5_linear_562_2572)"/>
<path d="M26.6173 28.5258L26.6177 28.5258C27.0662 28.5237 27.4491 28.9276 27.4511 29.4486C27.4531 29.9709 27.074 30.378 26.6257 30.3802H26.6173H26.613H19.7633C19.3149 30.378 18.9359 29.9708 18.9379 29.4498C18.9399 28.9309 19.3179 28.528 19.7633 28.5258L26.6173 28.5258Z" stroke="url(#paint6_linear_562_2572)" stroke-opacity="0.5" stroke-width="0.2"/>
</g>
<defs>
<filter id="filter0_f_562_2572" x="0.0566406" y="0.620117" width="49.2754" height="47.9346" filterUnits="userSpaceOnUse" color-interpolation-filters="sRGB">
<feFlood flood-opacity="0" result="BackgroundImageFix"/>
<feBlend mode="normal" in="SourceGraphic" in2="BackgroundImageFix" result="shape"/>
<feGaussianBlur stdDeviation="10" result="effect1_foregroundBlur_562_2572"/>
</filter>
<filter id="filter1_b_562_2572" x="-11" y="-1.90918" width="74.291" height="74.7783" filterUnits="userSpaceOnUse" color-interpolation-filters="sRGB">
<feFlood flood-opacity="0" result="BackgroundImageFix"/>
<feGaussianBlur in="BackgroundImageFix" stdDeviation="12"/>
<feComposite in2="SourceAlpha" operator="in" result="effect1_backgroundBlur_562_2572"/>
<feBlend mode="normal" in="SourceGraphic" in2="effect1_backgroundBlur_562_2572" result="shape"/>
</filter>
<filter id="filter2_b_562_2572" x="4.46875" y="6.85645" width="61.0059" height="57.0791" filterUnits="userSpaceOnUse" color-interpolation-filters="sRGB">
<feFlood flood-opacity="0" result="BackgroundImageFix"/>
<feGaussianBlur in="BackgroundImageFix" stdDeviation="12"/>
<feComposite in2="SourceAlpha" operator="in" result="effect1_backgroundBlur_562_2572"/>
<feBlend mode="normal" in="SourceGraphic" in2="effect1_backgroundBlur_562_2572" result="shape"/>
</filter>
<filter id="filter3_bd_562_2572" x="16.252" y="18.8779" width="32.6777" height="33.0342" filterUnits="userSpaceOnUse" color-interpolation-filters="sRGB">
<feFlood flood-opacity="0" result="BackgroundImageFix"/>
<feGaussianBlur in="BackgroundImageFix" stdDeviation="7.5"/>
<feComposite in2="SourceAlpha" operator="in" result="effect1_backgroundBlur_562_2572"/>
<feColorMatrix in="SourceAlpha" type="matrix" values="0 0 0 0 0 0 0 0 0 0 0 0 0 0 0 0 0 0 127 0" result="hardAlpha"/>
<feOffset dx="5" dy="5"/>
<feGaussianBlur stdDeviation="5"/>
<feColorMatrix type="matrix" values="0 0 0 0 0.784314 0 0 0 0 0.847059 0 0 0 0 0.396078 0 0 0 1 0"/>
<feBlend mode="normal" in2="effect1_backgroundBlur_562_2572" result="effect2_dropShadow_562_2572"/>
<feBlend mode="normal" in="SourceGraphic" in2="effect2_dropShadow_562_2572" result="shape"/>
</filter>
<filter id="filter4_bd_562_2572" x="3.83789" y="13.4258" width="38.7129" height="32.0547" filterUnits="userSpaceOnUse" color-interpolation-filters="sRGB">
<feFlood flood-opacity="0" result="BackgroundImageFix"/>
<feGaussianBlur in="BackgroundImageFix" stdDeviation="7.5"/>
<feComposite in2="SourceAlpha" operator="in" result="effect1_backgroundBlur_562_2572"/>
<feColorMatrix in="SourceAlpha" type="matrix" values="0 0 0 0 0 0 0 0 0 0 0 0 0 0 0 0 0 0 127 0" result="hardAlpha"/>
<feOffset dx="5" dy="5"/>
<feGaussianBlur stdDeviation="5"/>
<feColorMatrix type="matrix" values="0 0 0 0 0.15375 0 0 0 0 0.522433 0 0 0 0 0.9 0 0 0 0.5 0"/>
<feBlend mode="normal" in2="effect1_backgroundBlur_562_2572" result="effect2_dropShadow_562_2572"/>
<feBlend mode="normal" in="SourceGraphic" in2="effect2_dropShadow_562_2572" result="shape"/>
</filter>
<linearGradient id="paint0_linear_562_2572" x1="35.3585" y1="19.9117" x2="12.2269" y2="26.0945" gradientUnits="userSpaceOnUse">
<stop stop-color="#EAFF65"/>
<stop offset="1" stop-color="#8FA217"/>
</linearGradient>
<linearGradient id="paint1_linear_562_2572" x1="17.8666" y1="25.9775" x2="38.1256" y2="46.2086" gradientUnits="userSpaceOnUse">
<stop stop-color="white" stop-opacity="0.76"/>
<stop offset="1" stop-color="white" stop-opacity="0.76"/>
</linearGradient>
<linearGradient id="paint2_linear_562_2572" x1="31.2206" y1="32.6812" x2="36.4469" y2="40.9573" gradientUnits="userSpaceOnUse">
<stop stop-color="white" stop-opacity="0.76"/>
<stop offset="1" stop-color="white" stop-opacity="0.76"/>
</linearGradient>
<linearGradient id="paint3_linear_562_2572" x1="33.7391" y1="34.4258" x2="30.7566" y2="34.5116" gradientUnits="userSpaceOnUse">
<stop stop-color="white"/>
<stop offset="1" stop-color="white" stop-opacity="0.2"/>
</linearGradient>
<linearGradient id="paint4_linear_562_2572" x1="31.5403" y1="34.8957" x2="33.8134" y2="34.9068" gradientUnits="userSpaceOnUse">
<stop stop-color="white"/>
<stop offset="1" stop-color="white" stop-opacity="0.74"/>
</linearGradient>
<linearGradient id="paint5_linear_562_2572" x1="26.9334" y1="28.7968" x2="17.3996" y2="30.1151" gradientUnits="userSpaceOnUse">
<stop stop-color="white"/>
<stop offset="1" stop-color="white" stop-opacity="0.2"/>
</linearGradient>
<linearGradient id="paint6_linear_562_2572" x1="19.7765" y1="29.1149" x2="27.1714" y2="29.2881" gradientUnits="userSpaceOnUse">
<stop stop-color="white"/>
<stop offset="1" stop-color="white" stop-opacity="0.74"/>
</linearGradient>
</defs>
</svg>
