<svg width="72" height="68" viewBox="0 0 72 68" fill="none" xmlns="http://www.w3.org/2000/svg">
<path d="M52.7848 35.7233C52.7848 48.8256 43.6551 59.4465 32.3924 59.4465C21.1297 59.4465 12 48.8256 12 35.7233C12 22.6233 21.1297 12 32.3924 12C43.6551 12 52.7848 22.6233 52.7848 35.7233Z" fill="url(#paint0_linear_13586_1285)"/>
<g opacity="0.5" filter="url(#filter0_f_13586_1285)">
<path d="M41.3664 32.1549C41.3664 39.2142 36.4476 44.9364 30.3795 44.9364C24.3114 44.9364 19.3926 39.2142 19.3926 32.1549C19.3926 25.097 24.3114 19.3734 30.3795 19.3734C36.4476 19.3734 41.3664 25.097 41.3664 32.1549Z" fill="#E46800"/>
</g>
<g filter="url(#filter1_b_13586_1285)">
<path d="M19.4906 43.2767C19.4906 30.1744 28.6202 19.5535 39.883 19.5535C51.1457 19.5535 60.2754 30.1744 60.2754 43.2767C60.2754 56.3767 51.1457 67 39.883 67C28.6202 67 19.4906 56.3767 19.4906 43.2767Z" fill="#FFCBB9" fill-opacity="0.35"/>
<path d="M39.883 19.0535C28.2758 19.0535 18.9906 29.9719 18.9906 43.2767C18.9906 56.5792 28.2758 67.5 39.883 67.5C51.4902 67.5 60.7754 56.5792 60.7754 43.2767C60.7754 29.9719 51.4902 19.0535 39.883 19.0535Z" stroke="url(#paint1_linear_13586_1285)" stroke-linecap="round" stroke-linejoin="round"/>
</g>
<g filter="url(#filter2_bd_13586_1285)">
<path d="M43.1609 15.9561C42.5962 15.8593 42.0221 16.0162 41.5654 16.3922C41.1086 16.7683 40.8066 17.3324 40.726 17.9604L40.6932 18.3304L40.0579 40.9265C39.9892 41.6702 40.2056 42.4145 40.6539 42.9767C41.1023 43.5388 41.7411 43.8667 42.4133 43.8797L62.6948 44.7918C63.2597 44.8185 63.8088 44.5937 64.2207 44.167C64.6325 43.7403 64.8732 43.147 64.8894 42.5183C64.9079 42.4409 64.9151 42.3606 64.9105 42.2805C64.2638 28.8734 55.1168 17.8024 43.1609 15.9561Z" fill="url(#paint2_linear_13586_1285)"/>
</g>
<g filter="url(#filter3_bd_13586_1285)">
<ellipse cx="39.4665" cy="43.9538" rx="3.49584" ry="4.06684" fill="url(#paint3_linear_13586_1285)"/>
<path d="M42.7624 43.9538C42.7624 46.1189 41.2595 47.8206 39.4665 47.8206C37.6736 47.8206 36.1707 46.1189 36.1707 43.9538C36.1707 41.7887 37.6736 40.087 39.4665 40.087C41.2595 40.087 42.7624 41.7887 42.7624 43.9538Z" stroke="url(#paint4_linear_13586_1285)" stroke-width="0.4"/>
</g>
<defs>
<filter id="filter0_f_13586_1285" x="0.392578" y="0.373413" width="59.9746" height="63.563" filterUnits="userSpaceOnUse" color-interpolation-filters="sRGB">
<feFlood flood-opacity="0" result="BackgroundImageFix"/>
<feBlend mode="normal" in="SourceGraphic" in2="BackgroundImageFix" result="shape"/>
<feGaussianBlur stdDeviation="9.5" result="effect1_foregroundBlur_13586_1285"/>
</filter>
<filter id="filter1_b_13586_1285" x="-5.50977" y="-5.44653" width="90.7852" height="97.4465" filterUnits="userSpaceOnUse" color-interpolation-filters="sRGB">
<feFlood flood-opacity="0" result="BackgroundImageFix"/>
<feGaussianBlur in="BackgroundImageFix" stdDeviation="12"/>
<feComposite in2="SourceAlpha" operator="in" result="effect1_backgroundBlur_13586_1285"/>
<feBlend mode="normal" in="SourceGraphic" in2="effect1_backgroundBlur_13586_1285" result="shape"/>
</filter>
<filter id="filter2_bd_13586_1285" x="25.0449" y="0.928101" width="54.8672" height="58.8658" filterUnits="userSpaceOnUse" color-interpolation-filters="sRGB">
<feFlood flood-opacity="0" result="BackgroundImageFix"/>
<feGaussianBlur in="BackgroundImageFix" stdDeviation="7.5"/>
<feComposite in2="SourceAlpha" operator="in" result="effect1_backgroundBlur_13586_1285"/>
<feColorMatrix in="SourceAlpha" type="matrix" values="0 0 0 0 0 0 0 0 0 0 0 0 0 0 0 0 0 0 127 0" result="hardAlpha"/>
<feOffset dx="-3" dy="5"/>
<feGaussianBlur stdDeviation="5"/>
<feColorMatrix type="matrix" values="0 0 0 0 1 0 0 0 0 0.52549 0 0 0 0 0.137255 0 0 0 0.3 0"/>
<feBlend mode="normal" in2="effect1_backgroundBlur_13586_1285" result="effect2_dropShadow_13586_1285"/>
<feBlend mode="normal" in="SourceGraphic" in2="effect2_dropShadow_13586_1285" result="shape"/>
</filter>
<filter id="filter3_bd_13586_1285" x="20.9707" y="24.887" width="36.9922" height="38.1337" filterUnits="userSpaceOnUse" color-interpolation-filters="sRGB">
<feFlood flood-opacity="0" result="BackgroundImageFix"/>
<feGaussianBlur in="BackgroundImageFix" stdDeviation="7.5"/>
<feComposite in2="SourceAlpha" operator="in" result="effect1_backgroundBlur_13586_1285"/>
<feColorMatrix in="SourceAlpha" type="matrix" values="0 0 0 0 0 0 0 0 0 0 0 0 0 0 0 0 0 0 127 0" result="hardAlpha"/>
<feOffset dx="5" dy="5"/>
<feGaussianBlur stdDeviation="5"/>
<feColorMatrix type="matrix" values="0 0 0 0 1 0 0 0 0 0.52549 0 0 0 0 0.137255 0 0 0 0.5 0"/>
<feBlend mode="normal" in2="effect1_backgroundBlur_13586_1285" result="effect2_dropShadow_13586_1285"/>
<feBlend mode="normal" in="SourceGraphic" in2="effect2_dropShadow_13586_1285" result="shape"/>
</filter>
<linearGradient id="paint0_linear_13586_1285" x1="32.3924" y1="12" x2="32.3924" y2="59.4465" gradientUnits="userSpaceOnUse">
<stop stop-color="#FFB37F"/>
<stop offset="1" stop-color="#FF7B0D"/>
</linearGradient>
<linearGradient id="paint1_linear_13586_1285" x1="60.3944" y1="67.3226" x2="11.9331" y2="32.041" gradientUnits="userSpaceOnUse">
<stop stop-color="white" stop-opacity="0.4"/>
<stop offset="1" stop-color="white" stop-opacity="0"/>
</linearGradient>
<linearGradient id="paint2_linear_13586_1285" x1="64.7077" y1="23.6008" x2="20.5724" y2="18.1733" gradientUnits="userSpaceOnUse">
<stop stop-color="white" stop-opacity="0.2"/>
<stop offset="1" stop-color="white"/>
</linearGradient>
<linearGradient id="paint3_linear_13586_1285" x1="42.4667" y1="41.3557" x2="30.6383" y2="40.9904" gradientUnits="userSpaceOnUse">
<stop stop-color="white"/>
<stop offset="1" stop-color="white" stop-opacity="0.2"/>
</linearGradient>
<linearGradient id="paint4_linear_13586_1285" x1="37.0837" y1="40.8345" x2="42.3809" y2="46.4741" gradientUnits="userSpaceOnUse">
<stop stop-color="white" stop-opacity="0.25"/>
<stop offset="1" stop-color="white" stop-opacity="0"/>
</linearGradient>
</defs>
</svg>
