<?xml version="1.0" encoding="UTF-8"?>
<!DOCTYPE svg PUBLIC "-//W3C//DTD SVG 1.1//EN" "http://www.w3.org/Graphics/SVG/1.1/DTD/svg11.dtd">
<svg xmlns="http://www.w3.org/2000/svg" version="1.1" viewBox="0 0 40 41" width="40px" height="41px" style="shape-rendering:geometricPrecision; text-rendering:geometricPrecision; image-rendering:optimizeQuality; fill-rule:evenodd; clip-rule:evenodd" xmlns:xlink="http://www.w3.org/1999/xlink">
<g><path style="opacity:1" fill="#fc603d" d="M 17.5,-0.5 C 18.1667,-0.5 18.8333,-0.5 19.5,-0.5C 20.5274,1.19416 21.8608,2.5275 23.5,3.5C 22.7611,3.36899 22.0944,3.53566 21.5,4C 23.0414,5.37121 24.3747,6.87121 25.5,8.5C 25.5,9.83333 25.5,11.1667 25.5,12.5C 24.8333,12.1667 24.1667,11.8333 23.5,11.5C 23.2624,9.59565 22.2624,8.26231 20.5,7.5C 20.1667,7.5 19.8333,7.5 19.5,7.5C 19.7678,5.90097 19.4345,4.56764 18.5,3.5C 17.7659,2.29208 17.4326,0.95875 17.5,-0.5 Z"/></g>
<g><path style="opacity:1" fill="#f6462a" d="M 23.5,3.5 C 26.2427,5.23931 28.2427,7.57265 29.5,10.5C 28.5,9.83333 27.5,9.16667 26.5,8.5C 26.1667,8.5 25.8333,8.5 25.5,8.5C 24.3747,6.87121 23.0414,5.37121 21.5,4C 22.0944,3.53566 22.7611,3.36899 23.5,3.5 Z"/></g>
<g><path style="opacity:1" fill="#ff9c45" d="M 20.5,7.5 C 22.2624,8.26231 23.2624,9.59565 23.5,11.5C 22.8592,12.4822 22.1925,13.4822 21.5,14.5C 22.1925,15.5178 22.8592,16.5178 23.5,17.5C 20.9899,17.0535 18.9899,17.7202 17.5,19.5C 16.7281,20.6935 15.7281,21.6935 14.5,22.5C 14.5,21.1667 14.5,19.8333 14.5,18.5C 17.34,15.3177 19.34,11.651 20.5,7.5 Z"/></g>
<g><path style="opacity:0.984" fill="#f64228" d="M 18.5,3.5 C 19.4345,4.56764 19.7678,5.90097 19.5,7.5C 18.1158,9.70312 16.4491,11.7031 14.5,13.5C 14.1667,13.5 13.8333,13.5 13.5,13.5C 15.1667,10.1667 16.8333,6.83333 18.5,3.5 Z"/></g>
<g><path style="opacity:1" fill="#ff7242" d="M 19.5,7.5 C 19.8333,7.5 20.1667,7.5 20.5,7.5C 19.34,11.651 17.34,15.3177 14.5,18.5C 14.5,16.8333 14.5,15.1667 14.5,13.5C 16.4491,11.7031 18.1158,9.70312 19.5,7.5 Z"/></g>
<g><path style="opacity:1" fill="#ff9940" d="M 23.5,11.5 C 24.1667,11.8333 24.8333,12.1667 25.5,12.5C 25.5,14.8333 25.5,17.1667 25.5,19.5C 25.5,20.5 25.5,21.5 25.5,22.5C 23.744,21.4479 23.0773,19.7812 23.5,17.5C 22.8592,16.5178 22.1925,15.5178 21.5,14.5C 22.1925,13.4822 22.8592,12.4822 23.5,11.5 Z"/></g>
<g><path style="opacity:1" fill="#f9330b" d="M 26.5,8.5 C 27.5,9.16667 28.5,9.83333 29.5,10.5C 29.5,10.8333 29.5,11.1667 29.5,11.5C 28.6281,14.5785 28.6281,17.5785 29.5,20.5C 28.5084,20.6716 27.8417,20.3382 27.5,19.5C 27.577,15.7852 27.2436,12.1185 26.5,8.5 Z"/></g>
<g><path style="opacity:1" fill="#ff5f2a" d="M 25.5,8.5 C 25.8333,8.5 26.1667,8.5 26.5,8.5C 27.2436,12.1185 27.577,15.7852 27.5,19.5C 26.8333,19.5 26.1667,19.5 25.5,19.5C 25.5,17.1667 25.5,14.8333 25.5,12.5C 25.5,11.1667 25.5,9.83333 25.5,8.5 Z"/></g>
<g><path style="opacity:0.969" fill="#fd5b49" d="M 8.5,17.5 C 7.83333,17.5 7.16667,17.5 6.5,17.5C 4.96813,14.0409 5.80147,11.0409 9,8.5C 9.94389,11.3471 9.44389,13.8471 7.5,16C 8.05596,16.3826 8.38929,16.8826 8.5,17.5 Z"/></g>
<g><path style="opacity:0.999" fill="#f6430f" d="M 13.5,13.5 C 13.8333,13.5 14.1667,13.5 14.5,13.5C 14.5,15.1667 14.5,16.8333 14.5,18.5C 14.5,19.8333 14.5,21.1667 14.5,22.5C 12.7163,23.7199 11.0496,23.7199 9.5,22.5C 10.5,22.5 11.5,22.5 12.5,22.5C 12.5,20.5 12.5,18.5 12.5,16.5C 12.2627,15.209 12.596,14.209 13.5,13.5 Z"/></g>
<g><path style="opacity:1" fill="#ffba46" d="M 26.5,28.5 C 26.1667,28.5 25.8333,28.5 25.5,28.5C 23.6593,27.5977 22.326,26.2644 21.5,24.5C 21.6602,22.8008 21.4935,21.1341 21,19.5C 17.6488,21.2014 15.4821,23.8681 14.5,27.5C 13.8333,27.5 13.1667,27.5 12.5,27.5C 13.9418,26.1805 14.6085,24.5138 14.5,22.5C 15.7281,21.6935 16.7281,20.6935 17.5,19.5C 19.1172,18.962 20.7839,18.6287 22.5,18.5C 22.1856,22.5318 23.5189,25.8652 26.5,28.5 Z"/></g>
<g><path style="opacity:0.929" fill="#f1402c" d="M 29.5,11.5 C 30.7537,13.3569 30.7537,15.3569 29.5,17.5C 30.8055,19.9305 31.8055,19.5972 32.5,16.5C 34.7647,18.7885 35.7647,21.6218 35.5,25C 35.8851,28.7267 34.5518,31.5601 31.5,33.5C 31.5,32.1667 31.5,30.8333 31.5,29.5C 34.3893,27.2252 35.0559,24.3918 33.5,21C 32.552,20.5172 31.552,20.3505 30.5,20.5C 30.1667,20.5 29.8333,20.5 29.5,20.5C 28.6281,17.5785 28.6281,14.5785 29.5,11.5 Z"/></g>
<g><path style="opacity:0.463" fill="#f2432b" d="M 12.5,16.5 C 12.5,18.5 12.5,20.5 12.5,22.5C 11.5,22.5 10.5,22.5 9.5,22.5C 8.83333,22.1667 8.16667,21.8333 7.5,21.5C 7.16667,20.5 6.5,19.8333 5.5,19.5C 5.83333,18.8333 6.16667,18.1667 6.5,17.5C 7.16667,17.5 7.83333,17.5 8.5,17.5C 8.22216,19.3464 8.88882,20.6798 10.5,21.5C 11.1698,19.7086 11.8365,18.0419 12.5,16.5 Z"/></g>
<g><path style="opacity:1" fill="#ffab3c" d="M 23.5,17.5 C 23.0773,19.7812 23.744,21.4479 25.5,22.5C 25.9731,23.9063 26.9731,24.573 28.5,24.5C 29.4511,25.9187 29.7845,27.5853 29.5,29.5C 28.609,28.8902 27.609,28.5569 26.5,28.5C 23.5189,25.8652 22.1856,22.5318 22.5,18.5C 20.7839,18.6287 19.1172,18.962 17.5,19.5C 18.9899,17.7202 20.9899,17.0535 23.5,17.5 Z"/></g>
<g><path style="opacity:1" fill="#ff5a36" d="M 25.5,19.5 C 26.1667,19.5 26.8333,19.5 27.5,19.5C 27.8417,20.3382 28.5084,20.6716 29.5,20.5C 29.8333,20.5 30.1667,20.5 30.5,20.5C 30.4431,21.609 30.1098,22.609 29.5,23.5C 28.8333,23.5 28.5,23.8333 28.5,24.5C 26.9731,24.573 25.9731,23.9063 25.5,22.5C 25.5,21.5 25.5,20.5 25.5,19.5 Z"/></g>
<g><path style="opacity:1" fill="#fe782b" d="M 7.5,21.5 C 8.16667,21.8333 8.83333,22.1667 9.5,22.5C 11.0496,23.7199 12.7163,23.7199 14.5,22.5C 14.6085,24.5138 13.9418,26.1805 12.5,27.5C 10.6921,28.9179 10.0254,30.9179 10.5,33.5C 9.46253,32.0697 8.79586,30.403 8.5,28.5C 8.41423,27.5041 8.74756,26.6708 9.5,26C 8.41782,24.6703 7.75115,23.1703 7.5,21.5 Z"/></g>
<g><path style="opacity:1" fill="#f83505" d="M 30.5,20.5 C 31.552,20.3505 32.552,20.5172 33.5,21C 35.0559,24.3918 34.3893,27.2252 31.5,29.5C 30.8333,27.5 30.1667,25.5 29.5,23.5C 30.1098,22.609 30.4431,21.609 30.5,20.5 Z"/></g>
<g><path style="opacity:1" fill="#f95506" d="M 5.5,19.5 C 6.5,19.8333 7.16667,20.5 7.5,21.5C 7.75115,23.1703 8.41782,24.6703 9.5,26C 8.74756,26.6708 8.41423,27.5041 8.5,28.5C 5.90058,26.6143 4.90058,23.9476 5.5,20.5C 5.5,20.1667 5.5,19.8333 5.5,19.5 Z"/></g>
<g><path style="opacity:1" fill="#ffca49" d="M 21.5,24.5 C 20.1266,24.3433 18.7932,24.51 17.5,25C 16.5941,27.2213 15.5941,29.3879 14.5,31.5C 14.1667,31.5 13.8333,31.5 13.5,31.5C 13.4326,30.0413 13.7659,28.7079 14.5,27.5C 15.4821,23.8681 17.6488,21.2014 21,19.5C 21.4935,21.1341 21.6602,22.8008 21.5,24.5 Z"/></g>
<g><path style="opacity:1" fill="#feea70" d="M 21.5,24.5 C 22.326,26.2644 23.6593,27.5977 25.5,28.5C 25.6633,30.8568 25.4966,33.1902 25,35.5C 24.6174,36.056 24.1174,36.3893 23.5,36.5C 23.8541,33.5794 22.8541,31.2461 20.5,29.5C 17.4529,30.8751 16.1196,33.2084 16.5,36.5C 14.7868,35.3646 14.1201,33.698 14.5,31.5C 15.5941,29.3879 16.5941,27.2213 17.5,25C 18.7932,24.51 20.1266,24.3433 21.5,24.5 Z"/></g>
<g><path style="opacity:1" fill="#f24b22" d="M 5.5,20.5 C 4.90058,23.9476 5.90058,26.6143 8.5,28.5C 8.79586,30.403 9.46253,32.0697 10.5,33.5C 10.7678,35.099 10.4345,36.4324 9.5,37.5C 6.25905,36.9626 5.25905,35.2959 6.5,32.5C 3.17107,28.5985 2.83774,24.5985 5.5,20.5 Z"/></g>
<g><path style="opacity:1" fill="#fcf9c3" d="M 23.5,36.5 C 22.375,37.6522 22.375,38.6522 23.5,39.5C 23.8333,39.5 24.1667,39.5 24.5,39.5C 24.5,39.8333 24.5,40.1667 24.5,40.5C 23.5,40.5 22.5,40.5 21.5,40.5C 21.5,37.8333 21.5,35.1667 21.5,32.5C 18.0897,32.3838 16.7564,34.0504 17.5,37.5C 16.8333,37.5 16.5,37.1667 16.5,36.5C 16.1196,33.2084 17.4529,30.8751 20.5,29.5C 22.8541,31.2461 23.8541,33.5794 23.5,36.5 Z"/></g>
<g><path style="opacity:1" fill="#fba517" d="M 12.5,27.5 C 13.1667,27.5 13.8333,27.5 14.5,27.5C 13.7659,28.7079 13.4326,30.0413 13.5,31.5C 11.9257,34.4304 12.5924,36.9304 15.5,39C 14.9056,39.4643 14.2389,39.631 13.5,39.5C 11.847,39.3404 10.5137,38.6737 9.5,37.5C 10.4345,36.4324 10.7678,35.099 10.5,33.5C 10.0254,30.9179 10.6921,28.9179 12.5,27.5 Z"/></g>
<g><path style="opacity:1" fill="#fbf8d9" d="M 21.5,40.5 C 20.5,40.5 19.5,40.5 18.5,40.5C 18.4431,39.391 18.1098,38.391 17.5,37.5C 16.7564,34.0504 18.0897,32.3838 21.5,32.5C 21.5,35.1667 21.5,37.8333 21.5,40.5 Z"/></g>
<g><path style="opacity:1" fill="#ffc71e" d="M 25.5,28.5 C 25.8333,28.5 26.1667,28.5 26.5,28.5C 27.609,28.5569 28.609,28.8902 29.5,29.5C 30.686,31.1942 30.5193,32.8608 29,34.5C 26.8094,35.8334 24.976,37.5 23.5,39.5C 22.375,38.6522 22.375,37.6522 23.5,36.5C 24.1174,36.3893 24.6174,36.056 25,35.5C 25.4966,33.1902 25.6633,30.8568 25.5,28.5 Z"/></g>
<g><path style="opacity:0.969" fill="#f86e21" d="M 28.5,24.5 C 28.5,23.8333 28.8333,23.5 29.5,23.5C 30.1667,25.5 30.8333,27.5 31.5,29.5C 31.5,30.8333 31.5,32.1667 31.5,33.5C 31.3551,37.2864 29.0218,39.2864 24.5,39.5C 24.1667,39.5 23.8333,39.5 23.5,39.5C 24.976,37.5 26.8094,35.8334 29,34.5C 30.5193,32.8608 30.686,31.1942 29.5,29.5C 29.7845,27.5853 29.4511,25.9187 28.5,24.5 Z"/></g>
<g><path style="opacity:1" fill="#fed73b" d="M 13.5,31.5 C 13.8333,31.5 14.1667,31.5 14.5,31.5C 14.1201,33.698 14.7868,35.3646 16.5,36.5C 16.5,37.1667 16.8333,37.5 17.5,37.5C 18.1098,38.391 18.4431,39.391 18.5,40.5C 16.8333,40.5 15.1667,40.5 13.5,40.5C 13.5,40.1667 13.5,39.8333 13.5,39.5C 14.2389,39.631 14.9056,39.4643 15.5,39C 12.5924,36.9304 11.9257,34.4304 13.5,31.5 Z"/></g>
</svg>
