<svg xmlns="http://www.w3.org/2000/svg" xmlns:xlink="http://www.w3.org/1999/xlink"><defs>
<clipPath id="clip0_1402_18271">
<rect width="56" height="40" fill="white"/>
</clipPath>
</defs><symbol id="icon-close-error" viewBox="0 0 30 30"><g fill="none">
<path d="M28 2.08621L2.08966 27M28 27L2 2" stroke="#FF5200" stroke-width="3" stroke-linecap="round"/>
</g></symbol><symbol id="icon-close" viewBox="0 0 30 30"><g fill="none">
<path d="M28 2.08621L2.08966 27M28 27L2 2" stroke="#498AE9" stroke-width="3" stroke-linecap="round"/>
</g></symbol><symbol id="icon-fire" viewBox="0 0 40 41"><g style="shape-rendering:geometricPrecision; text-rendering:geometricPrecision; image-rendering:optimizeQuality; fill-rule:evenodd; clip-rule:evenodd">
<g><path style="opacity:1" fill="#fc603d" d="M 17.5,-0.5 C 18.1667,-0.5 18.8333,-0.5 19.5,-0.5C 20.5274,1.19416 21.8608,2.5275 23.5,3.5C 22.7611,3.36899 22.0944,3.53566 21.5,4C 23.0414,5.37121 24.3747,6.87121 25.5,8.5C 25.5,9.83333 25.5,11.1667 25.5,12.5C 24.8333,12.1667 24.1667,11.8333 23.5,11.5C 23.2624,9.59565 22.2624,8.26231 20.5,7.5C 20.1667,7.5 19.8333,7.5 19.5,7.5C 19.7678,5.90097 19.4345,4.56764 18.5,3.5C 17.7659,2.29208 17.4326,0.95875 17.5,-0.5 Z"/></g>
<g><path style="opacity:1" fill="#f6462a" d="M 23.5,3.5 C 26.2427,5.23931 28.2427,7.57265 29.5,10.5C 28.5,9.83333 27.5,9.16667 26.5,8.5C 26.1667,8.5 25.8333,8.5 25.5,8.5C 24.3747,6.87121 23.0414,5.37121 21.5,4C 22.0944,3.53566 22.7611,3.36899 23.5,3.5 Z"/></g>
<g><path style="opacity:1" fill="#ff9c45" d="M 20.5,7.5 C 22.2624,8.26231 23.2624,9.59565 23.5,11.5C 22.8592,12.4822 22.1925,13.4822 21.5,14.5C 22.1925,15.5178 22.8592,16.5178 23.5,17.5C 20.9899,17.0535 18.9899,17.7202 17.5,19.5C 16.7281,20.6935 15.7281,21.6935 14.5,22.5C 14.5,21.1667 14.5,19.8333 14.5,18.5C 17.34,15.3177 19.34,11.651 20.5,7.5 Z"/></g>
<g><path style="opacity:0.984" fill="#f64228" d="M 18.5,3.5 C 19.4345,4.56764 19.7678,5.90097 19.5,7.5C 18.1158,9.70312 16.4491,11.7031 14.5,13.5C 14.1667,13.5 13.8333,13.5 13.5,13.5C 15.1667,10.1667 16.8333,6.83333 18.5,3.5 Z"/></g>
<g><path style="opacity:1" fill="#ff7242" d="M 19.5,7.5 C 19.8333,7.5 20.1667,7.5 20.5,7.5C 19.34,11.651 17.34,15.3177 14.5,18.5C 14.5,16.8333 14.5,15.1667 14.5,13.5C 16.4491,11.7031 18.1158,9.70312 19.5,7.5 Z"/></g>
<g><path style="opacity:1" fill="#ff9940" d="M 23.5,11.5 C 24.1667,11.8333 24.8333,12.1667 25.5,12.5C 25.5,14.8333 25.5,17.1667 25.5,19.5C 25.5,20.5 25.5,21.5 25.5,22.5C 23.744,21.4479 23.0773,19.7812 23.5,17.5C 22.8592,16.5178 22.1925,15.5178 21.5,14.5C 22.1925,13.4822 22.8592,12.4822 23.5,11.5 Z"/></g>
<g><path style="opacity:1" fill="#f9330b" d="M 26.5,8.5 C 27.5,9.16667 28.5,9.83333 29.5,10.5C 29.5,10.8333 29.5,11.1667 29.5,11.5C 28.6281,14.5785 28.6281,17.5785 29.5,20.5C 28.5084,20.6716 27.8417,20.3382 27.5,19.5C 27.577,15.7852 27.2436,12.1185 26.5,8.5 Z"/></g>
<g><path style="opacity:1" fill="#ff5f2a" d="M 25.5,8.5 C 25.8333,8.5 26.1667,8.5 26.5,8.5C 27.2436,12.1185 27.577,15.7852 27.5,19.5C 26.8333,19.5 26.1667,19.5 25.5,19.5C 25.5,17.1667 25.5,14.8333 25.5,12.5C 25.5,11.1667 25.5,9.83333 25.5,8.5 Z"/></g>
<g><path style="opacity:0.969" fill="#fd5b49" d="M 8.5,17.5 C 7.83333,17.5 7.16667,17.5 6.5,17.5C 4.96813,14.0409 5.80147,11.0409 9,8.5C 9.94389,11.3471 9.44389,13.8471 7.5,16C 8.05596,16.3826 8.38929,16.8826 8.5,17.5 Z"/></g>
<g><path style="opacity:0.999" fill="#f6430f" d="M 13.5,13.5 C 13.8333,13.5 14.1667,13.5 14.5,13.5C 14.5,15.1667 14.5,16.8333 14.5,18.5C 14.5,19.8333 14.5,21.1667 14.5,22.5C 12.7163,23.7199 11.0496,23.7199 9.5,22.5C 10.5,22.5 11.5,22.5 12.5,22.5C 12.5,20.5 12.5,18.5 12.5,16.5C 12.2627,15.209 12.596,14.209 13.5,13.5 Z"/></g>
<g><path style="opacity:1" fill="#ffba46" d="M 26.5,28.5 C 26.1667,28.5 25.8333,28.5 25.5,28.5C 23.6593,27.5977 22.326,26.2644 21.5,24.5C 21.6602,22.8008 21.4935,21.1341 21,19.5C 17.6488,21.2014 15.4821,23.8681 14.5,27.5C 13.8333,27.5 13.1667,27.5 12.5,27.5C 13.9418,26.1805 14.6085,24.5138 14.5,22.5C 15.7281,21.6935 16.7281,20.6935 17.5,19.5C 19.1172,18.962 20.7839,18.6287 22.5,18.5C 22.1856,22.5318 23.5189,25.8652 26.5,28.5 Z"/></g>
<g><path style="opacity:0.929" fill="#f1402c" d="M 29.5,11.5 C 30.7537,13.3569 30.7537,15.3569 29.5,17.5C 30.8055,19.9305 31.8055,19.5972 32.5,16.5C 34.7647,18.7885 35.7647,21.6218 35.5,25C 35.8851,28.7267 34.5518,31.5601 31.5,33.5C 31.5,32.1667 31.5,30.8333 31.5,29.5C 34.3893,27.2252 35.0559,24.3918 33.5,21C 32.552,20.5172 31.552,20.3505 30.5,20.5C 30.1667,20.5 29.8333,20.5 29.5,20.5C 28.6281,17.5785 28.6281,14.5785 29.5,11.5 Z"/></g>
<g><path style="opacity:0.463" fill="#f2432b" d="M 12.5,16.5 C 12.5,18.5 12.5,20.5 12.5,22.5C 11.5,22.5 10.5,22.5 9.5,22.5C 8.83333,22.1667 8.16667,21.8333 7.5,21.5C 7.16667,20.5 6.5,19.8333 5.5,19.5C 5.83333,18.8333 6.16667,18.1667 6.5,17.5C 7.16667,17.5 7.83333,17.5 8.5,17.5C 8.22216,19.3464 8.88882,20.6798 10.5,21.5C 11.1698,19.7086 11.8365,18.0419 12.5,16.5 Z"/></g>
<g><path style="opacity:1" fill="#ffab3c" d="M 23.5,17.5 C 23.0773,19.7812 23.744,21.4479 25.5,22.5C 25.9731,23.9063 26.9731,24.573 28.5,24.5C 29.4511,25.9187 29.7845,27.5853 29.5,29.5C 28.609,28.8902 27.609,28.5569 26.5,28.5C 23.5189,25.8652 22.1856,22.5318 22.5,18.5C 20.7839,18.6287 19.1172,18.962 17.5,19.5C 18.9899,17.7202 20.9899,17.0535 23.5,17.5 Z"/></g>
<g><path style="opacity:1" fill="#ff5a36" d="M 25.5,19.5 C 26.1667,19.5 26.8333,19.5 27.5,19.5C 27.8417,20.3382 28.5084,20.6716 29.5,20.5C 29.8333,20.5 30.1667,20.5 30.5,20.5C 30.4431,21.609 30.1098,22.609 29.5,23.5C 28.8333,23.5 28.5,23.8333 28.5,24.5C 26.9731,24.573 25.9731,23.9063 25.5,22.5C 25.5,21.5 25.5,20.5 25.5,19.5 Z"/></g>
<g><path style="opacity:1" fill="#fe782b" d="M 7.5,21.5 C 8.16667,21.8333 8.83333,22.1667 9.5,22.5C 11.0496,23.7199 12.7163,23.7199 14.5,22.5C 14.6085,24.5138 13.9418,26.1805 12.5,27.5C 10.6921,28.9179 10.0254,30.9179 10.5,33.5C 9.46253,32.0697 8.79586,30.403 8.5,28.5C 8.41423,27.5041 8.74756,26.6708 9.5,26C 8.41782,24.6703 7.75115,23.1703 7.5,21.5 Z"/></g>
<g><path style="opacity:1" fill="#f83505" d="M 30.5,20.5 C 31.552,20.3505 32.552,20.5172 33.5,21C 35.0559,24.3918 34.3893,27.2252 31.5,29.5C 30.8333,27.5 30.1667,25.5 29.5,23.5C 30.1098,22.609 30.4431,21.609 30.5,20.5 Z"/></g>
<g><path style="opacity:1" fill="#f95506" d="M 5.5,19.5 C 6.5,19.8333 7.16667,20.5 7.5,21.5C 7.75115,23.1703 8.41782,24.6703 9.5,26C 8.74756,26.6708 8.41423,27.5041 8.5,28.5C 5.90058,26.6143 4.90058,23.9476 5.5,20.5C 5.5,20.1667 5.5,19.8333 5.5,19.5 Z"/></g>
<g><path style="opacity:1" fill="#ffca49" d="M 21.5,24.5 C 20.1266,24.3433 18.7932,24.51 17.5,25C 16.5941,27.2213 15.5941,29.3879 14.5,31.5C 14.1667,31.5 13.8333,31.5 13.5,31.5C 13.4326,30.0413 13.7659,28.7079 14.5,27.5C 15.4821,23.8681 17.6488,21.2014 21,19.5C 21.4935,21.1341 21.6602,22.8008 21.5,24.5 Z"/></g>
<g><path style="opacity:1" fill="#feea70" d="M 21.5,24.5 C 22.326,26.2644 23.6593,27.5977 25.5,28.5C 25.6633,30.8568 25.4966,33.1902 25,35.5C 24.6174,36.056 24.1174,36.3893 23.5,36.5C 23.8541,33.5794 22.8541,31.2461 20.5,29.5C 17.4529,30.8751 16.1196,33.2084 16.5,36.5C 14.7868,35.3646 14.1201,33.698 14.5,31.5C 15.5941,29.3879 16.5941,27.2213 17.5,25C 18.7932,24.51 20.1266,24.3433 21.5,24.5 Z"/></g>
<g><path style="opacity:1" fill="#f24b22" d="M 5.5,20.5 C 4.90058,23.9476 5.90058,26.6143 8.5,28.5C 8.79586,30.403 9.46253,32.0697 10.5,33.5C 10.7678,35.099 10.4345,36.4324 9.5,37.5C 6.25905,36.9626 5.25905,35.2959 6.5,32.5C 3.17107,28.5985 2.83774,24.5985 5.5,20.5 Z"/></g>
<g><path style="opacity:1" fill="#fcf9c3" d="M 23.5,36.5 C 22.375,37.6522 22.375,38.6522 23.5,39.5C 23.8333,39.5 24.1667,39.5 24.5,39.5C 24.5,39.8333 24.5,40.1667 24.5,40.5C 23.5,40.5 22.5,40.5 21.5,40.5C 21.5,37.8333 21.5,35.1667 21.5,32.5C 18.0897,32.3838 16.7564,34.0504 17.5,37.5C 16.8333,37.5 16.5,37.1667 16.5,36.5C 16.1196,33.2084 17.4529,30.8751 20.5,29.5C 22.8541,31.2461 23.8541,33.5794 23.5,36.5 Z"/></g>
<g><path style="opacity:1" fill="#fba517" d="M 12.5,27.5 C 13.1667,27.5 13.8333,27.5 14.5,27.5C 13.7659,28.7079 13.4326,30.0413 13.5,31.5C 11.9257,34.4304 12.5924,36.9304 15.5,39C 14.9056,39.4643 14.2389,39.631 13.5,39.5C 11.847,39.3404 10.5137,38.6737 9.5,37.5C 10.4345,36.4324 10.7678,35.099 10.5,33.5C 10.0254,30.9179 10.6921,28.9179 12.5,27.5 Z"/></g>
<g><path style="opacity:1" fill="#fbf8d9" d="M 21.5,40.5 C 20.5,40.5 19.5,40.5 18.5,40.5C 18.4431,39.391 18.1098,38.391 17.5,37.5C 16.7564,34.0504 18.0897,32.3838 21.5,32.5C 21.5,35.1667 21.5,37.8333 21.5,40.5 Z"/></g>
<g><path style="opacity:1" fill="#ffc71e" d="M 25.5,28.5 C 25.8333,28.5 26.1667,28.5 26.5,28.5C 27.609,28.5569 28.609,28.8902 29.5,29.5C 30.686,31.1942 30.5193,32.8608 29,34.5C 26.8094,35.8334 24.976,37.5 23.5,39.5C 22.375,38.6522 22.375,37.6522 23.5,36.5C 24.1174,36.3893 24.6174,36.056 25,35.5C 25.4966,33.1902 25.6633,30.8568 25.5,28.5 Z"/></g>
<g><path style="opacity:0.969" fill="#f86e21" d="M 28.5,24.5 C 28.5,23.8333 28.8333,23.5 29.5,23.5C 30.1667,25.5 30.8333,27.5 31.5,29.5C 31.5,30.8333 31.5,32.1667 31.5,33.5C 31.3551,37.2864 29.0218,39.2864 24.5,39.5C 24.1667,39.5 23.8333,39.5 23.5,39.5C 24.976,37.5 26.8094,35.8334 29,34.5C 30.5193,32.8608 30.686,31.1942 29.5,29.5C 29.7845,27.5853 29.4511,25.9187 28.5,24.5 Z"/></g>
<g><path style="opacity:1" fill="#fed73b" d="M 13.5,31.5 C 13.8333,31.5 14.1667,31.5 14.5,31.5C 14.1201,33.698 14.7868,35.3646 16.5,36.5C 16.5,37.1667 16.8333,37.5 17.5,37.5C 18.1098,38.391 18.4431,39.391 18.5,40.5C 16.8333,40.5 15.1667,40.5 13.5,40.5C 13.5,40.1667 13.5,39.8333 13.5,39.5C 14.2389,39.631 14.9056,39.4643 15.5,39C 12.5924,36.9304 11.9257,34.4304 13.5,31.5 Z"/></g>
</g></symbol><symbol id="icon-search" viewBox="0 0 30 30"><g fill="none">
<path fill-rule="evenodd" clip-rule="evenodd" d="M13.9476 3.64769C12.5984 3.64769 11.2624 3.91344 10.0158 4.42977C8.76931 4.9461 7.6367 5.70289 6.68265 6.65693C5.72861 7.61098 4.97181 8.74359 4.45549 9.99011C3.93916 11.2366 3.67341 12.5726 3.67341 13.9219C3.67341 15.2711 3.93916 16.6071 4.45549 17.8536C4.97181 19.1002 5.72861 20.2328 6.68265 21.1868C7.6367 22.1409 8.76931 22.8977 10.0158 23.414C11.2624 23.9303 12.5984 24.1961 13.9476 24.1961C16.6154 24.1124 19.146 22.9938 21.0035 21.0771C22.8611 19.1604 23.8998 16.5961 23.8998 13.9269C23.8998 11.2578 22.8611 8.69342 21.0035 6.77672C19.146 4.86001 16.6154 3.74143 13.9476 3.65779V3.64769ZM0.736492 13.9421C0.687695 12.1771 0.993184 10.4203 1.63491 8.77537C2.27663 7.13048 3.24156 5.63091 4.47268 4.36528C5.7038 3.09965 7.17613 2.09364 8.80266 1.40671C10.4292 0.71977 12.1769 0.365845 13.9425 0.365845C15.7082 0.365845 17.4559 0.71977 19.0824 1.40671C20.709 2.09364 22.1813 3.09965 23.4124 4.36528C24.6435 5.63091 25.6085 7.13048 26.2502 8.77537C26.8919 10.4203 27.1974 12.1771 27.1486 13.9421C27.0535 17.3813 25.6205 20.6478 23.1542 23.0468C20.688 25.4458 17.3831 26.788 13.9425 26.788C10.502 26.788 7.19712 25.4458 4.73088 23.0468C2.26463 20.6478 0.831579 17.3813 0.736492 13.9421Z" fill="#498AE9"/>
<path fill-rule="evenodd" clip-rule="evenodd" d="M21.1536 21.1381C21.428 20.8638 21.8001 20.7098 22.1881 20.7098C22.5761 20.7098 22.9482 20.8638 23.2226 21.1381L29.5809 27.4964C29.8443 27.7729 29.9891 28.1415 29.9845 28.5235C29.9798 28.9054 29.826 29.2703 29.556 29.5404C29.2859 29.8105 28.9209 29.9643 28.539 29.9689C28.1571 29.9736 27.7885 29.8287 27.5119 29.5653L21.1536 23.207C20.8794 22.9326 20.7253 22.5605 20.7253 22.1726C20.7253 21.7846 20.8794 21.4125 21.1536 21.1381Z" fill="#498AE9"/>
</g></symbol><symbol id="info-icon" viewBox="0 0 24 24"><g fill="none">
<path d="M10.9156 7.804V5.815H13.0846V7.804H10.9156ZM10.9156 19V9.28H13.0846V19H10.9156Z" fill="white"/>
<circle cx="12" cy="12" r="11" stroke="white" stroke-width="2"/>
</g></symbol><symbol id="logo-X5" viewBox="0 0 56 40"><g fill="none">
<g clip-path="url(#clip0_1402_18271)">
<path d="M35.2572 39.3942L31.1007 32.1082L27.0303 39.3942H22.159L28.4202 28.4129L22.0332 18.2139H27.1296L31.2133 25.0248L35.1116 18.2139H39.9896L33.7085 28.7482L40.1616 39.3942H35.2572Z" fill="black"/>
<path d="M56.0003 32.199C56.0003 36.8585 52.6909 39.7574 48.316 39.7574C44.4773 39.7574 41.2407 37.522 40.9297 32.6531H45.0862C45.3708 34.7488 46.9791 35.6779 48.7264 35.6779C50.904 35.6779 51.8438 34.134 51.8438 32.1362C51.8438 30.1383 50.381 28.7482 48.3491 28.7482C47.7009 28.7127 47.055 28.8557 46.4749 29.1631C45.8947 29.4705 45.4002 29.9317 45.0398 30.5015H41.0687L42.4453 18.2139H55.4907L55.0538 22.3284H45.7084L45.3377 26.394C45.3377 26.394 46.3173 25.1785 49.3089 25.1785C52.8763 25.1785 56.0003 27.7143 56.0003 32.199Z" fill="black"/>
<path d="M41.4193 15.5803C39.2087 6.49904 32.1533 0.0653076 17.5923 0.0653076H0L2.38932 17.1172C4.18297 32.4854 9.76247 37.4592 19.6308 39.2824C19.6767 39.2959 19.7249 39.297 19.7713 39.2857C19.8176 39.2743 19.8605 39.2509 19.8961 39.2176C19.9316 39.1842 19.9587 39.142 19.9748 39.0947C19.9909 39.0475 19.9955 38.9967 19.9883 38.9471C19.99 38.8814 19.9725 38.8166 19.9381 38.7616C19.9038 38.7066 19.8543 38.6641 19.7963 38.6398C13.1248 35.6779 12.3636 25.9539 10.9406 16.2021L9.83527 8.42708H19.8824C29.1484 8.42708 36.3032 8.27339 40.8303 15.8248C40.8619 15.8787 40.9057 15.9234 40.9576 15.9551C41.0096 15.9868 41.0681 16.0044 41.1281 16.0064C41.1693 16.0065 41.2099 15.9977 41.2478 15.9807C41.2856 15.9637 41.3198 15.9388 41.3482 15.9074C41.3767 15.8761 41.3988 15.839 41.4134 15.7984C41.4278 15.7578 41.4344 15.7145 41.4326 15.6711C41.432 15.6404 41.4274 15.6098 41.4193 15.5803Z" fill="#5FAF2D"/>
</g>

</g></symbol><symbol id="tick-icon" viewBox="0 0 11 11"><g fill="none">
  <path d="M1.5 4.5L5.35333 8.35333M5.35333 8.35333L9.20667 4.5M5.35333 8.35333L5.34 8.36667" stroke="white" stroke-width="2" stroke-linecap="round"/>
</g></symbol></svg>